<svg width="24" height="24" viewBox="0 0 24 24" fill="none" xmlns="http://www.w3.org/2000/svg">
<rect x="0.75" y="0.75" width="22.5" height="22.5" rx="11.25" stroke="#0446F2" stroke-width="1.5"/>
<path d="M17.8534 12.3537L13.3535 16.8535C13.2597 16.9473 13.1324 17 12.9998 17C12.8671 17 12.7398 16.9473 12.646 16.8535C12.5522 16.7597 12.4995 16.6324 12.4995 16.4997C12.4995 16.3671 12.5522 16.2398 12.646 16.146L16.2928 12.5H6.49998C6.36738 12.5 6.24021 12.4473 6.14644 12.3535C6.05268 12.2598 6 12.1326 6 12C6 11.8674 6.05268 11.7402 6.14644 11.6465C6.24021 11.5527 6.36738 11.5 6.49998 11.5H16.2928L12.646 7.85398C12.5522 7.76017 12.4995 7.63292 12.4995 7.50025C12.4995 7.36758 12.5522 7.24033 12.646 7.14652C12.7398 7.0527 12.8671 7 12.9998 7C13.1324 7 13.2597 7.0527 13.3535 7.14652L17.8534 11.6463C17.8998 11.6927 17.9367 11.7478 17.9619 11.8085C17.9871 11.8692 18 11.9343 18 12C18 12.0657 17.9871 12.1308 17.9619 12.1915C17.9367 12.2522 17.8998 12.3073 17.8534 12.3537Z" fill="#0446F2"/>
</svg>
