<svg width="24" height="24" viewBox="0 0 24 24" fill="none" xmlns="http://www.w3.org/2000/svg">
<rect width="24" height="24" rx="12" fill="#0543E5"/>
<path d="M15.5144 18H17.999L18 13.6029C18 11.4443 17.5357 9.78498 15.0175 9.78498C14.0548 9.74919 13.1505 10.2467 12.6641 11.0797H12.6307V9.98436H10.2455V17.9997H12.7301V14.0346C12.7301 12.989 12.9281 11.9763 14.2221 11.9763C15.4978 11.9763 15.5144 13.1728 15.5144 14.1022V18Z" fill="white"/>
<path d="M6 7.44461C6.00014 8.24231 6.64579 8.88885 7.44209 8.88871C7.82449 8.88864 8.1912 8.7364 8.46154 8.46549C8.73189 8.19457 8.88373 7.82716 8.88366 7.4441C8.88352 6.6464 8.23788 5.99986 7.44157 6C6.64527 6.00014 5.99986 6.64692 6 7.44461Z" fill="white"/>
<path d="M6.19721 18H8.68438V9.98436H6.19721V18Z" fill="white"/>
</svg>
