<svg width="24" height="24" viewBox="0 0 24 24" fill="none" xmlns="http://www.w3.org/2000/svg">
<path d="M0.93747 11.25C0.938711 10.1066 1.39346 9.01044 2.20194 8.20196C3.01042 7.39348 4.1066 6.93873 5.24997 6.93749H8.98591C9.22778 6.92343 14.0578 6.6028 18.6562 2.74593C18.8475 2.58538 19.0807 2.48274 19.3282 2.45007C19.5758 2.41739 19.8276 2.45603 20.054 2.56145C20.2804 2.66688 20.472 2.83471 20.6064 3.04523C20.7407 3.25576 20.8122 3.50025 20.8125 3.74999V18.75C20.8142 18.9999 20.7437 19.2451 20.6095 19.4559C20.4753 19.6668 20.2831 19.8344 20.0559 19.9387C19.8817 20.0197 19.6921 20.0619 19.5 20.0625C19.1909 20.0627 18.8919 19.953 18.6562 19.7531C14.9062 16.6106 11.009 15.8156 9.56247 15.6216V18.8091C9.56253 19.0251 9.50926 19.2378 9.40737 19.4284C9.30548 19.6189 9.15814 19.7813 8.97841 19.9012L7.94716 20.5884C7.77273 20.7046 7.57303 20.7773 7.36476 20.8005C7.15648 20.8236 6.94568 20.7966 6.74999 20.7216C6.55431 20.6466 6.37942 20.5259 6.23997 20.3694C6.10051 20.213 6.00054 20.0255 5.94841 19.8225L4.81122 15.5372C3.75004 15.4272 2.76713 14.9283 2.05188 14.1367C1.33662 13.3451 0.939658 12.3168 0.93747 11.25ZM19.379 18.8925C19.4063 18.9155 19.4395 18.9303 19.4749 18.935C19.5103 18.9398 19.5462 18.9344 19.5786 18.9194C19.611 18.9045 19.6384 18.8806 19.6577 18.8506C19.677 18.8205 19.6873 18.7857 19.6875 18.75V3.74999C19.6885 3.7143 19.6787 3.67912 19.6595 3.64903C19.6403 3.61894 19.6125 3.59532 19.5797 3.58124C19.5547 3.56942 19.5276 3.56303 19.5 3.56249C19.4564 3.56263 19.4144 3.57863 19.3818 3.60749C15.2568 7.06874 11.0381 7.84405 9.56528 8.01374V14.4825C11.0353 14.6559 15.2531 15.4322 19.379 18.8925ZM7.03778 19.5487C7.04506 19.5779 7.05923 19.6049 7.07912 19.6274C7.09901 19.65 7.12402 19.6674 7.15205 19.6782C7.18008 19.6891 7.21031 19.693 7.24019 19.6897C7.27006 19.6865 7.29871 19.676 7.32372 19.6594L8.35497 18.9722C8.38072 18.955 8.40182 18.9317 8.41638 18.9044C8.43094 18.8771 8.4385 18.8466 8.43841 18.8156V15.5625H5.98216L7.03778 19.5487ZM5.24997 14.4375H8.43747V8.06249H5.24997C4.40459 8.06249 3.59384 8.39831 2.99607 8.99609C2.3983 9.59386 2.06247 10.4046 2.06247 11.25C2.06247 12.0954 2.3983 12.9061 2.99607 13.5039C3.59384 14.1017 4.40459 14.4375 5.24997 14.4375Z" fill="#0446F2"/>
</svg>
