<svg width="24" height="24" viewBox="0 0 24 24" fill="none" xmlns="http://www.w3.org/2000/svg">
<path d="M23.0629 8.68872C23.0632 8.51631 23.0294 8.34554 22.9634 8.18625C22.8975 8.02696 22.8006 7.8823 22.6785 7.7606L16.2388 1.32185C16.1169 1.19996 15.9722 1.10327 15.813 1.0373C15.6537 0.971331 15.4831 0.937378 15.3107 0.937378C15.1383 0.937378 14.9676 0.971331 14.8084 1.0373C14.6491 1.10327 14.5044 1.19996 14.3826 1.32185L11.6891 4.01529L6.20849 6.07122C5.99281 6.15196 5.80217 6.28801 5.65572 6.46574C5.50926 6.64346 5.41214 6.85659 5.37412 7.08372L3.19537 20.1562C3.18173 20.2369 3.18586 20.3196 3.20747 20.3985C3.22908 20.4775 3.26766 20.5507 3.3205 20.6132C3.37335 20.6757 3.43919 20.7259 3.51343 20.7603C3.58767 20.7947 3.66853 20.8125 3.75037 20.8125C3.78176 20.8124 3.8131 20.8098 3.84412 20.805L16.9166 18.6262C17.1439 18.5884 17.3572 18.4913 17.5351 18.3448C17.713 18.1984 17.8492 18.0076 17.9301 17.7918L19.9851 12.3112L22.6794 9.61685C22.8015 9.49513 22.8982 9.35045 22.964 9.19114C23.0298 9.03184 23.0634 8.86108 23.0629 8.68872ZM16.8754 17.3972C16.8638 17.4279 16.8444 17.4551 16.8191 17.476C16.7938 17.4969 16.7634 17.5108 16.731 17.5162L5.39006 19.4062L10.3466 14.4487C10.8551 14.7624 11.4611 14.8783 12.0495 14.7746C12.6379 14.6708 13.1677 14.3546 13.5382 13.8859C13.9088 13.4173 14.0943 12.8288 14.0596 12.2324C14.0249 11.6359 13.7723 11.073 13.3498 10.6505C12.9273 10.2281 12.3644 9.97548 11.768 9.94074C11.1715 9.906 10.5831 10.0915 10.1144 10.4621C9.64575 10.8327 9.32951 11.3624 9.22576 11.9508C9.12201 12.5392 9.23797 13.1452 9.55162 13.6537L4.59412 18.6122L6.48505 7.26841C6.49058 7.2363 6.50438 7.20618 6.5251 7.18103C6.54581 7.15588 6.57272 7.13656 6.60318 7.12497L11.8588 5.15622L18.8441 12.1415L16.8754 17.3972ZM10.3129 12.375C10.3129 12.1154 10.3898 11.8616 10.5341 11.6458C10.6783 11.4299 10.8833 11.2617 11.1231 11.1624C11.3629 11.063 11.6268 11.037 11.8814 11.0877C12.136 11.1383 12.3699 11.2633 12.5534 11.4469C12.737 11.6305 12.862 11.8643 12.9126 12.1189C12.9633 12.3735 12.9373 12.6374 12.838 12.8772C12.7386 13.1171 12.5704 13.3221 12.3546 13.4663C12.1387 13.6105 11.885 13.6875 11.6254 13.6875C11.2773 13.6875 10.9434 13.5492 10.6973 13.3031C10.4511 13.0569 10.3129 12.7231 10.3129 12.375ZM21.8826 8.82185L19.5004 11.204L12.7954 4.49997L15.1785 2.11685C15.1959 2.09941 15.2166 2.08558 15.2393 2.07615C15.2621 2.06671 15.2865 2.06186 15.3111 2.06186C15.3358 2.06186 15.3602 2.06671 15.383 2.07615C15.4057 2.08558 15.4264 2.09941 15.4438 2.11685L21.8826 8.55654C21.9 8.57395 21.9138 8.59463 21.9233 8.61739C21.9327 8.64015 21.9375 8.66455 21.9375 8.68919C21.9375 8.71383 21.9327 8.73823 21.9233 8.76099C21.9138 8.78376 21.9 8.80443 21.8826 8.82185Z" fill="#0446F2"/>
</svg>
