<svg width="24" height="24" viewBox="0 0 24 24" fill="none" xmlns="http://www.w3.org/2000/svg">
<path d="M22.8375 13.95C22.7784 13.9943 22.7112 14.0265 22.6396 14.0449C22.568 14.0632 22.4936 14.0673 22.4205 14.0568C22.3473 14.0464 22.277 14.0216 22.2134 13.984C22.1498 13.9464 22.0943 13.8966 22.05 13.8375C21.5806 13.2065 20.9696 12.6945 20.2661 12.3427C19.5627 11.991 18.7865 11.8094 18 11.8125C17.8508 11.8125 17.7077 11.7532 17.6023 11.6477C17.4968 11.5422 17.4375 11.3992 17.4375 11.25C17.4375 11.1008 17.4968 10.9577 17.6023 10.8522C17.7077 10.7467 17.8508 10.6875 18 10.6875C18.4559 10.6874 18.9026 10.5594 19.2894 10.3182C19.6762 10.0769 19.9876 9.73206 20.1882 9.32271C20.3889 8.91336 20.4707 8.45595 20.4244 8.00244C20.3781 7.54892 20.2055 7.11748 19.9263 6.75711C19.6471 6.39674 19.2725 6.12189 18.8449 5.96378C18.4173 5.80567 17.954 5.77063 17.5075 5.86265C17.061 5.95466 16.6492 6.17005 16.319 6.48433C15.9888 6.79861 15.7533 7.1992 15.6394 7.6406C15.6021 7.78506 15.5089 7.90879 15.3804 7.98457C15.2519 8.06034 15.0985 8.08196 14.9541 8.04466C14.8096 8.00737 14.6859 7.91421 14.6101 7.78569C14.5343 7.65717 14.5127 7.50381 14.55 7.35935C14.6914 6.80944 14.9622 6.3013 15.3398 5.87726C15.7174 5.45323 16.1909 5.1256 16.7208 4.92168C17.2507 4.71775 17.8217 4.64344 18.3861 4.70494C18.9506 4.76644 19.4922 4.96197 19.9657 5.27523C20.4393 5.58848 20.8311 6.0104 21.1086 6.5058C21.386 7.0012 21.541 7.55574 21.5606 8.12319C21.5803 8.69065 21.464 9.25458 21.2215 9.76799C20.979 10.2814 20.6173 10.7294 20.1666 11.0747C21.2758 11.4886 22.2422 12.2135 22.95 13.1625C22.9943 13.2216 23.0266 13.2888 23.0449 13.3604C23.0632 13.4319 23.0673 13.5064 23.0568 13.5795C23.0464 13.6527 23.0217 13.723 22.984 13.7866C22.9464 13.8501 22.8966 13.9057 22.8375 13.95ZM17.7366 19.9687C17.7736 20.0327 17.7976 20.1033 17.8073 20.1765C17.8171 20.2498 17.8122 20.3242 17.7932 20.3956C17.7741 20.467 17.7412 20.534 17.6962 20.5926C17.6513 20.6513 17.5952 20.7005 17.5312 20.7375C17.446 20.7875 17.3489 20.8137 17.25 20.8134C17.1512 20.8135 17.0541 20.7875 16.9685 20.7381C16.883 20.6888 16.8119 20.6177 16.7625 20.5322C16.2736 19.7038 15.577 19.0172 14.7417 18.5402C13.9063 18.0633 12.961 17.8124 11.9991 17.8124C11.0371 17.8124 10.0918 18.0633 9.25646 18.5402C8.4211 19.0172 7.72457 19.7038 7.23563 20.5322C7.20046 20.5994 7.15206 20.6588 7.09334 20.7068C7.03462 20.7549 6.96679 20.7905 6.89393 20.8117C6.82107 20.8328 6.74469 20.839 6.66937 20.8298C6.59406 20.8207 6.52138 20.7964 6.4557 20.7584C6.39002 20.7205 6.3327 20.6696 6.28719 20.6089C6.24167 20.5482 6.2089 20.4789 6.19085 20.4053C6.17281 20.3316 6.16985 20.255 6.18216 20.1801C6.19447 20.1053 6.2218 20.0337 6.2625 19.9697C7.02866 18.6533 8.22827 17.6439 9.65625 17.114C8.87621 16.6076 8.2808 15.8625 7.95884 14.99C7.63687 14.1174 7.60562 13.1642 7.86972 12.2724C8.13383 11.3807 8.67915 10.5982 9.42434 10.0417C10.1695 9.48523 11.0746 9.18457 12.0047 9.18457C12.9347 9.18457 13.8399 9.48523 14.585 10.0417C15.3302 10.5982 15.8755 11.3807 16.1397 12.2724C16.4038 13.1642 16.3725 14.1174 16.0505 14.99C15.7286 15.8625 15.1332 16.6076 14.3531 17.114C15.7771 17.6457 16.9728 18.6545 17.7366 19.9687ZM12 16.6875C12.6304 16.6875 13.2467 16.5005 13.7709 16.1503C14.2951 15.8 14.7036 15.3022 14.9449 14.7198C15.1861 14.1373 15.2492 13.4964 15.1263 12.8781C15.0033 12.2598 14.6997 11.6919 14.2539 11.2461C13.8081 10.8003 13.2402 10.4967 12.6219 10.3737C12.0035 10.2507 11.3626 10.3139 10.7802 10.5551C10.1978 10.7964 9.69994 11.2049 9.34969 11.7291C8.99944 12.2533 8.8125 12.8695 8.8125 13.5C8.8125 14.3454 9.14832 15.1561 9.7461 15.7539C10.3439 16.3517 11.1546 16.6875 12 16.6875ZM6.5625 11.25C6.5625 11.1008 6.50324 10.9577 6.39775 10.8522C6.29226 10.7467 6.14918 10.6875 6 10.6875C5.54418 10.6873 5.09753 10.5594 4.71078 10.3181C4.32402 10.0769 4.01266 9.73207 3.81204 9.32277C3.61143 8.91347 3.5296 8.45612 3.57585 8.00265C3.6221 7.54918 3.79458 7.11777 4.07369 6.7574C4.35281 6.39703 4.72738 6.12214 5.15488 5.96396C5.58237 5.80577 6.04565 5.77063 6.49212 5.86251C6.93858 5.9544 7.35033 6.16963 7.68062 6.48377C8.01091 6.79791 8.24649 7.19836 8.36063 7.63966C8.37909 7.71119 8.41147 7.77839 8.4559 7.8374C8.50034 7.89642 8.55596 7.94611 8.6196 7.98363C8.68323 8.02115 8.75364 8.04577 8.82679 8.05608C8.89994 8.06639 8.97441 8.06219 9.04594 8.04373C9.11747 8.02526 9.18466 7.99288 9.24368 7.94845C9.30269 7.90402 9.35238 7.84839 9.3899 7.78475C9.42742 7.72112 9.45204 7.65071 9.46235 7.57756C9.47266 7.50441 9.46847 7.42994 9.45 7.35841C9.30861 6.8085 9.03782 6.30036 8.66021 5.87633C8.28261 5.45229 7.80911 5.12466 7.2792 4.92074C6.74929 4.71681 6.17831 4.6425 5.61386 4.704C5.0494 4.7655 4.50782 4.96103 4.03426 5.27429C3.5607 5.58755 3.16887 6.00946 2.89144 6.50486C2.61401 7.00026 2.45901 7.5548 2.43936 8.12226C2.41971 8.68971 2.53598 9.25364 2.77848 9.76705C3.02098 10.2805 3.38268 10.7285 3.83344 11.0737C2.72411 11.4879 1.75771 12.2131 1.05 13.1625C1.00568 13.2216 0.973431 13.2888 0.955099 13.3604C0.936766 13.4319 0.932707 13.5064 0.943153 13.5795C0.9536 13.6527 0.978348 13.723 1.01598 13.7866C1.05362 13.8501 1.10341 13.9057 1.1625 13.95C1.22159 13.9943 1.28884 14.0265 1.3604 14.0449C1.43196 14.0632 1.50642 14.0673 1.57955 14.0568C1.65268 14.0464 1.72303 14.0216 1.78659 13.984C1.85015 13.9464 1.90568 13.8966 1.95 13.8375C2.41941 13.2065 3.03044 12.6945 3.73388 12.3427C4.43733 11.991 5.21353 11.8094 6 11.8125C6.14918 11.8125 6.29226 11.7532 6.39775 11.6477C6.50324 11.5422 6.5625 11.3992 6.5625 11.25Z" fill="#0446F2"/>
</svg>
