<svg width="24" height="24" viewBox="0 0 24 24" fill="none" xmlns="http://www.w3.org/2000/svg">
<path d="M20.25 5.4375H16.3125V4.5C16.3125 3.95299 16.0952 3.42839 15.7084 3.04159C15.3216 2.6548 14.797 2.4375 14.25 2.4375H9.75C9.20299 2.4375 8.67839 2.6548 8.29159 3.04159C7.9048 3.42839 7.6875 3.95299 7.6875 4.5V5.4375H3.75C3.4019 5.4375 3.06806 5.57578 2.82192 5.82192C2.57578 6.06806 2.4375 6.4019 2.4375 6.75V18.75C2.4375 19.0981 2.57578 19.4319 2.82192 19.6781C3.06806 19.9242 3.4019 20.0625 3.75 20.0625H20.25C20.5981 20.0625 20.9319 19.9242 21.1781 19.6781C21.4242 19.4319 21.5625 19.0981 21.5625 18.75V6.75C21.5625 6.4019 21.4242 6.06806 21.1781 5.82192C20.9319 5.57578 20.5981 5.4375 20.25 5.4375ZM3.5625 10.3125H20.4375V15.1875H3.5625V10.3125ZM8.8125 4.5C8.8125 4.25136 8.91127 4.0129 9.08709 3.83709C9.2629 3.66127 9.50136 3.5625 9.75 3.5625H14.25C14.4986 3.5625 14.7371 3.66127 14.9129 3.83709C15.0887 4.0129 15.1875 4.25136 15.1875 4.5V5.4375H8.8125V4.5ZM3.75 6.5625H20.25C20.2997 6.5625 20.3474 6.58225 20.3826 6.61742C20.4177 6.65258 20.4375 6.70027 20.4375 6.75V9.1875H3.5625V6.75C3.5625 6.70027 3.58225 6.65258 3.61742 6.61742C3.65258 6.58225 3.70027 6.5625 3.75 6.5625ZM20.25 18.9375H3.75C3.70027 18.9375 3.65258 18.9177 3.61742 18.8826C3.58225 18.8474 3.5625 18.7997 3.5625 18.75V16.3125H20.4375V18.75C20.4375 18.7997 20.4177 18.8474 20.3826 18.8826C20.3474 18.9177 20.2997 18.9375 20.25 18.9375Z" fill="#0446F2"/>
</svg>
