<svg width="37" height="37" viewBox="0 0 37 37" fill="none" xmlns="http://www.w3.org/2000/svg">
<path d="M18.4998 3.46861C15.5269 3.46861 12.6208 4.35018 10.1489 6.00183C7.67707 7.65348 5.75048 10.001 4.6128 12.7476C3.47512 15.4942 3.17746 18.5165 3.75744 21.4323C4.33742 24.348 5.76901 27.0263 7.87116 29.1285C9.97331 31.2307 12.6516 32.6622 15.5674 33.2422C18.4832 33.8222 21.5054 33.5245 24.252 32.3869C26.9986 31.2492 29.3462 29.3226 30.9978 26.8507C32.6495 24.3788 33.531 21.4727 33.531 18.4998C33.5268 14.5146 31.9418 10.6938 29.1239 7.8758C26.3059 5.05781 22.4851 3.47282 18.4998 3.46861ZM25.0991 15.8491L17.0054 23.9429C16.898 24.0504 16.7705 24.1356 16.6301 24.1938C16.4897 24.252 16.3393 24.282 16.1873 24.282C16.0354 24.282 15.8849 24.252 15.7446 24.1938C15.6042 24.1356 15.4767 24.0504 15.3693 23.9429L11.9006 20.4741C11.6836 20.2572 11.5617 19.9629 11.5617 19.6561C11.5617 19.3492 11.6836 19.055 11.9006 18.838C12.1175 18.6211 12.4118 18.4992 12.7186 18.4992C13.0254 18.4992 13.3197 18.6211 13.5366 18.838L16.1873 21.4902L23.463 14.213C23.5705 14.1056 23.698 14.0204 23.8383 13.9623C23.9787 13.9041 24.1291 13.8742 24.2811 13.8742C24.433 13.8742 24.5834 13.9041 24.7238 13.9623C24.8642 14.0204 24.9917 14.1056 25.0991 14.213C25.2065 14.3205 25.2918 14.448 25.3499 14.5884C25.408 14.7287 25.438 14.8792 25.438 15.0311C25.438 15.183 25.408 15.3334 25.3499 15.4738C25.2918 15.6142 25.2065 15.7417 25.0991 15.8491Z" fill="#0446F2"/>
</svg>
