<svg width="24" height="24" viewBox="0 0 24 24" fill="none" xmlns="http://www.w3.org/2000/svg">
<path d="M20.88 6.3656L12.63 1.84966C12.4371 1.74313 12.2204 1.68726 12 1.68726C11.7796 1.68726 11.5629 1.74313 11.37 1.84966L3.12 6.36654C2.91357 6.47949 2.7413 6.64586 2.62123 6.84823C2.50115 7.05061 2.4377 7.28154 2.4375 7.51685V16.4831C2.4377 16.7184 2.50115 16.9493 2.62123 17.1517C2.7413 17.3541 2.91357 17.5205 3.12 17.6334L11.37 22.1503C11.5629 22.2567 11.7797 22.3124 12 22.3124C12.2203 22.3124 12.4371 22.2567 12.63 22.1503L20.88 17.6334C21.0864 17.5205 21.2587 17.3541 21.3788 17.1517C21.4988 16.9493 21.5623 16.7184 21.5625 16.4831V7.51685C21.5625 7.28138 21.4991 7.05025 21.379 6.8477C21.2589 6.64515 21.0866 6.47863 20.88 6.3656ZM11.9062 2.83591C11.9338 2.82082 11.9648 2.8129 11.9963 2.8129C12.0277 2.8129 12.0587 2.82082 12.0863 2.83591L19.9228 7.12498L12 11.46L4.07719 7.12498L11.9062 2.83591ZM3.65625 16.6472C3.6275 16.6306 3.60367 16.6066 3.5872 16.5778C3.57073 16.549 3.5622 16.5163 3.5625 16.4831V8.12435L11.4375 12.4369V20.9062L3.65625 16.6472ZM20.3363 16.6472L12.5625 20.9062V12.435L20.4375 8.12248V16.4812C20.4381 16.5147 20.4298 16.5478 20.4133 16.577C20.3968 16.6062 20.3728 16.6304 20.3438 16.6472H20.3363Z" fill="white"/>
</svg>
