<svg width="37" height="37" viewBox="0 0 37 37" fill="none" xmlns="http://www.w3.org/2000/svg">
<path d="M32.19 9.81369L19.4712 2.8516C19.1738 2.68737 18.8396 2.60122 18.4999 2.60122C18.1602 2.60122 17.826 2.68737 17.5287 2.8516L4.80989 9.81514C4.49164 9.98927 4.22606 10.2458 4.04095 10.5577C3.85584 10.8697 3.75801 11.2258 3.7577 11.5885V25.4115C3.75801 25.7743 3.85584 26.1303 4.04095 26.4423C4.22606 26.7543 4.49164 27.0108 4.80989 27.1849L17.5287 34.1485C17.8261 34.3125 18.1603 34.3984 18.4999 34.3984C18.8396 34.3984 19.1737 34.3125 19.4712 34.1485L32.19 27.1849C32.5082 27.0108 32.7738 26.7543 32.9589 26.4423C33.144 26.1303 33.2418 25.7743 33.2421 25.4115V11.5885C33.2421 11.2255 33.1444 10.8692 32.9593 10.5569C32.7741 10.2447 32.5084 9.98794 32.19 9.81369ZM18.3554 4.37208C18.3979 4.3488 18.4457 4.3366 18.4941 4.3366C18.5426 4.3366 18.5904 4.3488 18.6329 4.37208L30.7143 10.9844L18.4999 17.6675L6.28556 10.9844L18.3554 4.37208ZM5.63661 25.6645C5.59229 25.6389 5.55555 25.602 5.53016 25.5575C5.50476 25.5131 5.49162 25.4627 5.49208 25.4115V12.5251L17.6327 19.1736V32.2305L5.63661 25.6645ZM31.3517 25.6645L19.3671 32.2305V19.1707L31.5078 12.5222V25.4087C31.5087 25.4603 31.4959 25.5113 31.4704 25.5563C31.445 25.6013 31.408 25.6386 31.3632 25.6645H31.3517Z" fill="white"/>
</svg>
