<svg width="32" height="32" viewBox="0 0 32 32" fill="none" xmlns="http://www.w3.org/2000/svg">
<path d="M25 5.25018C24.8011 5.25018 24.6103 5.3292 24.4697 5.46985C24.329 5.6105 24.25 5.80127 24.25 6.00018C24.25 6.19909 24.329 6.38986 24.4697 6.53051C24.6103 6.67117 24.8011 6.75018 25 6.75018C25.5967 6.75018 26.169 6.98724 26.591 7.40919C27.0129 7.83115 27.25 8.40345 27.25 9.00019V16.8314C26.5956 16.1632 25.7745 15.6819 24.8717 15.4374C23.9688 15.1929 23.0171 15.194 22.1149 15.4406C21.2126 15.6872 20.3926 16.1704 19.7398 16.8402C19.0869 17.5099 18.6248 18.342 18.4012 19.2502H13.5987C13.3752 18.342 12.9131 17.5099 12.2602 16.8402C11.6073 16.1704 10.7874 15.6872 9.88511 15.4406C8.98287 15.194 8.03112 15.1929 7.12831 15.4374C6.2255 15.6819 5.40441 16.1632 4.74997 16.8314V9.00019C4.74997 8.40345 4.98702 7.83115 5.40898 7.40919C5.83094 6.98724 6.40324 6.75018 6.99997 6.75018C7.19889 6.75018 7.38965 6.67117 7.5303 6.53051C7.67096 6.38986 7.74997 6.19909 7.74997 6.00018C7.74997 5.80127 7.67096 5.6105 7.5303 5.46985C7.38965 5.3292 7.19889 5.25018 6.99997 5.25018C6.00541 5.25018 5.05158 5.64527 4.34832 6.34853C3.64506 7.05179 3.24997 8.00562 3.24997 9.00019V20.5002C3.23355 21.1896 3.35309 21.8756 3.60177 22.5188C3.85044 23.162 4.22337 23.75 4.69927 24.2491C5.6604 25.2571 6.98259 25.8421 8.37497 25.8752C9.76736 25.9084 11.1159 25.387 12.1239 24.4259C13.1319 23.4648 13.7168 22.1426 13.75 20.7502H18.2625C18.3523 22.1009 18.9604 23.3647 19.9599 24.2778C20.9593 25.1908 22.2727 25.6825 23.626 25.6503C24.9793 25.618 26.2679 25.0643 27.2226 24.1046C28.1774 23.145 28.7246 21.8537 28.75 20.5002V9.00019C28.75 8.00562 28.3549 7.05179 27.6516 6.34853C26.9484 5.64527 25.9946 5.25018 25 5.25018ZM8.49997 24.2502C7.75829 24.2502 7.03327 24.0303 6.41658 23.6182C5.7999 23.2062 5.31925 22.6205 5.03542 21.9353C4.75159 21.25 4.67733 20.496 4.82203 19.7686C4.96672 19.0412 5.32387 18.373 5.84832 17.8485C6.37277 17.3241 7.04096 16.9669 7.76839 16.8223C8.49581 16.6776 9.24982 16.7518 9.93504 17.0356C10.6203 17.3195 11.2059 17.8001 11.618 18.4168C12.03 19.0335 12.25 19.7585 12.25 20.5002C12.25 21.4948 11.8549 22.4486 11.1516 23.1519C10.4484 23.8551 9.49454 24.2502 8.49997 24.2502ZM23.5 24.2502C22.7583 24.2502 22.0333 24.0303 21.4166 23.6182C20.7999 23.2062 20.3193 22.6205 20.0354 21.9353C19.7516 21.25 19.6773 20.496 19.822 19.7686C19.9667 19.0412 20.3239 18.373 20.8483 17.8485C21.3728 17.3241 22.041 16.9669 22.7684 16.8223C23.4958 16.6776 24.2498 16.7518 24.9351 17.0356C25.6203 17.3195 26.206 17.8001 26.618 18.4168C27.0301 19.0335 27.25 19.7585 27.25 20.5002C27.25 21.4948 26.8549 22.4486 26.1516 23.1519C25.4484 23.8551 24.4946 24.2502 23.5 24.2502Z" fill="white"/>
</svg>
