<svg width="238" height="238" viewBox="0 0 238 238" fill="none" xmlns="http://www.w3.org/2000/svg">
<g clip-path="url(#clip0_0_362)">
<rect width="238" height="238" rx="118.852" fill="#0446F2"/>
<path d="M162.607 186.999C166.181 186.999 169.71 185.883 172.652 183.767C176.55 180.963 179.117 176.617 179.693 171.845C180.482 165.316 181.158 159.235 181.701 154.349C182.319 148.782 182.782 144.627 183.065 142.902L188.467 142.794C191.007 142.743 193.266 141.389 194.511 139.17C195.755 136.952 195.735 134.315 194.458 132.115C191.219 126.536 186.603 118.524 183.01 112.039C182.019 110.252 182.137 108.028 183.31 106.374L183.533 106.06C184.483 104.735 185.465 103.365 185.465 100.9C185.465 86.6205 180.955 72.9542 172.423 61.3786C172.247 61.1395 171.91 61.0884 171.671 61.2653C171.433 61.442 171.382 61.779 171.558 62.0181C179.953 73.4072 184.39 86.8525 184.39 100.9C184.39 103.018 183.589 104.137 182.661 105.432L182.433 105.751C181.023 107.741 180.88 110.414 182.07 112.562C185.668 119.055 190.288 127.074 193.529 132.657C194.613 134.523 194.63 136.761 193.574 138.643C192.518 140.525 190.601 141.675 188.445 141.718L182.603 141.835C182.351 141.84 182.136 142.02 182.086 142.268C181.805 143.686 181.313 148.109 180.633 154.23C180.09 159.114 179.414 165.191 178.626 171.716C178.085 176.19 175.679 180.264 172.024 182.893C168.37 185.521 163.747 186.503 159.343 185.587L150.491 183.744C148.94 183.423 144.336 181.667 137.528 178.798C137.255 178.683 136.939 178.811 136.824 179.086C136.709 179.36 136.837 179.675 137.111 179.79C141.972 181.838 148.201 184.37 150.273 184.798L159.125 186.641C160.278 186.88 161.445 186.999 162.607 186.999Z" fill="white"/>
<path d="M92.1166 238.418C92.4135 238.418 92.6541 238.177 92.6541 237.88V183.63C92.6541 183.488 92.5974 183.351 92.4965 183.25L52.311 142.994C52.1011 142.784 51.761 142.784 51.5512 142.994C51.3413 143.204 51.3413 143.545 51.5512 143.755L91.5792 183.853V237.88C91.5795 238.178 91.8201 238.418 92.1166 238.418Z" fill="white"/>
<path d="M59.8033 238.418C59.9409 238.418 60.0781 238.365 60.1832 238.26L79.6527 218.757C79.7533 218.656 79.81 218.519 79.81 218.376V186.8C79.81 186.503 79.5694 186.261 79.2728 186.261C78.9762 186.261 78.7354 186.503 78.7354 186.8V218.153L59.4232 237.499C59.2134 237.709 59.2134 238.05 59.4232 238.26C59.5285 238.366 59.666 238.418 59.8033 238.418Z" fill="white"/>
<path d="M105.802 238.418C106.099 238.418 106.339 238.177 106.339 237.88V174.045C106.339 173.747 106.098 173.506 105.802 173.506C105.505 173.506 105.265 173.747 105.265 174.045V237.88C105.264 238.178 105.505 238.418 105.802 238.418Z" fill="white"/>
<path d="M130.158 238.418C130.454 238.418 130.695 238.177 130.695 237.88V210.264L150.455 190.468C150.665 190.258 150.665 189.917 150.455 189.707C150.245 189.497 149.905 189.497 149.696 189.707L129.778 209.66C129.677 209.761 129.62 209.898 129.62 210.041V237.88C129.62 238.177 129.861 238.418 130.158 238.418Z" fill="white"/>
<path d="M118.834 238.417C119.131 238.417 119.371 238.176 119.371 237.879V98.2068L155.063 62.4531C155.272 62.2429 155.272 61.902 155.063 61.692C154.853 61.4818 154.513 61.4818 154.303 61.692L118.454 97.6031C118.354 97.704 118.297 97.841 118.297 97.9837V237.879C118.297 238.176 118.537 238.417 118.834 238.417Z" fill="white"/>
<path d="M100.955 164.15C101.093 164.15 101.23 164.098 101.335 163.993C101.545 163.783 101.545 163.442 101.335 163.232L68.334 130.173V70.1272L87.6651 50.7622H135.315C135.612 50.7622 135.852 50.5212 135.852 50.2241C135.852 49.9267 135.612 49.6857 135.315 49.6857H87.4429C87.3004 49.6857 87.1637 49.7425 87.063 49.8433L67.4169 69.5235C67.3162 69.6243 67.2595 69.7613 67.2595 69.904V130.396C67.2595 130.538 67.3162 130.675 67.4169 130.776L100.576 163.992C100.68 164.098 100.818 164.15 100.955 164.15Z" fill="white"/>
<path d="M75.8192 152.175C75.9567 152.175 76.0941 152.122 76.1991 152.017C76.409 151.807 76.409 151.466 76.1991 151.256L46.6177 121.623V84.5254L57.0655 74.0593C57.2754 73.8491 57.2754 73.5082 57.0655 73.2982C56.8557 73.088 56.5156 73.088 56.3058 73.2982L45.7004 83.9219C45.5997 84.0228 45.5431 84.1598 45.5431 84.3025V121.846C45.5431 121.989 45.5997 122.126 45.7004 122.227L75.4391 152.018C75.5441 152.122 75.6817 152.175 75.8192 152.175Z" fill="white"/>
<path d="M79.2674 115.809C79.5642 115.809 79.8046 115.568 79.8046 115.271V79.933L94.7186 64.9929H136.759C136.901 64.9929 137.038 64.9362 137.139 64.8353L149.478 52.4749C149.687 52.2647 149.687 51.9238 149.478 51.7138C149.268 51.5036 148.928 51.5036 148.718 51.7138L136.536 63.9167H94.496C94.3536 63.9167 94.2168 63.9735 94.1161 64.0743L78.8875 79.3295C78.7869 79.4303 78.73 79.5673 78.73 79.71V115.271C78.7302 115.568 78.9708 115.809 79.2674 115.809Z" fill="white"/>
<path d="M96.045 183.83C96.045 185.771 94.4744 187.344 92.537 187.344C90.5995 187.344 89.029 185.771 89.029 183.83C89.029 181.889 90.5995 180.316 92.537 180.316C94.4742 180.316 96.045 181.889 96.045 183.83Z" fill="white"/>
<path d="M140.268 64.2135C140.268 66.1544 138.697 67.7277 136.76 67.7277C134.822 67.7277 133.252 66.1541 133.252 64.2135C133.252 62.2727 134.822 60.6994 136.76 60.6994C138.697 60.6994 140.268 62.2729 140.268 64.2135Z" fill="white"/>
<path d="M98.2743 64.2135C98.2743 66.1544 96.7038 67.7277 94.7663 67.7277C92.8289 67.7277 91.2583 66.1541 91.2583 64.2135C91.2583 62.2727 92.8289 60.6994 94.7663 60.6994C96.7038 60.6994 98.2743 62.2729 98.2743 64.2135Z" fill="white"/>
<path d="M67.5697 73.704C65.6359 73.5835 64.1659 71.9154 64.2862 69.9783C64.4065 68.0412 66.0716 66.5685 68.0053 66.689C69.9391 66.8096 71.4092 68.4776 71.2889 70.4147C71.1686 72.3519 69.5034 73.8245 67.5697 73.704Z" fill="white"/>
<path d="M46.0731 124.87C44.1357 124.87 42.565 123.297 42.565 121.356C42.565 119.415 44.1357 117.842 46.0731 117.842C48.0105 117.842 49.5811 119.415 49.5811 121.356C49.5811 123.297 48.0105 124.87 46.0731 124.87Z" fill="white"/>
<path d="M130.16 171.294C130.457 171.294 130.697 171.053 130.697 170.756V141.41C130.697 141.113 130.457 140.872 130.16 140.872C129.864 140.872 129.623 141.113 129.623 141.41V170.756C129.623 171.053 129.864 171.294 130.16 171.294Z" fill="white"/>
<path d="M133.666 170.755C133.666 172.696 132.095 174.269 130.158 174.269C128.22 174.269 126.65 172.696 126.65 170.755C126.65 168.814 128.22 167.241 130.158 167.241C132.095 167.241 133.666 168.814 133.666 170.755Z" fill="white"/>
<path d="M55.4438 143.373C55.4438 145.314 53.8732 146.887 51.9358 146.887C49.9983 146.887 48.4278 145.314 48.4278 143.373C48.4278 141.432 49.9986 139.859 51.9358 139.859C53.8732 139.859 55.4438 141.432 55.4438 143.373Z" fill="white"/>
<path d="M51.9319 64.7529C52.0694 64.7529 52.2067 64.7003 52.3118 64.5953L78.2574 38.6043H151.22L165.645 53.0544C165.855 53.2646 166.195 53.2646 166.405 53.0544C166.615 52.8442 166.615 52.5033 166.405 52.2933L151.823 37.6856C151.722 37.5848 151.585 37.528 151.443 37.528H78.0351C77.8926 37.528 77.7559 37.5848 77.6552 37.6856L51.5522 63.8342C51.3424 64.0444 51.3424 64.3853 51.5522 64.5953C51.657 64.7003 51.7946 64.7529 51.9319 64.7529Z" fill="white"/>
<path d="M138.829 50.2245C138.829 52.1653 137.258 53.7386 135.321 53.7386C133.383 53.7386 131.813 52.1651 131.813 50.2245C131.813 48.2836 133.383 46.7103 135.321 46.7103C137.258 46.7103 138.829 48.2836 138.829 50.2245Z" fill="white"/>
<path d="M76.0099 39.3998C75.2684 37.6067 76.1184 35.5509 77.9084 34.8082C79.6984 34.0655 81.7505 34.917 82.492 36.7101C83.2335 38.5032 82.3835 40.5589 80.5935 41.3017C78.8035 42.0444 76.7513 41.1929 76.0099 39.3998Z" fill="white"/>
<path d="M78.6885 221.589C76.7761 221.278 75.4773 219.473 75.7877 217.557C76.0981 215.641 77.9 214.341 79.8124 214.651C81.7249 214.962 83.0236 216.767 82.7133 218.683C82.4029 220.599 80.6009 221.9 78.6885 221.589Z" fill="white"/>
<path d="M49.4572 66.7013C48.0872 65.3289 48.0873 63.1039 49.4572 61.7316C50.8272 60.3592 53.0483 60.3592 54.4182 61.7316C55.7882 63.1039 55.7882 65.3289 54.4182 66.7013C53.0483 68.0736 50.8271 68.0736 49.4572 66.7013Z" fill="white"/>
<path d="M96.1676 75.103H146.121C151.146 75.103 155.22 79.1839 155.22 84.2177V134.259C155.22 139.293 151.146 143.373 146.121 143.373H96.1676C91.1425 143.373 87.0685 139.293 87.0685 134.259V84.2177C87.0685 79.1839 91.1425 75.103 96.1676 75.103Z" fill="#0446F2"/>
<path d="M122.416 116.456H107.489L104.101 125.708H101.188L113.631 92.7699H116.273L128.716 125.708H125.826L122.416 116.456ZM108.347 114.103H121.535L114.941 96.1632L108.347 114.103Z" fill="white"/>
<path d="M136.937 125.708H134.159V92.7699H136.937V125.708Z" fill="white"/>
</g>
<defs>
<clipPath id="clip0_0_362">
<rect width="238" height="238" rx="118.852" fill="white"/>
</clipPath>
</defs>
</svg>
