<svg width="32" height="32" viewBox="0 0 32 32" fill="none" xmlns="http://www.w3.org/2000/svg">
<path d="M16 10.2501C14.8627 10.2501 13.751 10.5873 12.8054 11.2192C11.8599 11.851 11.1229 12.749 10.6877 13.7997C10.2525 14.8504 10.1386 16.0065 10.3605 17.1219C10.5823 18.2373 11.13 19.2618 11.9341 20.066C12.7383 20.8701 13.7628 21.4178 14.8782 21.6396C15.9936 21.8615 17.1497 21.7476 18.2004 21.3124C19.2511 20.8772 20.1491 20.1402 20.7809 19.1946C21.4128 18.2491 21.75 17.1374 21.75 16.0001C21.748 14.4757 21.1416 13.0143 20.0637 11.9364C18.9857 10.8585 17.5244 10.2521 16 10.2501ZM16 20.2501C15.1594 20.2501 14.3377 20.0009 13.6388 19.5339C12.9399 19.0669 12.3952 18.4031 12.0735 17.6265C11.7518 16.8499 11.6676 15.9954 11.8316 15.171C11.9956 14.3466 12.4004 13.5893 12.9948 12.9949C13.5891 12.4005 14.3464 11.9958 15.1708 11.8318C15.9953 11.6678 16.8498 11.7519 17.6264 12.0736C18.403 12.3953 19.0667 12.94 19.5337 13.6389C20.0007 14.3378 20.25 15.1595 20.25 16.0001C20.25 17.1273 19.8022 18.2083 19.0052 19.0053C18.2082 19.8024 17.1271 20.2501 16 20.2501ZM29.5 13.4501C29.4782 13.3456 29.4344 13.2469 29.3715 13.1607C29.3085 13.0745 29.2279 13.0027 29.135 12.9501L25.33 10.7776L25.2775 10.6889L25.2625 6.4001C25.2625 6.29177 25.239 6.18472 25.1937 6.08633C25.1484 5.98793 25.0823 5.90052 25 5.8301C23.6711 4.70644 22.1411 3.84497 20.4912 3.29135C20.392 3.258 20.287 3.24577 20.1828 3.25546C20.0786 3.26515 19.9776 3.29653 19.8862 3.3476L16.0575 5.4826H15.9325L12.1137 3.3451C12.022 3.29388 11.9205 3.26252 11.8158 3.25305C11.7112 3.24357 11.6057 3.25619 11.5062 3.2901C9.85649 3.84533 8.32728 4.70899 6.99996 5.8351C6.91734 5.90514 6.85087 5.99225 6.80513 6.09043C6.75938 6.18861 6.73544 6.29554 6.73496 6.40385L6.71496 10.6964C6.69746 10.7251 6.67996 10.7551 6.66371 10.7851L2.86371 12.9464C2.77032 12.9997 2.68951 13.0726 2.62674 13.1599C2.56398 13.2473 2.52074 13.3471 2.49996 13.4526C2.16621 15.1354 2.16621 16.8673 2.49996 18.5501C2.52171 18.6546 2.56552 18.7533 2.62846 18.8395C2.69141 18.9258 2.77204 18.9976 2.86496 19.0501L6.66746 21.2164L6.71996 21.3051L6.73496 25.5939C6.73436 25.7035 6.75777 25.8118 6.80355 25.9114C6.84933 26.011 6.91638 26.0993 6.99996 26.1701C8.32888 27.2938 9.85883 28.1553 11.5087 28.7089C11.6079 28.7422 11.713 28.7545 11.8172 28.7448C11.9214 28.7351 12.0224 28.7037 12.1137 28.6526L15.94 26.5176H16.065L19.885 28.6551C19.9968 28.7169 20.1223 28.7496 20.25 28.7501C20.3321 28.7505 20.4136 28.737 20.4912 28.7101C22.1388 28.1542 23.6658 27.2906 24.9912 26.1651C25.0739 26.0951 25.1403 26.008 25.1861 25.9098C25.2318 25.8116 25.2558 25.7047 25.2562 25.5964L25.2762 21.3039C25.2937 21.2751 25.3112 21.2451 25.3275 21.2151L29.13 19.0539C29.2236 19.0006 29.3047 18.9279 29.3677 18.8405C29.4306 18.7532 29.4741 18.6533 29.495 18.5476C29.8304 16.8652 29.8321 15.1332 29.5 13.4501ZM28.0937 17.9239L24.415 20.0126C24.2957 20.0809 24.1972 20.1802 24.13 20.3001C24.0562 20.4251 23.9787 20.5639 23.8975 20.6926C23.8235 20.8111 23.7841 20.9479 23.7837 21.0876L23.7637 25.2389C22.7294 26.0675 21.5677 26.7231 20.3237 27.1801L16.625 25.1101C16.5131 25.0472 16.387 25.0141 16.2587 25.0139H16.2412C16.0862 25.0139 15.9287 25.0139 15.7737 25.0139C15.6396 25.0107 15.5071 25.0435 15.39 25.1089L11.6812 27.1789C10.4357 26.7242 9.27219 26.0702 8.23622 25.2426L8.22121 21.0964C8.22082 20.9567 8.18143 20.8199 8.10746 20.7014C8.02746 20.5764 7.94871 20.4414 7.87496 20.3089C7.80845 20.1889 7.71031 20.0894 7.59121 20.0214L3.91246 17.9251C3.69861 16.6511 3.69861 15.3504 3.91246 14.0764L7.58496 11.9876C7.70609 11.9201 7.80639 11.8206 7.87496 11.7001C7.94871 11.5751 8.02621 11.4364 8.10746 11.3076C8.18143 11.1891 8.22082 11.0523 8.22121 10.9126L8.24122 6.76135C9.27399 5.93319 10.434 5.27763 11.6762 4.8201L15.375 6.8901C15.4916 6.95664 15.6245 6.98953 15.7587 6.9851C15.9137 6.9851 16.0712 6.9851 16.2262 6.9851C16.3603 6.98833 16.4929 6.95552 16.61 6.8901L20.3162 4.8201C21.5618 5.27482 22.7253 5.92874 23.7612 6.75635L23.7762 10.9026C23.7766 11.0423 23.816 11.1791 23.89 11.2976C23.97 11.4226 24.0487 11.5576 24.1225 11.6901C24.189 11.8101 24.2871 11.9095 24.4062 11.9776L28.0875 14.0751C28.3026 15.3489 28.3038 16.6497 28.0912 17.9239H28.0937Z" fill="white"/>
</svg>
