<svg width="24" height="24" viewBox="0 0 24 24" fill="none" xmlns="http://www.w3.org/2000/svg">
<path d="M12.0002 7.68758C11.1473 7.68758 10.3135 7.9405 9.60434 8.41437C8.89515 8.88823 8.34241 9.56175 8.016 10.3498C7.6896 11.1378 7.6042 12.0049 7.7706 12.8414C7.937 13.6779 8.34772 14.4464 8.95084 15.0495C9.55395 15.6526 10.3224 16.0633 11.1589 16.2297C11.9954 16.3961 12.8625 16.3107 13.6506 15.9843C14.4386 15.6579 15.1121 15.1052 15.5859 14.396C16.0598 13.6868 16.3127 12.853 16.3127 12.0001C16.3112 10.8568 15.8564 9.76075 15.048 8.95232C14.2396 8.1439 13.1435 7.68907 12.0002 7.68758ZM12.0002 15.1876C11.3698 15.1876 10.7535 15.0006 10.2294 14.6504C9.70517 14.3001 9.29662 13.8023 9.05537 13.2199C8.81411 12.6374 8.75099 11.9965 8.87398 11.3782C8.99697 10.7599 9.30055 10.192 9.74633 9.74618C10.1921 9.3004 10.7601 8.99682 11.3784 8.87383C11.9967 8.75083 12.6376 8.81396 13.22 9.05521C13.8025 9.29647 14.3003 9.70502 14.6505 10.2292C15.0008 10.7534 15.1877 11.3697 15.1877 12.0001C15.1877 12.8455 14.8519 13.6562 14.2541 14.254C13.6564 14.8518 12.8456 15.1876 12.0002 15.1876ZM22.1252 10.0876C22.1089 10.0092 22.0761 9.93519 22.0289 9.87052C21.9816 9.80585 21.9212 9.752 21.8515 9.71258L18.9977 8.0832L18.9584 8.01664L18.9471 4.80008C18.9471 4.71883 18.9295 4.63855 18.8955 4.56475C18.8615 4.49095 18.812 4.42539 18.7502 4.37258C17.7535 3.52983 16.6061 2.88373 15.3687 2.46852C15.2943 2.4435 15.2155 2.43434 15.1373 2.4416C15.0592 2.44887 14.9834 2.47241 14.9149 2.5107L12.0434 4.11195H11.9496L9.08555 2.50883C9.01673 2.47042 8.94061 2.4469 8.86212 2.43979C8.78363 2.43269 8.70452 2.44215 8.62992 2.46758C7.39262 2.88401 6.24572 3.53174 5.25023 4.37633C5.18827 4.42886 5.13842 4.49419 5.10411 4.56783C5.0698 4.64146 5.05184 4.72166 5.05148 4.80289L5.03648 8.02227C5.02336 8.04383 5.01023 8.06633 4.99805 8.08883L2.14805 9.70977C2.07801 9.74979 2.01739 9.80441 1.97032 9.86992C1.92325 9.93544 1.89082 10.0103 1.87523 10.0895C1.62492 11.3515 1.62492 12.6505 1.87523 13.9126C1.89155 13.991 1.9244 14.065 1.97161 14.1296C2.01882 14.1943 2.07929 14.2482 2.14898 14.2876L5.00086 15.9123L5.04023 15.9788L5.05148 19.1954C5.05103 19.2776 5.06859 19.3589 5.10292 19.4335C5.13726 19.5082 5.18754 19.5744 5.25023 19.6276C6.24692 20.4703 7.39438 21.1164 8.6318 21.5316C8.70619 21.5567 8.78499 21.5658 8.86313 21.5586C8.94128 21.5513 9.01704 21.5278 9.08555 21.4895L11.9552 19.8882H12.049L14.914 21.4913C14.9978 21.5377 15.092 21.5622 15.1877 21.5626C15.2493 21.5628 15.3105 21.5527 15.3687 21.5326C16.6043 21.1156 17.7496 20.4679 18.7437 19.6238C18.8056 19.5713 18.8555 19.506 18.8898 19.4323C18.9241 19.3587 18.9421 19.2785 18.9424 19.1973L18.9574 15.9779C18.9705 15.9563 18.9837 15.9338 18.9959 15.9113L21.8477 14.2904C21.9179 14.2505 21.9787 14.1959 22.026 14.1304C22.0732 14.0649 22.1058 13.9899 22.1215 13.9107C22.373 12.6489 22.3743 11.3499 22.1252 10.0876ZM21.0705 13.4429L18.3115 15.0095C18.222 15.0606 18.1481 15.1352 18.0977 15.2251C18.0424 15.3188 17.9843 15.4229 17.9234 15.5195C17.8679 15.6083 17.8383 15.7109 17.838 15.8157L17.823 18.9291C17.0473 19.5506 16.176 20.0423 15.243 20.3851L12.469 18.8326C12.3851 18.7854 12.2905 18.7606 12.1943 18.7604H12.1812C12.0649 18.7604 11.9468 18.7604 11.8305 18.7604C11.73 18.758 11.6306 18.7826 11.5427 18.8316L8.76117 20.3841C7.827 20.0431 6.9544 19.5527 6.17742 18.932L6.16617 15.8223C6.16588 15.7175 6.13633 15.6149 6.08086 15.526C6.02086 15.4323 5.9618 15.331 5.90648 15.2316C5.8566 15.1417 5.78299 15.0671 5.69367 15.016L2.93461 13.4438C2.77422 12.4883 2.77422 11.5128 2.93461 10.5573L5.68898 8.9907C5.77983 8.94006 5.85505 8.86548 5.90648 8.77508C5.9618 8.68133 6.01992 8.57727 6.08086 8.4807C6.13633 8.39183 6.16588 8.28922 6.16617 8.18445L6.18117 5.07102C6.95575 4.44989 7.82575 3.95822 8.75742 3.61508L11.5315 5.16758C11.619 5.21749 11.7186 5.24215 11.8193 5.23883C11.9355 5.23883 12.0537 5.23883 12.1699 5.23883C12.2705 5.24125 12.3699 5.21664 12.4577 5.16758L15.2374 3.61508C16.1716 3.95612 17.0442 4.44656 17.8212 5.06727L17.8324 8.17695C17.8327 8.28172 17.8623 8.38433 17.9177 8.4732C17.9777 8.56695 18.0368 8.6682 18.0921 8.76758C18.142 8.85756 18.2156 8.93214 18.3049 8.9832L21.0659 10.5563C21.2272 11.5117 21.2281 12.4872 21.0687 13.4429H21.0705Z" fill="white"/>
</svg>
