<svg width="24" height="24" viewBox="0 0 24 24" fill="none" xmlns="http://www.w3.org/2000/svg">
<path d="M17.847 15.9956C18.797 15.2186 19.5577 14.2356 20.0715 13.121C20.5852 12.0064 20.8386 10.7895 20.8124 9.56251C20.7186 5.37376 17.3661 1.92095 13.1867 1.70063C12.1045 1.64174 11.0215 1.80165 10.0025 2.17079C8.98352 2.53994 8.0494 3.11075 7.256 3.84911C6.4626 4.58746 5.82621 5.4782 5.38487 6.46808C4.94353 7.45797 4.7063 8.52667 4.68736 9.61032L2.56017 13.6978C2.55361 13.71 2.54798 13.7222 2.54236 13.7353C2.41154 14.0426 2.40281 14.3883 2.51795 14.7018C2.63308 15.0154 2.86343 15.2732 3.16205 15.4228L3.17892 15.4313L5.43642 16.4625V19.5C5.43642 19.8481 5.5747 20.1819 5.82084 20.4281C6.06698 20.6742 6.40082 20.8125 6.74892 20.8125H11.2489C11.3981 20.8125 11.5412 20.7532 11.6467 20.6478C11.7522 20.5423 11.8114 20.3992 11.8114 20.25C11.8114 20.1008 11.7522 19.9577 11.6467 19.8523C11.5412 19.7468 11.3981 19.6875 11.2489 19.6875H6.74986C6.70013 19.6875 6.65244 19.6678 6.61728 19.6326C6.58211 19.5974 6.56236 19.5497 6.56236 19.5V16.1072C6.56246 15.9994 6.53159 15.8939 6.47341 15.8031C6.41524 15.7124 6.33222 15.6402 6.23423 15.5953L3.65611 14.4169C3.61742 14.3956 3.58746 14.3614 3.57151 14.3203C3.55556 14.2791 3.55464 14.2337 3.56892 14.1919L5.74486 10.0097C5.78798 9.92984 5.81113 9.84075 5.81236 9.75001C5.8129 8.13779 6.37455 6.57603 7.40094 5.33274C8.42732 4.08945 9.85443 3.24215 11.4374 2.93626V4.76626C10.9584 4.90203 10.5447 5.20644 10.2727 5.62333C10.0006 6.04022 9.88846 6.54145 9.957 7.03453C10.0255 7.5276 10.2701 7.97925 10.6456 8.30614C11.021 8.63302 11.502 8.81307 11.9999 8.81307C12.4977 8.81307 12.9787 8.63302 13.3542 8.30614C13.7296 7.97925 13.9742 7.5276 14.0427 7.03453C14.1113 6.54145 13.9991 6.04022 13.7271 5.62333C13.455 5.20644 13.0413 4.90203 12.5624 4.76626V2.8172C12.7499 2.81251 12.9374 2.81251 13.1249 2.82282C14.5368 2.90355 15.8908 3.41224 17.0066 4.28123C18.1225 5.15021 18.9473 6.33831 19.3714 7.68751H17.2499C17.1674 7.68751 17.0859 7.70565 17.0112 7.74065C16.9365 7.77564 16.8705 7.82663 16.8177 7.89001L14.338 10.8656C13.8821 10.6619 13.3679 10.63 12.8904 10.7758C12.4128 10.9215 12.0041 11.2352 11.7397 11.6587C11.4753 12.0823 11.3731 12.5873 11.452 13.0803C11.5308 13.5734 11.7854 14.0213 12.1686 14.3413C12.5519 14.6613 13.038 14.8319 13.5373 14.8215C14.0365 14.811 14.5151 14.6204 14.8847 14.2847C15.2543 13.9489 15.49 13.4908 15.5482 12.9949C15.6064 12.499 15.4832 11.9988 15.2014 11.5866L17.5133 8.81251H19.6227C19.6584 9.06922 19.6793 9.32777 19.6855 9.58688C19.7096 10.6909 19.4707 11.7848 18.9885 12.7782C18.5063 13.7716 17.7947 14.636 16.9124 15.3C16.8332 15.3595 16.7711 15.4389 16.7324 15.5301C16.6937 15.6213 16.6798 15.7211 16.692 15.8194L17.442 21.8194C17.459 21.9554 17.525 22.0806 17.6277 22.1714C17.7304 22.2622 17.8628 22.3124 17.9999 22.3125C18.0234 22.3123 18.0468 22.3108 18.0702 22.3078C18.1435 22.2987 18.2143 22.2752 18.2785 22.2386C18.3428 22.2021 18.3992 22.1533 18.4445 22.0949C18.4899 22.0366 18.5233 21.9699 18.5429 21.8987C18.5625 21.8274 18.5678 21.753 18.5586 21.6797L17.847 15.9956ZM12.9374 6.75001C12.9374 6.93543 12.8824 7.11668 12.7794 7.27085C12.6763 7.42503 12.5299 7.54519 12.3586 7.61614C12.1873 7.6871 11.9988 7.70567 11.817 7.66949C11.6351 7.63332 11.4681 7.54403 11.3369 7.41292C11.2058 7.28181 11.1165 7.11476 11.0804 6.93291C11.0442 6.75105 11.0628 6.56255 11.1337 6.39124C11.2047 6.21994 11.3248 6.07352 11.479 5.97051C11.6332 5.86749 11.8144 5.81251 11.9999 5.81251C12.2485 5.81251 12.487 5.91128 12.6628 6.0871C12.8386 6.26291 12.9374 6.50137 12.9374 6.75001ZM13.4999 13.6875C13.3144 13.6875 13.1332 13.6325 12.979 13.5295C12.8248 13.4265 12.7047 13.2801 12.6337 13.1088C12.5628 12.9375 12.5442 12.749 12.5804 12.5671C12.6165 12.3853 12.7058 12.2182 12.8369 12.0871C12.9681 11.956 13.1351 11.8667 13.317 11.8305C13.4988 11.7943 13.6873 11.8129 13.8586 11.8839C14.0299 11.9548 14.1763 12.075 14.2794 12.2292C14.3824 12.3833 14.4374 12.5646 14.4374 12.75C14.4374 12.9986 14.3386 13.2371 14.1628 13.4129C13.987 13.5887 13.7485 13.6875 13.4999 13.6875Z" fill="#0446F2"/>
</svg>
