<svg width="342" height="242" viewBox="0 0 342 242" fill="none" xmlns="http://www.w3.org/2000/svg">
<g clip-path="url(#clip0_0_407)">
<path d="M316.47 25.98H10.0445C5.01986 25.98 0.946575 30.0533 0.946575 35.0779V209.307C0.946575 214.331 5.01988 218.405 10.0445 218.405H316.47C321.495 218.405 325.568 214.331 325.568 209.307V35.0779C325.568 30.0532 321.495 25.98 316.47 25.98Z" fill="white"/>
<path d="M77.3062 48.6995C76.7817 48.6995 76.3604 48.2767 76.3604 47.7599C76.3604 47.2431 76.786 46.8203 77.3062 46.8203C89.778 46.8203 99.9239 36.7413 99.9239 24.3517C99.9239 11.9621 89.778 1.88306 77.3062 1.88306C64.8345 1.88306 54.6886 11.9621 54.6886 24.3517C54.6886 24.8727 54.263 25.2913 53.7428 25.2913C53.2226 25.2913 52.797 24.8685 52.797 24.3517C52.797 10.9243 63.7941 0.00391147 77.3062 0.00391147C90.8183 0.00391147 101.815 10.9286 101.815 24.3517C101.815 37.7748 90.8183 48.6995 77.3062 48.6995Z" fill="#B4D3FC"/>
<path d="M163.261 48.6995C162.736 48.6995 162.315 48.2767 162.315 47.7599C162.315 47.2431 162.741 46.8203 163.261 46.8203C175.732 46.8203 185.878 36.7413 185.878 24.3517C185.878 11.9621 175.732 1.88306 163.261 1.88306C150.789 1.88306 140.643 11.9621 140.643 24.3517C140.643 24.8727 140.217 25.2913 139.697 25.2913C139.177 25.2913 138.751 24.8685 138.751 24.3517C138.751 10.9243 149.749 0.00391147 163.261 0.00391147C176.773 0.00391147 187.77 10.9286 187.77 24.3517C187.77 37.7748 176.773 48.6995 163.261 48.6995Z" fill="#B4D3FC"/>
<path d="M249.211 48.6995C248.687 48.6995 248.265 48.2767 248.265 47.7599C248.265 47.2431 248.691 46.8203 249.211 46.8203C261.683 46.8203 271.829 36.7413 271.829 24.3517C271.829 11.9621 261.683 1.88306 249.211 1.88306C236.74 1.88306 226.594 11.9621 226.594 24.3517C226.594 24.8727 226.168 25.2913 225.648 25.2913C225.128 25.2913 224.702 24.8685 224.702 24.3517C224.702 10.9243 235.699 0.00391147 249.211 0.00391147C262.723 0.00391147 273.721 10.9286 273.721 24.3517C273.721 37.7748 262.723 48.6995 249.211 48.6995Z" fill="#B4D3FC"/>
<path d="M76.2202 65.9747H37.5598C33.7913 65.9747 30.7363 69.0297 30.7363 72.7982V111.114C30.7363 114.882 33.7913 117.937 37.5598 117.937H76.2202C79.9887 117.937 83.0436 114.882 83.0436 111.114V72.7982C83.0436 69.0297 79.9887 65.9747 76.2202 65.9747Z" fill="#A6C8FF"/>
<path d="M102.036 66.5428H140.696C144.151 66.5428 146.952 69.3438 146.952 72.7983V111.114C146.952 114.568 144.151 117.368 140.696 117.368H102.036C98.582 117.368 95.7811 114.568 95.7811 111.114V72.7983C95.7811 69.3438 98.582 66.5428 102.036 66.5428Z" fill="white" stroke="#0446F2" stroke-width="1.13573"/>
<path d="M205.169 65.9747H166.509C162.741 65.9747 159.686 69.0297 159.686 72.7982V111.114C159.686 114.882 162.741 117.937 166.509 117.937H205.169C208.938 117.937 211.993 114.882 211.993 111.114V72.7982C211.993 69.0297 208.938 65.9747 205.169 65.9747Z" fill="#0446F2"/>
<path d="M230.99 66.5428H269.65C273.104 66.5428 275.905 69.3438 275.905 72.7983V111.114C275.905 114.568 273.104 117.368 269.65 117.368H230.99C227.535 117.368 224.734 114.568 224.734 111.114V72.7983C224.734 69.3438 227.535 66.5428 230.99 66.5428Z" fill="white" stroke="#0446F2" stroke-width="1.13573"/>
<path d="M295.459 66.5428H334.118C337.573 66.5428 340.374 69.3438 340.374 72.7983V111.114C340.374 114.568 337.573 117.368 334.118 117.368H295.459C292.004 117.368 289.203 114.568 289.203 111.114V72.7983C289.203 69.3438 292.004 66.5428 295.459 66.5428Z" fill="white" stroke="#0446F2" stroke-width="1.13573"/>
<path d="M37.5599 128.102H76.2198C79.6743 128.102 82.4752 130.903 82.4752 134.358V172.674C82.4752 176.128 79.6743 178.928 76.2198 178.928H37.5599C34.1054 178.928 31.3045 176.128 31.3044 172.674V134.358C31.3044 130.903 34.1054 128.102 37.5599 128.102Z" fill="white" stroke="#0446F2" stroke-width="1.13573"/>
<path d="M102.036 128.102H140.696C144.151 128.102 146.952 130.903 146.952 134.358V172.674C146.952 176.128 144.151 178.928 140.696 178.928H102.036C98.582 178.928 95.7811 176.128 95.7811 172.674V134.358C95.7811 130.903 98.582 128.102 102.036 128.102Z" fill="white" stroke="#0446F2" stroke-width="1.13573"/>
<path d="M166.509 128.102H205.169C208.624 128.102 211.425 130.903 211.425 134.358V172.674C211.425 176.128 208.624 178.928 205.169 178.928H166.509C163.055 178.928 160.254 176.128 160.254 172.674V134.358C160.254 130.903 163.055 128.102 166.509 128.102Z" fill="white" stroke="#0446F2" stroke-width="1.13573"/>
<path d="M230.99 128.102H269.65C273.104 128.102 275.905 130.903 275.905 134.358V172.674C275.905 176.128 273.104 178.928 269.65 178.928H230.99C227.535 178.928 224.734 176.128 224.734 172.674V134.358C224.734 130.903 227.535 128.102 230.99 128.102Z" fill="white" stroke="#0446F2" stroke-width="1.13573"/>
<path d="M295.459 128.102H334.118C337.573 128.102 340.374 130.903 340.374 134.358V172.674C340.374 176.128 337.573 178.928 334.118 178.928H295.459C292.004 178.928 289.203 176.128 289.203 172.674V134.358C289.203 130.903 292.004 128.102 295.459 128.102Z" fill="white" stroke="#0446F2" stroke-width="1.13573"/>
<path d="M37.5599 189.666H76.2198C79.6743 189.666 82.4752 192.467 82.4752 195.921V234.237C82.4752 237.692 79.6743 240.492 76.2198 240.492H37.5599C34.1054 240.492 31.3045 237.692 31.3044 234.237V195.921C31.3044 192.467 34.1054 189.666 37.5599 189.666Z" fill="white" stroke="#0446F2" stroke-width="1.13573"/>
<path d="M37.5599 189.666H76.2198C79.6743 189.666 82.4752 192.467 82.4752 195.921V234.237C82.4752 237.692 79.6743 240.492 76.2198 240.492H37.5599C34.1054 240.492 31.3045 237.692 31.3044 234.237V195.921C31.3044 192.467 34.1054 189.666 37.5599 189.666Z" stroke="#0446F2" stroke-width="1.13573"/>
<path d="M102.036 189.666H140.696C144.151 189.666 146.952 192.467 146.952 195.921V234.237C146.952 237.692 144.151 240.492 140.696 240.492H102.036C98.582 240.492 95.7811 237.692 95.7811 234.237V195.921C95.7811 192.467 98.582 189.666 102.036 189.666Z" fill="white" stroke="#0446F2" stroke-width="1.13573"/>
<path d="M205.169 189.098H166.509C162.741 189.098 159.686 192.153 159.686 195.921V234.237C159.686 238.006 162.741 241.061 166.509 241.061H205.169C208.938 241.061 211.993 238.006 211.993 234.237V195.921C211.993 192.153 208.938 189.098 205.169 189.098Z" fill="#A6C8FF"/>
</g>
<defs>
<clipPath id="clip0_0_407">
<rect width="341.44" height="241.677" fill="white" transform="scale(1.00134)"/>
</clipPath>
</defs>
</svg>
