<svg width="24" height="24" viewBox="0 0 24 24" fill="none" xmlns="http://www.w3.org/2000/svg">
<path d="M21.75 15.9375H20.8125V6.75C20.8125 6.20299 20.5952 5.67839 20.2084 5.29159C19.8216 4.9048 19.297 4.6875 18.75 4.6875H5.25C4.70299 4.6875 4.17839 4.9048 3.79159 5.29159C3.4048 5.67839 3.1875 6.20299 3.1875 6.75V15.9375H2.25C2.10082 15.9375 1.95774 15.9968 1.85225 16.1023C1.74676 16.2077 1.6875 16.3508 1.6875 16.5V18C1.6875 18.547 1.9048 19.0716 2.29159 19.4584C2.67839 19.8452 3.20299 20.0625 3.75 20.0625H20.25C20.797 20.0625 21.3216 19.8452 21.7084 19.4584C22.0952 19.0716 22.3125 18.547 22.3125 18V16.5C22.3125 16.3508 22.2532 16.2077 22.1477 16.1023C22.0423 15.9968 21.8992 15.9375 21.75 15.9375ZM4.3125 6.75C4.3125 6.50136 4.41127 6.2629 4.58709 6.08709C4.7629 5.91127 5.00136 5.8125 5.25 5.8125H18.75C18.9986 5.8125 19.2371 5.91127 19.4129 6.08709C19.5887 6.2629 19.6875 6.50136 19.6875 6.75V15.9375H4.3125V6.75ZM21.1875 18C21.1875 18.2486 21.0887 18.4871 20.9129 18.6629C20.7371 18.8387 20.4986 18.9375 20.25 18.9375H3.75C3.50136 18.9375 3.2629 18.8387 3.08709 18.6629C2.91127 18.4871 2.8125 18.2486 2.8125 18V17.0625H21.1875V18ZM14.0625 8.25C14.0625 8.39918 14.0032 8.54226 13.8977 8.64775C13.7923 8.75324 13.6492 8.8125 13.5 8.8125H10.5C10.3508 8.8125 10.2077 8.75324 10.1023 8.64775C9.99676 8.54226 9.9375 8.39918 9.9375 8.25C9.9375 8.10082 9.99676 7.95774 10.1023 7.85225C10.2077 7.74676 10.3508 7.6875 10.5 7.6875H13.5C13.6492 7.6875 13.7923 7.74676 13.8977 7.85225C14.0032 7.95774 14.0625 8.10082 14.0625 8.25Z" fill="white"/>
</svg>
