<svg width="24" height="24" viewBox="0 0 24 24" fill="none" xmlns="http://www.w3.org/2000/svg">
<path d="M0.937469 11.2499C0.938711 10.1066 1.39346 9.01038 2.20194 8.2019C3.01042 7.39342 4.10661 6.93867 5.24997 6.93743H8.98591C9.22778 6.92337 14.0578 6.60274 18.6562 2.74587C18.8475 2.58532 19.0807 2.48268 19.3282 2.45C19.5758 2.41733 19.8276 2.45597 20.054 2.56139C20.2804 2.66682 20.472 2.83465 20.6064 3.04517C20.7407 3.2557 20.8122 3.50019 20.8125 3.74993V18.7499C20.8142 18.9999 20.7437 19.245 20.6095 19.4559C20.4753 19.6667 20.2831 19.8344 20.0559 19.9387C19.8817 20.0197 19.6921 20.0619 19.5 20.0624C19.1909 20.0626 18.8919 19.953 18.6562 19.7531C14.9062 16.6106 11.009 15.8156 9.56247 15.6215V18.809C9.56253 19.025 9.50926 19.2378 9.40737 19.4283C9.30548 19.6188 9.15814 19.7813 8.97841 19.9012L7.94716 20.5884C7.77273 20.7045 7.57303 20.7772 7.36476 20.8004C7.15648 20.8236 6.94568 20.7965 6.74999 20.7215C6.55431 20.6465 6.37942 20.5258 6.23997 20.3694C6.10051 20.2129 6.00054 20.0254 5.94841 19.8224L4.81122 15.5371C3.75004 15.4271 2.76713 14.9283 2.05188 14.1367C1.33662 13.3451 0.939657 12.3168 0.937469 11.2499ZM19.379 18.8924C19.4063 18.9154 19.4395 18.9302 19.4749 18.935C19.5103 18.9397 19.5462 18.9343 19.5786 18.9194C19.611 18.9044 19.6384 18.8805 19.6577 18.8505C19.677 18.8205 19.6873 18.7856 19.6875 18.7499V3.74993C19.6885 3.71423 19.6787 3.67906 19.6595 3.64897C19.6403 3.61888 19.6125 3.59526 19.5797 3.58118C19.5547 3.56936 19.5276 3.56297 19.5 3.56243C19.4564 3.56257 19.4144 3.57857 19.3818 3.60743C15.2568 7.06868 11.0381 7.84399 9.56528 8.01368V14.4824C11.0353 14.6559 15.2531 15.4321 19.379 18.8924ZM7.03778 19.5487C7.04506 19.5778 7.05923 19.6048 7.07912 19.6274C7.09901 19.6499 7.12402 19.6673 7.15205 19.6782C7.18009 19.689 7.21031 19.693 7.24019 19.6897C7.27006 19.6864 7.29871 19.676 7.32372 19.6593L8.35497 18.9721C8.38072 18.9549 8.40182 18.9316 8.41638 18.9043C8.43094 18.877 8.4385 18.8465 8.43841 18.8156V15.5624H5.98216L7.03778 19.5487ZM5.24997 14.4374H8.43747V8.06243H5.24997C4.40459 8.06243 3.59384 8.39825 2.99607 8.99602C2.39829 9.5938 2.06247 10.4046 2.06247 11.2499C2.06247 12.0953 2.39829 12.9061 2.99607 13.5038C3.59384 14.1016 4.40459 14.4374 5.24997 14.4374Z" fill="white"/>
</svg>
