<svg width="37" height="37" viewBox="0 0 37 37" fill="none" xmlns="http://www.w3.org/2000/svg">
<path d="M28.815 7.99411C26.0698 5.27692 22.3623 3.75433 18.4998 3.7579H18.3553C14.4705 3.79599 10.7578 5.36598 8.02431 8.12655C5.2908 10.8871 3.75747 14.6151 3.75765 18.5001C3.75765 24.5834 7.52557 29.6925 13.5858 31.8345C14.0549 32.001 14.5491 32.0861 15.047 32.086C16.1935 32.0795 17.2909 31.6201 18.1001 30.8079C18.9094 29.9957 19.3647 28.8966 19.367 27.75C19.367 27.0601 19.6411 26.3984 20.129 25.9105C20.6169 25.4226 21.2786 25.1485 21.9686 25.1485H28.6473C29.6306 25.1534 30.586 24.822 31.3549 24.2092C32.1239 23.5964 32.6602 22.739 32.8749 21.7795C33.1284 20.6614 33.2516 19.5178 33.242 18.3714C33.2275 16.4348 32.8287 14.5203 32.0688 12.739C31.3088 10.9576 30.2029 9.34484 28.815 7.99411ZM31.1839 21.3907C31.0555 21.9668 30.7339 22.4817 30.2725 22.8498C29.8111 23.2179 29.2376 23.417 28.6473 23.4141H21.9686C20.8186 23.4141 19.7157 23.8709 18.9026 24.6841C18.0894 25.4972 17.6326 26.6001 17.6326 27.75C17.6333 28.1666 17.534 28.5772 17.3429 28.9474C17.1519 29.3176 16.8747 29.6365 16.5348 29.8772C16.1949 30.118 15.8021 30.2736 15.3895 30.331C14.977 30.3884 14.5566 30.3459 14.1639 30.2071C8.81624 28.3079 5.49202 23.826 5.49202 18.5001C5.49184 15.0733 6.84383 11.785 9.25427 9.34937C11.6647 6.91376 14.9389 5.52768 18.3654 5.49227H18.4998C21.9263 5.50491 25.2106 6.864 27.644 9.27638C30.0775 11.6887 31.4651 14.961 31.5076 18.3873C31.5161 19.3976 31.4074 20.4054 31.1839 21.3907ZM19.9451 10.9845C19.9451 11.2703 19.8604 11.5497 19.7015 11.7874C19.5427 12.0251 19.317 12.2104 19.0529 12.3197C18.7888 12.4291 18.4982 12.4578 18.2178 12.402C17.9375 12.3462 17.68 12.2086 17.4778 12.0064C17.2757 11.8043 17.138 11.5468 17.0823 11.2664C17.0265 10.9861 17.0551 10.6955 17.1645 10.4314C17.2739 10.1673 17.4592 9.94153 17.6968 9.78272C17.9345 9.62391 18.214 9.53914 18.4998 9.53914C18.8831 9.53914 19.2508 9.69142 19.5218 9.96246C19.7928 10.2335 19.9451 10.6011 19.9451 10.9845ZM13.5858 14.4532C13.5858 14.7391 13.501 15.0185 13.3422 15.2562C13.1834 15.4938 12.9576 15.6791 12.6935 15.7885C12.4294 15.8979 12.1388 15.9265 11.8585 15.8707C11.5781 15.815 11.3206 15.6773 11.1185 15.4752C10.9163 15.2731 10.7787 15.0155 10.7229 14.7352C10.6671 14.4548 10.6958 14.1642 10.8052 13.9001C10.9145 13.636 11.0998 13.4103 11.3375 13.2515C11.5752 13.0927 11.8546 13.0079 12.1404 13.0079C12.5238 13.0079 12.8914 13.1602 13.1624 13.4312C13.4335 13.7023 13.5858 14.0699 13.5858 14.4532ZM13.5858 22.5469C13.5858 22.8328 13.501 23.1122 13.3422 23.3499C13.1834 23.5876 12.9576 23.7728 12.6935 23.8822C12.4294 23.9916 12.1388 24.0202 11.8585 23.9645C11.5781 23.9087 11.3206 23.7711 11.1185 23.5689C10.9163 23.3668 10.7787 23.1093 10.7229 22.8289C10.6671 22.5485 10.6958 22.2579 10.8052 21.9938C10.9145 21.7297 11.0998 21.504 11.3375 21.3452C11.5752 21.1864 11.8546 21.1016 12.1404 21.1016C12.5238 21.1016 12.8914 21.2539 13.1624 21.5249C13.4335 21.796 13.5858 22.1636 13.5858 22.5469ZM26.3045 14.4532C26.3045 14.7391 26.2197 15.0185 26.0609 15.2562C25.9021 15.4938 25.6764 15.6791 25.4123 15.7885C25.1482 15.8979 24.8576 15.9265 24.5772 15.8707C24.2968 15.815 24.0393 15.6773 23.8372 15.4752C23.6351 15.2731 23.4974 15.0155 23.4416 14.7352C23.3859 14.4548 23.4145 14.1642 23.5239 13.9001C23.6333 13.636 23.8185 13.4103 24.0562 13.2515C24.2939 13.0927 24.5733 13.0079 24.8592 13.0079C25.2425 13.0079 25.6101 13.1602 25.8812 13.4312C26.1522 13.7023 26.3045 14.0699 26.3045 14.4532Z" fill="white"/>
</svg>
