<svg width="24" height="24" viewBox="0 0 24 24" fill="none" xmlns="http://www.w3.org/2000/svg">
<path d="M18.6909 5.18532C16.9103 3.42281 14.5054 2.43519 12 2.4375H11.9062C9.3864 2.46221 6.97816 3.48058 5.20506 5.27123C3.43197 7.06187 2.43738 9.48003 2.4375 12C2.4375 15.9459 4.88156 19.26 8.8125 20.6494C9.11683 20.7574 9.43739 20.8126 9.76031 20.8125C10.504 20.8083 11.2159 20.5103 11.7408 19.9835C12.2657 19.4566 12.561 18.7437 12.5625 18C12.5625 17.5525 12.7403 17.1232 13.0568 16.8068C13.3732 16.4903 13.8024 16.3125 14.25 16.3125H18.5822C19.22 16.3157 19.8397 16.1007 20.3385 15.7032C20.8373 15.3057 21.1851 14.7496 21.3244 14.1272C21.4888 13.402 21.5688 12.6602 21.5625 11.9166C21.5531 10.6604 21.2944 9.41856 20.8015 8.26308C20.3086 7.10761 19.5912 6.06147 18.6909 5.18532ZM20.2275 13.875C20.1443 14.2487 19.9356 14.5827 19.6363 14.8215C19.337 15.0602 18.9651 15.1894 18.5822 15.1875H14.25C13.5041 15.1875 12.7887 15.4838 12.2613 16.0113C11.7338 16.5387 11.4375 17.2541 11.4375 18C11.4379 18.2702 11.3735 18.5366 11.2496 18.7767C11.1257 19.0168 10.9459 19.2236 10.7254 19.3798C10.5049 19.536 10.2501 19.6369 9.98252 19.6742C9.7149 19.7114 9.44225 19.6838 9.1875 19.5938C5.71875 18.3619 3.5625 15.4547 3.5625 12C3.56238 9.77726 4.43935 7.64426 6.00288 6.06441C7.56641 4.48455 9.69019 3.58547 11.9128 3.5625H12C14.2226 3.5707 16.3529 4.45228 17.9314 6.01706C19.5099 7.58185 20.41 9.70442 20.4375 11.9269C20.443 12.5822 20.3725 13.2359 20.2275 13.875ZM12.9375 7.125C12.9375 7.31042 12.8825 7.49168 12.7795 7.64585C12.6765 7.80002 12.5301 7.92018 12.3588 7.99114C12.1875 8.0621 11.999 8.08066 11.8171 8.04449C11.6352 8.00832 11.4682 7.91903 11.3371 7.78792C11.206 7.65681 11.1167 7.48976 11.0805 7.3079C11.0443 7.12604 11.0629 6.93754 11.1339 6.76624C11.2048 6.59493 11.325 6.44851 11.4792 6.3455C11.6333 6.24249 11.8146 6.1875 12 6.1875C12.2486 6.1875 12.4871 6.28628 12.6629 6.46209C12.8387 6.63791 12.9375 6.87636 12.9375 7.125ZM8.8125 9.375C8.8125 9.56042 8.75752 9.74168 8.6545 9.89585C8.55149 10.05 8.40507 10.1702 8.23377 10.2411C8.06246 10.3121 7.87396 10.3307 7.6921 10.2945C7.51024 10.2583 7.3432 10.169 7.21209 10.0379C7.08098 9.90681 6.99169 9.73976 6.95551 9.5579C6.91934 9.37604 6.93791 9.18754 7.00886 9.01624C7.07982 8.84493 7.19998 8.69852 7.35415 8.5955C7.50832 8.49249 7.68958 8.4375 7.875 8.4375C8.12364 8.4375 8.3621 8.53628 8.53791 8.71209C8.71373 8.88791 8.8125 9.12636 8.8125 9.375ZM8.8125 14.625C8.8125 14.8104 8.75752 14.9917 8.6545 15.1459C8.55149 15.3 8.40507 15.4202 8.23377 15.4911C8.06246 15.5621 7.87396 15.5807 7.6921 15.5445C7.51024 15.5083 7.3432 15.419 7.21209 15.2879C7.08098 15.1568 6.99169 14.9898 6.95551 14.8079C6.91934 14.626 6.93791 14.4375 7.00886 14.2662C7.07982 14.0949 7.19998 13.9485 7.35415 13.8455C7.50832 13.7425 7.68958 13.6875 7.875 13.6875C8.12364 13.6875 8.3621 13.7863 8.53791 13.9621C8.71373 14.1379 8.8125 14.3764 8.8125 14.625ZM17.0625 9.375C17.0625 9.56042 17.0075 9.74168 16.9045 9.89585C16.8015 10.05 16.6551 10.1702 16.4838 10.2411C16.3125 10.3121 16.124 10.3307 15.9421 10.2945C15.7602 10.2583 15.5932 10.169 15.4621 10.0379C15.331 9.90681 15.2417 9.73976 15.2055 9.5579C15.1693 9.37604 15.1879 9.18754 15.2589 9.01624C15.3298 8.84493 15.45 8.69852 15.6042 8.5955C15.7583 8.49249 15.9396 8.4375 16.125 8.4375C16.3736 8.4375 16.6121 8.53628 16.7879 8.71209C16.9637 8.88791 17.0625 9.12636 17.0625 9.375Z" fill="white"/>
</svg>
