<svg width="24" height="24" viewBox="0 0 24 24" fill="none" xmlns="http://www.w3.org/2000/svg">
<path d="M23.0624 8.68885C23.0627 8.51643 23.0289 8.34567 22.9629 8.18638C22.897 8.02708 22.8001 7.88242 22.678 7.76072L16.2383 1.32197C16.1164 1.20008 15.9717 1.10339 15.8125 1.03742C15.6532 0.971453 15.4826 0.9375 15.3102 0.9375C15.1378 0.9375 14.9671 0.971453 14.8079 1.03742C14.6486 1.10339 14.5039 1.20008 14.3821 1.32197L11.6886 4.01541L6.208 6.07135C5.99233 6.15208 5.80168 6.28814 5.65523 6.46586C5.50877 6.64358 5.41165 6.85671 5.37363 7.08384L3.19488 20.1563C3.18124 20.237 3.18537 20.3197 3.20698 20.3987C3.2286 20.4776 3.26717 20.5508 3.32001 20.6133C3.37286 20.6758 3.4387 20.726 3.51294 20.7604C3.58719 20.7948 3.66805 20.8126 3.74988 20.8126C3.78127 20.8125 3.81261 20.81 3.84363 20.8051L16.9161 18.6263C17.1434 18.5885 17.3568 18.4914 17.5347 18.345C17.7126 18.1985 17.8488 18.0078 17.9296 17.792L19.9846 12.3113L22.6789 9.61697C22.801 9.49525 22.8977 9.35057 22.9635 9.19127C23.0293 9.03197 23.0629 8.8612 23.0624 8.68885ZM16.8749 17.3973C16.8633 17.428 16.8439 17.4552 16.8186 17.4761C16.7933 17.497 16.7629 17.5109 16.7305 17.5163L5.38957 19.4063L10.3461 14.4488C10.8546 14.7625 11.4606 14.8785 12.049 14.7747C12.6374 14.6709 13.1672 14.3547 13.5378 13.8861C13.9083 13.4174 14.0939 12.829 14.0591 12.2325C14.0244 11.6361 13.7718 11.0731 13.3493 10.6507C12.9268 10.2282 12.3639 9.9756 11.7675 9.94086C11.171 9.90612 10.5826 10.0917 10.1139 10.4622C9.64526 10.8328 9.32903 11.3626 9.22527 11.9509C9.12152 12.5393 9.23748 13.1453 9.55113 13.6538L4.59363 18.6123L6.48457 7.26853C6.4901 7.23642 6.5039 7.2063 6.52461 7.18115C6.54532 7.156 6.57224 7.13668 6.60269 7.12509L11.8583 5.15634L18.8436 12.1417L16.8749 17.3973ZM10.3124 12.3751C10.3124 12.1155 10.3894 11.8617 10.5336 11.6459C10.6778 11.4301 10.8828 11.2618 11.1226 11.1625C11.3624 11.0632 11.6263 11.0372 11.8809 11.0878C12.1355 11.1385 12.3694 11.2635 12.553 11.447C12.7365 11.6306 12.8615 11.8644 12.9122 12.119C12.9628 12.3736 12.9368 12.6375 12.8375 12.8774C12.7381 13.1172 12.5699 13.3222 12.3541 13.4664C12.1382 13.6106 11.8845 13.6876 11.6249 13.6876C11.2768 13.6876 10.9429 13.5493 10.6968 13.3032C10.4507 13.057 10.3124 12.7232 10.3124 12.3751ZM21.8821 8.82197L19.4999 11.2042L12.7949 4.5001L15.178 2.11697C15.1954 2.09954 15.2161 2.08571 15.2389 2.07627C15.2616 2.06684 15.286 2.06198 15.3107 2.06198C15.3353 2.06198 15.3597 2.06684 15.3825 2.07627C15.4052 2.08571 15.4259 2.09954 15.4433 2.11697L21.8821 8.55666C21.8995 8.57407 21.9133 8.59475 21.9228 8.61751C21.9322 8.64027 21.9371 8.66467 21.9371 8.68931C21.9371 8.71395 21.9322 8.73835 21.9228 8.76112C21.9133 8.78388 21.8995 8.80456 21.8821 8.82197Z" fill="#0446F2"/>
</svg>
