<svg width="42" height="42" viewBox="0 0 42 42" fill="none" xmlns="http://www.w3.org/2000/svg">
<path d="M31.1718 15.7501C31.1718 20.3438 27.1326 24.1353 21.9843 24.5684V26.2501C21.9843 26.5111 21.8806 26.7615 21.696 26.9461C21.5114 27.1307 21.261 27.2344 21 27.2344C20.7389 27.2344 20.4885 27.1307 20.3039 26.9461C20.1193 26.7615 20.0156 26.5111 20.0156 26.2501V23.6251C20.0156 23.364 20.1193 23.1136 20.3039 22.929C20.4885 22.7444 20.7389 22.6407 21 22.6407C25.5232 22.6407 29.2031 19.5498 29.2031 15.7501C29.2031 11.9504 25.5232 8.85952 21 8.85952C16.4768 8.85952 12.7969 11.9504 12.7969 15.7501C12.7969 16.0112 12.6932 16.2616 12.5086 16.4462C12.324 16.6308 12.0736 16.7345 11.8125 16.7345C11.5515 16.7345 11.3011 16.6308 11.1165 16.4462C10.9319 16.2616 10.8282 16.0112 10.8282 15.7501C10.8282 10.8644 15.3907 6.89078 21 6.89078C26.6092 6.89078 31.1718 10.8644 31.1718 15.7501ZM21 31.8281C20.5457 31.8281 20.1016 31.9629 19.7239 32.2152C19.3462 32.4676 19.0518 32.8263 18.878 33.246C18.7041 33.6657 18.6586 34.1276 18.7472 34.5731C18.8359 35.0187 19.0546 35.4279 19.3759 35.7491C19.6971 36.0704 20.1063 36.2891 20.5519 36.3777C20.9974 36.4664 21.4593 36.4209 21.879 36.247C22.2986 36.0732 22.6574 35.7788 22.9098 35.4011C23.1621 35.0234 23.2968 34.5793 23.2968 34.125C23.2968 33.5158 23.0549 32.9316 22.6241 32.5009C22.1934 32.0701 21.6091 31.8281 21 31.8281Z" fill="white"/>
</svg>
