<svg width="32" height="32" viewBox="0 0 32 32" fill="none" xmlns="http://www.w3.org/2000/svg">
<path d="M29.2388 9.34853L22.6525 2.76227C22.49 2.59975 22.2971 2.47083 22.0848 2.38287C21.8724 2.29492 21.6449 2.24965 21.415 2.24965C21.1852 2.24965 20.9576 2.29492 20.7453 2.38287C20.533 2.47083 20.34 2.59975 20.1775 2.76227L2.76126 20.176C2.59874 20.3386 2.46982 20.5315 2.38187 20.7438C2.29391 20.9561 2.24864 21.1837 2.24864 21.4135C2.24864 21.6434 2.29391 21.871 2.38187 22.0833C2.46982 22.2956 2.59874 22.4885 2.76126 22.651L9.34752 29.2373C9.51003 29.3998 9.70296 29.5287 9.91529 29.6167C10.1276 29.7047 10.3552 29.7499 10.585 29.7499C10.8149 29.7499 11.0424 29.7047 11.2548 29.6167C11.4671 29.5287 11.66 29.3998 11.8225 29.2373L29.2388 11.8235C29.4013 11.661 29.5302 11.4681 29.6182 11.2558C29.7062 11.0434 29.7514 10.8159 29.7514 10.586C29.7514 10.3562 29.7062 10.1286 29.6182 9.91629C29.5302 9.70396 29.4013 9.51104 29.2388 9.34853ZM28.1775 10.7623L10.7625 28.1761C10.7393 28.1993 10.7117 28.2177 10.6814 28.2303C10.651 28.2429 10.6185 28.2494 10.5856 28.2494C10.5528 28.2494 10.5203 28.2429 10.4899 28.2303C10.4596 28.2177 10.432 28.1993 10.4088 28.1761L3.82252 21.591C3.79927 21.5678 3.78083 21.5403 3.76825 21.5099C3.75567 21.4796 3.74919 21.447 3.74919 21.4142C3.74919 21.3813 3.75567 21.3488 3.76825 21.3184C3.78083 21.2881 3.79927 21.2605 3.82252 21.2373L8.00002 17.0598L11.47 20.5298C11.5387 20.6035 11.6215 20.6626 11.7135 20.7036C11.8055 20.7446 11.9048 20.7666 12.0055 20.7684C12.1062 20.7702 12.2062 20.7516 12.2996 20.7139C12.393 20.6762 12.4778 20.6201 12.5491 20.5488C12.6203 20.4776 12.6764 20.3928 12.7142 20.2994C12.7519 20.206 12.7704 20.106 12.7686 20.0053C12.7668 19.9046 12.7448 19.8053 12.7038 19.7133C12.6628 19.6213 12.6037 19.5385 12.53 19.4698L9.06002 15.9998L12 13.0598L15.47 16.5298C15.6122 16.6623 15.8003 16.7344 15.9946 16.731C16.1889 16.7275 16.3742 16.6488 16.5117 16.5114C16.6491 16.374 16.7278 16.1886 16.7312 15.9943C16.7346 15.8 16.6625 15.612 16.53 15.4698L13.06 11.9998L16 9.06103L19.47 12.5298C19.6122 12.6623 19.8003 12.7344 19.9946 12.731C20.1889 12.7275 20.3742 12.6488 20.5117 12.5114C20.6491 12.374 20.7278 12.1886 20.7312 11.9943C20.7346 11.8 20.6625 11.612 20.53 11.4698L17.0613 7.99978L21.2375 3.82352C21.2608 3.80028 21.2883 3.78184 21.3187 3.76926C21.349 3.75668 21.3816 3.7502 21.4144 3.7502C21.4473 3.7502 21.4798 3.75668 21.5101 3.76926C21.5405 3.78184 21.5681 3.80028 21.5913 3.82352L28.1775 10.4085C28.2008 10.4318 28.2192 10.4593 28.2318 10.4897C28.2444 10.52 28.2509 10.5526 28.2509 10.5854C28.2509 10.6183 28.2444 10.6508 28.2318 10.6811C28.2192 10.7115 28.2008 10.7391 28.1775 10.7623Z" fill="white"/>
</svg>
