<svg width="24" height="24" viewBox="0 0 24 24" fill="none" xmlns="http://www.w3.org/2000/svg">
<path d="M20.25 3.9375H3.75C3.4019 3.9375 3.06806 4.07578 2.82192 4.32192C2.57578 4.56806 2.4375 4.9019 2.4375 5.25V18.75C2.4375 19.0981 2.57578 19.4319 2.82192 19.6781C3.06806 19.9242 3.4019 20.0625 3.75 20.0625H20.25C20.5981 20.0625 20.9319 19.9242 21.1781 19.6781C21.4242 19.4319 21.5625 19.0981 21.5625 18.75V5.25C21.5625 4.9019 21.4242 4.56806 21.1781 4.32192C20.9319 4.07578 20.5981 3.9375 20.25 3.9375ZM20.4375 18.75C20.4375 18.7997 20.4177 18.8474 20.3826 18.8826C20.3474 18.9177 20.2997 18.9375 20.25 18.9375H3.75C3.70027 18.9375 3.65258 18.9177 3.61742 18.8826C3.58225 18.8474 3.5625 18.7997 3.5625 18.75V5.25C3.5625 5.20027 3.58225 5.15258 3.61742 5.11742C3.65258 5.08225 3.70027 5.0625 3.75 5.0625H20.25C20.2997 5.0625 20.3474 5.08225 20.3826 5.11742C20.4177 5.15258 20.4375 5.20027 20.4375 5.25V18.75ZM16.3125 8.25C16.3125 9.39375 15.8581 10.4906 15.0494 11.2994C14.2406 12.1081 13.1437 12.5625 12 12.5625C10.8563 12.5625 9.75935 12.1081 8.9506 11.2994C8.14185 10.4906 7.6875 9.39375 7.6875 8.25C7.6875 8.10082 7.74676 7.95774 7.85225 7.85225C7.95774 7.74676 8.10082 7.6875 8.25 7.6875C8.39918 7.6875 8.54226 7.74676 8.64775 7.85225C8.75324 7.95774 8.8125 8.10082 8.8125 8.25C8.8125 9.09538 9.14832 9.90613 9.7461 10.5039C10.3439 11.1017 11.1546 11.4375 12 11.4375C12.8454 11.4375 13.6561 11.1017 14.2539 10.5039C14.8517 9.90613 15.1875 9.09538 15.1875 8.25C15.1875 8.10082 15.2468 7.95774 15.3523 7.85225C15.4577 7.74676 15.6008 7.6875 15.75 7.6875C15.8992 7.6875 16.0423 7.74676 16.1477 7.85225C16.2532 7.95774 16.3125 8.10082 16.3125 8.25Z" fill="#0446F2"/>
</svg>
