<svg width="24" height="24" viewBox="0 0 24 24" fill="none" xmlns="http://www.w3.org/2000/svg">
<path d="M22.1981 6.40969C22.1456 6.3406 22.0779 6.28459 22.0001 6.24604C21.9224 6.2075 21.8368 6.18746 21.75 6.1875H5.21906L4.29187 2.84906C4.2589 2.73069 4.18808 2.62637 4.09023 2.55205C3.99237 2.47773 3.87288 2.4375 3.75 2.4375H1.5C1.35082 2.4375 1.20774 2.49676 1.10225 2.60225C0.996763 2.70774 0.9375 2.85082 0.9375 3C0.9375 3.14918 0.996763 3.29226 1.10225 3.39775C1.20774 3.50324 1.35082 3.5625 1.5 3.5625H3.3225L6.65625 15.5522C6.77788 15.9853 7.0373 16.367 7.39523 16.6395C7.75317 16.912 8.19014 17.0605 8.64 17.0625H17.9062C18.3568 17.0613 18.7946 16.9132 19.1533 16.6406C19.512 16.3681 19.7719 15.9859 19.8937 15.5522L22.2966 6.90094C22.3192 6.81702 22.3221 6.72898 22.3051 6.64375C22.288 6.55851 22.2514 6.4784 22.1981 6.40969ZM18.8044 15.2512C18.7497 15.4478 18.6324 15.6211 18.4704 15.7449C18.3083 15.8688 18.1102 15.9364 17.9062 15.9375H8.64C8.43522 15.9374 8.2361 15.8703 8.07307 15.7464C7.91004 15.6224 7.79207 15.4485 7.73719 15.2512L5.53125 7.3125H21.0103L18.8044 15.2512ZM9.5625 20.25C9.5625 20.5096 9.48552 20.7633 9.3413 20.9792C9.19708 21.195 8.9921 21.3633 8.75227 21.4626C8.51244 21.5619 8.24854 21.5879 7.99394 21.5373C7.73934 21.4866 7.50548 21.3616 7.32192 21.1781C7.13837 20.9945 7.01336 20.7607 6.96272 20.5061C6.91208 20.2515 6.93807 19.9876 7.03741 19.7477C7.13675 19.5079 7.30497 19.3029 7.52081 19.1587C7.73665 19.0145 7.99041 18.9375 8.25 18.9375C8.5981 18.9375 8.93194 19.0758 9.17808 19.3219C9.42422 19.5681 9.5625 19.9019 9.5625 20.25ZM19.3125 20.25C19.3125 20.5096 19.2355 20.7633 19.0913 20.9792C18.9471 21.195 18.7421 21.3633 18.5023 21.4626C18.2624 21.5619 17.9985 21.5879 17.7439 21.5373C17.4893 21.4866 17.2555 21.3616 17.0719 21.1781C16.8884 20.9945 16.7634 20.7607 16.7127 20.5061C16.6621 20.2515 16.6881 19.9876 16.7874 19.7477C16.8867 19.5079 17.055 19.3029 17.2708 19.1587C17.4867 19.0145 17.7404 18.9375 18 18.9375C18.3481 18.9375 18.6819 19.0758 18.9281 19.3219C19.1742 19.5681 19.3125 19.9019 19.3125 20.25Z" fill="white"/>
</svg>
