<svg width="32" height="32" viewBox="0 0 32 32" fill="none" xmlns="http://www.w3.org/2000/svg">
<path d="M29.7501 7.00002V15C29.7501 15.1989 29.6711 15.3897 29.5305 15.5304C29.3898 15.671 29.199 15.75 29.0001 15.75C28.8012 15.75 28.6104 15.671 28.4698 15.5304C28.3291 15.3897 28.2501 15.1989 28.2501 15V8.81003L17.5301 19.53C17.3895 19.6705 17.1989 19.7494 17.0001 19.7494C16.8014 19.7494 16.6107 19.6705 16.4701 19.53L12.0001 15.0613L3.53009 23.53C3.38791 23.6625 3.19987 23.7346 3.00557 23.7312C2.81126 23.7278 2.62588 23.6491 2.48847 23.5117C2.35105 23.3743 2.27234 23.1889 2.26891 22.9946C2.26548 22.8003 2.33761 22.6122 2.47009 22.47L11.4701 13.47C11.6107 13.3296 11.8013 13.2507 12.0001 13.2507C12.1989 13.2507 12.3895 13.3296 12.5301 13.47L17.0001 17.9388L27.1901 7.75003H21.0001C20.8012 7.75003 20.6104 7.67101 20.4698 7.53036C20.3291 7.3897 20.2501 7.19894 20.2501 7.00002C20.2501 6.80111 20.3291 6.61035 20.4698 6.46969C20.6104 6.32904 20.8012 6.25002 21.0001 6.25002H29.0001C29.199 6.25002 29.3898 6.32904 29.5305 6.46969C29.6711 6.61035 29.7501 6.80111 29.7501 7.00002Z" fill="white"/>
</svg>
