<svg width="67" height="15" viewBox="0 0 67 15" fill="none" xmlns="http://www.w3.org/2000/svg">
<path d="M0.000164124 7.43297C0.000164384 10.4061 2.41034 12.8162 5.38344 12.8162C8.35654 12.8162 10.7667 10.4061 10.7667 7.43297C10.7667 4.45987 8.35654 2.0497 5.38344 2.0497C2.41034 2.0497 0.000163864 4.45987 0.000164124 7.43297ZM66.7044 8.14669C67.0985 7.75251 67.0985 7.11342 66.7044 6.71924L60.2808 0.295684C59.8866 -0.098497 59.2475 -0.098497 58.8534 0.295684C58.4592 0.689866 58.4592 1.32896 58.8534 1.72314L64.5632 7.43297L58.8534 13.1428C58.4592 13.537 58.4592 14.1761 58.8534 14.5703C59.2475 14.9644 59.8866 14.9644 60.2808 14.5702L66.7044 8.14669ZM5.38344 7.43297L5.38344 8.44234L65.9906 8.44233L65.9906 7.43297L65.9906 6.4236L5.38344 6.42361L5.38344 7.43297Z" fill="#4388F9"/>
</svg>
