<svg width="57" height="8" viewBox="0 0 57 8" fill="none" xmlns="http://www.w3.org/2000/svg">
<path d="M56.8545 4.06957C57.0512 3.86902 57.0481 3.547 56.8475 3.35033L53.5793 0.145349C53.3788 -0.051325 53.0567 -0.0481803 52.8601 0.152372C52.6634 0.352925 52.6665 0.67494 52.8671 0.871614L55.7722 3.72048L52.9233 6.62555C52.7266 6.8261 52.7298 7.14811 52.9303 7.34479C53.1309 7.54146 53.4529 7.53832 53.6495 7.33776L56.8545 4.06957ZM5.42481 4.21216C5.41018 2.71412 4.18393 1.51159 2.68589 1.52622C1.18786 1.54085 -0.0146788 2.7671 -4.95549e-05 4.26514C0.0145797 5.76317 1.24084 6.96571 2.73887 6.95108C4.2369 6.93645 5.43944 5.71019 5.42481 4.21216ZM54.5657 3.22364C54.2849 3.22638 54.0594 3.4563 54.0621 3.73718C54.0649 4.01807 54.2948 4.24354 54.5757 4.2408L54.5707 3.73222L54.5657 3.22364ZM50.7343 4.27831C51.0152 4.27557 51.2407 4.04565 51.2379 3.76476C51.2352 3.48388 51.0053 3.25841 50.7244 3.26115L50.7294 3.76973L50.7343 4.27831ZM46.883 3.29866C46.6022 3.30141 46.3767 3.53133 46.3794 3.81221C46.3822 4.09309 46.6121 4.31857 46.893 4.31582L46.888 3.80724L46.883 3.29866ZM43.0516 4.35334C43.3325 4.3506 43.558 4.12067 43.5552 3.83979C43.5525 3.55891 43.3226 3.33343 43.0417 3.33618L43.0466 3.84476L43.0516 4.35334ZM39.2003 3.37369C38.9194 3.37643 38.694 3.60636 38.6967 3.88724C38.6994 4.16812 38.9294 4.39359 39.2102 4.39085L39.2053 3.88227L39.2003 3.37369ZM35.3689 4.42836C35.6498 4.42562 35.8752 4.1957 35.8725 3.91482C35.8698 3.63394 35.6398 3.40846 35.359 3.4112L35.3639 3.91978L35.3689 4.42836ZM31.5176 3.44872C31.2367 3.45146 31.0112 3.68138 31.014 3.96226C31.0167 4.24315 31.2467 4.46862 31.5275 4.46588L31.5226 3.9573L31.5176 3.44872ZM27.6862 4.50339C27.9671 4.50065 28.1925 4.27073 28.1898 3.98984C28.187 3.70896 27.9571 3.48349 27.6762 3.48623L27.6812 3.99481L27.6862 4.50339ZM23.8349 3.52374C23.554 3.52649 23.3285 3.75641 23.3313 4.03729C23.334 4.31817 23.5639 4.54365 23.8448 4.5409L23.8399 4.03232L23.8349 3.52374ZM20.0035 4.57842C20.2843 4.57567 20.5098 4.34575 20.5071 4.06487C20.5043 3.78399 20.2744 3.55851 19.9935 3.56126L19.9985 4.06984L20.0035 4.57842ZM16.1522 3.59877C15.8713 3.60151 15.6458 3.83144 15.6486 4.11232C15.6513 4.3932 15.8812 4.61867 16.1621 4.61593L16.1571 4.10735L16.1522 3.59877ZM12.3207 4.65344C12.6016 4.6507 12.8271 4.42078 12.8244 4.1399C12.8216 3.85902 12.5917 3.63354 12.3108 3.63628L12.3158 4.14486L12.3207 4.65344ZM8.46946 3.6738C8.18857 3.67654 7.9631 3.90646 7.96585 4.18734C7.96859 4.46822 8.19851 4.6937 8.47939 4.69096L8.47443 4.18238L8.46946 3.6738ZM4.63804 4.72847C4.91892 4.72573 5.14439 4.4958 5.14165 4.21492C5.13891 3.93404 4.90898 3.70857 4.6281 3.71131L4.63307 4.21989L4.63804 4.72847ZM56.4914 3.71346L56.4864 3.20488L54.5657 3.22364L54.5707 3.73222L54.5757 4.2408L56.4964 4.22204L56.4914 3.71346ZM50.7294 3.76973L50.7244 3.26115L46.883 3.29866L46.888 3.80724L46.893 4.31582L50.7343 4.27831L50.7294 3.76973ZM43.0466 3.84476L43.0417 3.33618L39.2003 3.37369L39.2053 3.88227L39.2102 4.39085L43.0516 4.35334L43.0466 3.84476ZM35.3639 3.91978L35.359 3.4112L31.5176 3.44872L31.5226 3.9573L31.5275 4.46588L35.3689 4.42836L35.3639 3.91978ZM27.6812 3.99481L27.6762 3.48623L23.8349 3.52374L23.8399 4.03232L23.8448 4.5409L27.6862 4.50339L27.6812 3.99481ZM19.9985 4.06984L19.9935 3.56126L16.1522 3.59877L16.1571 4.10735L16.1621 4.61593L20.0035 4.57842L19.9985 4.06984ZM12.3158 4.14486L12.3108 3.63628L8.46946 3.6738L8.47443 4.18238L8.47939 4.69096L12.3207 4.65344L12.3158 4.14486ZM4.63307 4.21989L4.6281 3.71131L2.70741 3.73007L2.71238 4.23865L2.71735 4.74723L4.63804 4.72847L4.63307 4.21989Z" fill="#0446F2"/>
</svg>
