<svg width="327" height="341" viewBox="0 0 327 341" fill="none" xmlns="http://www.w3.org/2000/svg">
<path d="M293.646 0.50091C311.79 0.50091 326.499 15.2096 326.499 33.3536V34.0596C326.499 52.5935 311.474 67.6183 292.94 67.6183H35.4293C16.1389 67.6183 0.50091 83.2562 0.50091 102.547C0.50091 121.837 16.1389 137.475 35.4293 137.475H292.94C311.474 137.475 326.499 152.5 326.499 171.034C326.499 189.568 311.474 204.592 292.94 204.592H34.7444C15.8322 204.592 0.50091 219.924 0.50091 238.836C0.50091 257.748 15.8322 273.079 34.7444 273.079H292.941C311.474 273.079 326.499 288.104 326.499 306.638C326.499 325.172 311.474 340.196 292.941 340.196H157.182" stroke="#508AFF" stroke-linecap="round" stroke-dasharray="4 4"/>
</svg>
