<svg width="131" height="76" viewBox="0 0 131 76" fill="none" xmlns="http://www.w3.org/2000/svg">
<path d="M130.853 72.4815C131.049 72.285 131.049 71.9663 130.853 71.7698L127.65 68.5675C127.454 68.371 127.135 68.371 126.939 68.5675C126.742 68.764 126.742 69.0826 126.939 69.2791L129.785 72.1257L126.939 74.9722C126.742 75.1687 126.742 75.4873 126.939 75.6838C127.135 75.8803 127.454 75.8803 127.65 75.6838L130.853 72.4815ZM5.36732 2.68382C5.36732 1.20164 4.16576 8.44607e-05 2.68358 8.44607e-05C1.20138 8.44607e-05 -0.000168921 1.20164 -0.000168921 2.68382C-0.000168921 4.16602 1.20138 5.36757 2.68358 5.36757C4.16576 5.36757 5.36732 4.16602 5.36732 2.68382ZM128.309 71.6225C128.031 71.6225 127.806 71.8477 127.806 72.1257C127.806 72.4036 128.031 72.6289 128.309 72.6289V72.1257V71.6225ZM123.933 72.6289C124.211 72.6289 124.436 72.4036 124.436 72.1257C124.436 71.8477 124.211 71.6225 123.933 71.6225V72.1257V72.6289ZM119.557 71.6225C119.279 71.6225 119.054 71.8477 119.054 72.1257C119.054 72.4036 119.279 72.6289 119.557 72.6289V72.1257V71.6225ZM115.181 72.6289C115.459 72.6289 115.684 72.4036 115.684 72.1257C115.684 71.8477 115.459 71.6225 115.181 71.6225V72.1257V72.6289ZM110.805 71.6225C110.527 71.6225 110.302 71.8477 110.302 72.1257C110.302 72.4036 110.527 72.6289 110.805 72.6289V72.1257V71.6225ZM106.429 72.6289C106.707 72.6289 106.932 72.4036 106.932 72.1257C106.932 71.8477 106.707 71.6225 106.429 71.6225V72.1257V72.6289ZM102.053 71.6225C101.775 71.6225 101.55 71.8477 101.55 72.1257C101.55 72.4036 101.775 72.6289 102.053 72.6289V72.1257V71.6225ZM97.677 72.6289C97.9549 72.6289 98.1802 72.4036 98.1802 72.1257C98.1802 71.8477 97.9549 71.6225 97.677 71.6225V72.1257V72.6289ZM93.5689 71.5695C93.2914 71.5542 93.054 71.7667 93.0387 72.0441C93.0233 72.3216 93.2358 72.559 93.5133 72.5744L93.5411 72.0719L93.5689 71.5695ZM89.5864 72.1364C89.8605 72.1826 90.1201 71.998 90.1664 71.7239C90.2126 71.4499 90.0279 71.1903 89.7539 71.144L89.6702 71.6402L89.5864 72.1364ZM86.0122 70.2933C85.7451 70.2165 85.4663 70.3707 85.3895 70.6378C85.3127 70.9049 85.4669 71.1837 85.734 71.2605L85.8731 70.7769L86.0122 70.2933ZM82.0055 69.9558C82.2622 70.0623 82.5566 69.9405 82.6631 69.6838C82.7695 69.4271 82.6477 69.1326 82.391 69.0262L82.1982 69.491L82.0055 69.9558ZM78.9348 67.3588C78.6917 67.2242 78.3855 67.3121 78.2508 67.5552C78.1162 67.7984 78.2041 68.1046 78.4472 68.2392L78.691 67.799L78.9348 67.3588ZM75.1041 66.1343C75.3306 66.2954 75.6448 66.2422 75.8058 66.0157C75.9668 65.7892 75.9137 65.4751 75.6872 65.3141L75.3956 65.7242L75.1041 66.1343ZM72.6882 62.9194C72.481 62.7341 72.1629 62.7519 71.9776 62.9591C71.7924 63.1662 71.8101 63.4843 72.0173 63.6696L72.3527 63.2945L72.6882 62.9194ZM69.2241 60.8764C69.4094 61.0836 69.7275 61.1013 69.9347 60.9161C70.1418 60.7308 70.1596 60.4127 69.9743 60.2056L69.5992 60.541L69.2241 60.8764ZM67.5797 57.2066C67.4187 56.98 67.1045 56.9269 66.878 57.0879C66.6515 57.249 66.5984 57.5631 66.7594 57.7896L67.1695 57.4981L67.5797 57.2066ZM64.6545 54.4465C64.7891 54.6896 65.0954 54.7775 65.3385 54.6429C65.5816 54.5082 65.6695 54.202 65.5349 53.9589L65.0947 54.2027L64.6545 54.4465ZM63.8675 50.5027C63.7611 50.246 63.4667 50.1242 63.21 50.2307C62.9532 50.3371 62.8314 50.6315 62.9379 50.8882L63.4027 50.6955L63.8675 50.5027ZM61.6332 47.1597C61.7101 47.4268 61.9889 47.581 62.2559 47.5042C62.523 47.4274 62.6773 47.1486 62.6004 46.8815L62.1168 47.0206L61.6332 47.1597ZM61.7497 43.1399C61.7035 42.8658 61.4438 42.6811 61.1698 42.7274C60.8958 42.7736 60.7111 43.0333 60.7573 43.3073L61.2535 43.2236L61.7497 43.1399ZM60.3194 39.3804C60.3347 39.6579 60.5721 39.8704 60.8496 39.8551C61.1271 39.8397 61.3396 39.6023 61.3242 39.3248L60.8218 39.3526L60.3194 39.3804ZM61.2168 35.4291C61.2014 35.1516 60.9641 34.9391 60.6866 34.9544C60.4091 34.9698 60.1966 35.2072 60.2119 35.4846L60.7143 35.4569L61.2168 35.4291ZM59.7864 31.6696C59.8327 31.9437 60.0923 32.1283 60.3663 32.0821C60.6404 32.0359 60.825 31.7762 60.7788 31.5022L60.2826 31.5859L59.7864 31.6696ZM59.9029 27.6498C59.8261 27.3827 59.5473 27.2284 59.2802 27.3053C59.0131 27.3821 58.8589 27.6609 58.9357 27.928L59.4193 27.7889L59.9029 27.6498ZM57.6686 24.3067C57.7751 24.5635 58.0695 24.6853 58.3262 24.5788C58.5829 24.4724 58.7047 24.178 58.5982 23.9212L58.1334 24.114L57.6686 24.3067ZM56.8817 20.363C56.747 20.1199 56.4408 20.0319 56.1977 20.1666C55.9545 20.3012 55.8666 20.6075 56.0013 20.8506L56.4415 20.6068L56.8817 20.363ZM53.9565 17.6029C54.1175 17.8294 54.4316 17.8825 54.6581 17.7215C54.8847 17.5605 54.9378 17.2464 54.7768 17.0198L54.3666 17.3114L53.9565 17.6029ZM52.312 13.9331C52.1267 13.7259 51.8086 13.7081 51.6015 13.8934C51.3943 14.0787 51.3766 14.3968 51.5618 14.6039L51.9369 14.2685L52.312 13.9331ZM48.848 11.8901C49.0551 12.0753 49.3732 12.0576 49.5585 11.8504C49.7438 11.6433 49.726 11.3251 49.5188 11.1399L49.1834 11.515L48.848 11.8901ZM46.432 8.67514C46.2055 8.51413 45.8914 8.56723 45.7304 8.79375C45.5694 9.02027 45.6225 9.33442 45.849 9.49543L46.1405 9.08529L46.432 8.67514ZM42.6013 7.45063C42.8444 7.58529 43.1507 7.49736 43.2853 7.25424C43.42 7.01113 43.332 6.70489 43.0889 6.57025L42.8451 7.01044L42.6013 7.45063ZM39.5307 4.85365C39.2739 4.74719 38.9795 4.869 38.8731 5.12571C38.7666 5.38243 38.8884 5.67684 39.1451 5.78329L39.3379 5.31847L39.5307 4.85365ZM35.5239 4.5162C35.791 4.59301 36.0698 4.43877 36.1466 4.17169C36.2234 3.90461 36.0692 3.62582 35.8021 3.549L35.663 4.0326L35.5239 4.5162ZM31.9497 2.67309C31.6757 2.62685 31.416 2.81152 31.3698 3.08556C31.3236 3.35959 31.5082 3.61923 31.7823 3.66547L31.866 3.16928L31.9497 2.67309ZM27.9673 3.23998C28.2447 3.25532 28.4821 3.04282 28.4975 2.76533C28.5128 2.48784 28.3003 2.25046 28.0228 2.23511L27.995 2.73755L27.9673 3.23998ZM24.1002 2.18062C23.8223 2.18062 23.597 2.40592 23.597 2.68382C23.597 2.96174 23.8223 3.18703 24.1002 3.18703V2.68382V2.18062ZM20.2063 3.18703C20.4842 3.18703 20.7095 2.96174 20.7095 2.68382C20.7095 2.40592 20.4842 2.18062 20.2063 2.18062V2.68382V3.18703ZM16.3123 2.18062C16.0344 2.18062 15.8091 2.40592 15.8091 2.68382C15.8091 2.96174 16.0344 3.18703 16.3123 3.18703V2.68382V2.18062ZM12.4184 3.18703C12.6963 3.18703 12.9216 2.96174 12.9216 2.68382C12.9216 2.40592 12.6963 2.18062 12.4184 2.18062V2.68382V3.18703ZM8.52447 2.18062C8.24656 2.18062 8.02127 2.40592 8.02127 2.68382C8.02127 2.96174 8.24656 3.18703 8.52447 3.18703V2.68382V2.18062ZM4.63054 3.18703C4.90845 3.18703 5.13374 2.96174 5.13374 2.68382C5.13374 2.40592 4.90845 2.18062 4.63054 2.18062V2.68382V3.18703ZM130.497 72.1257V71.6225H128.309V72.1257V72.6289H130.497V72.1257ZM123.933 72.1257V71.6225H119.557V72.1257V72.6289H123.933V72.1257ZM115.181 72.1257V71.6225H110.805V72.1257V72.6289H115.181V72.1257ZM106.429 72.1257V71.6225H102.053V72.1257V72.6289H106.429V72.1257ZM97.677 72.1257V71.6225H95.489V72.1257V72.6289H97.677V72.1257ZM95.489 72.1257V71.6225C94.8446 71.6225 94.2044 71.6046 93.5689 71.5695L93.5411 72.0719L93.5133 72.5744C94.1673 72.6105 94.8261 72.6289 95.489 72.6289V72.1257ZM89.6702 71.6402L89.7539 71.144C88.4814 70.9293 87.2328 70.6443 86.0122 70.2933L85.8731 70.7769L85.734 71.2605C86.9908 71.622 88.2764 71.9153 89.5864 72.1364L89.6702 71.6402ZM82.1982 69.491L82.391 69.0262C81.2038 68.5339 80.0503 67.9766 78.9348 67.3588L78.691 67.799L78.4472 68.2392C79.5955 68.8752 80.7831 69.4489 82.0055 69.9558L82.1982 69.491ZM75.3956 65.7242L75.6872 65.3141C74.6425 64.5715 73.6413 63.7718 72.6882 62.9194L72.3527 63.2945L72.0173 63.6696C72.9983 64.5469 74.0288 65.37 75.1041 66.1343L75.3956 65.7242ZM69.5992 60.541L69.9743 60.2056C69.122 59.2524 68.3222 58.2512 67.5797 57.2066L67.1695 57.4981L66.7594 57.7896C67.5237 58.8649 68.3468 59.8954 69.2241 60.8764L69.5992 60.541ZM65.0947 54.2027L65.5349 53.9589C64.9171 52.8435 64.3598 51.6899 63.8675 50.5027L63.4027 50.6955L62.9379 50.8882C63.4448 52.1106 64.0185 53.2982 64.6545 54.4465L65.0947 54.2027ZM62.1168 47.0206L62.6004 46.8815C62.2494 45.661 61.9644 44.4124 61.7497 43.1399L61.2535 43.2236L60.7573 43.3073C60.9784 44.6174 61.2718 45.9029 61.6332 47.1597L62.1168 47.0206ZM60.8218 39.3526L61.3242 39.3248C61.2891 38.6893 61.2713 38.0491 61.2713 37.4047H60.7681H60.2649C60.2649 38.0677 60.2832 38.7264 60.3194 39.3804L60.8218 39.3526ZM60.7681 37.4047H61.2713C61.2713 36.7418 61.2529 36.0831 61.2168 35.4291L60.7143 35.4569L60.2119 35.4846C60.2471 36.1202 60.2649 36.7603 60.2649 37.4047H60.7681ZM60.2826 31.5859L60.7788 31.5022C60.5577 30.1921 60.2644 28.9065 59.9029 27.6498L59.4193 27.7889L58.9357 27.928C59.2868 29.1485 59.5717 30.3971 59.7864 31.6696L60.2826 31.5859ZM58.1334 24.114L58.5982 23.9212C58.0914 22.6989 57.5176 21.5113 56.8817 20.363L56.4415 20.6068L56.0013 20.8506C56.619 21.966 57.1763 23.1195 57.6686 24.3067L58.1334 24.114ZM54.3666 17.3114L54.7768 17.0198C54.0124 15.9446 53.1893 14.9141 52.312 13.9331L51.9369 14.2685L51.5618 14.6039C52.4142 15.5571 53.2139 16.5583 53.9565 17.6029L54.3666 17.3114ZM49.1834 11.515L49.5188 11.1399C48.5378 10.2626 47.5073 9.43945 46.432 8.67514L46.1405 9.08529L45.849 9.49543C46.8936 10.238 47.8948 11.0377 48.848 11.8901L49.1834 11.515ZM42.8451 7.01044L43.0889 6.57025C41.9406 5.93426 40.753 5.36055 39.5307 4.85365L39.3379 5.31847L39.1451 5.78329C40.3324 6.27561 41.4859 6.83287 42.6013 7.45063L42.8451 7.01044ZM35.663 4.0326L35.8021 3.549C34.5454 3.18753 33.2598 2.89415 31.9497 2.67309L31.866 3.16928L31.7823 3.66547C33.0548 3.88018 34.3034 4.16513 35.5239 4.5162L35.663 4.0326ZM27.995 2.73755L28.0228 2.23511C27.3688 2.19894 26.7101 2.18062 26.0472 2.18062V2.68382V3.18703C26.6916 3.18703 27.3317 3.20484 27.9673 3.23998L27.995 2.73755ZM26.0472 2.68382V2.18062H24.1002V2.68382V3.18703H26.0472V2.68382ZM20.2063 2.68382V2.18062H16.3123V2.68382V3.18703H20.2063V2.68382ZM12.4184 2.68382V2.18062H8.52447V2.68382V3.18703H12.4184V2.68382ZM4.63054 2.68382V2.18062H2.68358V2.68382V3.18703H4.63054V2.68382Z" fill="#0446F2"/>
</svg>
