<svg width="115" height="77" viewBox="0 0 115 77" fill="none" xmlns="http://www.w3.org/2000/svg">
<path d="M114.484 3.34187C114.68 3.53793 114.68 3.8558 114.484 4.05186L111.289 7.24679C111.093 7.44284 110.775 7.44284 110.579 7.24679C110.383 7.05073 110.383 6.73286 110.579 6.5368L113.419 3.69687L110.579 0.856934C110.383 0.660877 110.383 0.343007 110.579 0.14695C110.775 -0.049107 111.093 -0.0491072 111.289 0.146949L114.484 3.34187ZM5.35487 74.3226C5.35487 75.8013 4.1561 77.0001 2.67735 77.0001C1.1986 77.0001 -0.00016853 75.8013 -0.00016853 74.3226C-0.00016853 72.8438 1.1986 71.645 2.67735 71.645C4.1561 71.645 5.35487 72.8438 5.35487 74.3226ZM57.4085 39.0097L56.9065 39.0097L57.4085 39.0097ZM112.345 4.1989C112.068 4.1989 111.843 3.97413 111.843 3.69687C111.843 3.4196 112.068 3.19483 112.345 3.19483L112.345 3.69687L112.345 4.1989ZM108.777 3.19484C109.054 3.19484 109.279 3.4196 109.279 3.69687C109.279 3.97414 109.054 4.1989 108.777 4.1989L108.777 3.69687L108.777 3.19484ZM105.209 4.19891C104.932 4.19891 104.707 3.97414 104.707 3.69687C104.707 3.41961 104.932 3.19484 105.209 3.19484L105.209 3.69687V4.19891ZM101.641 3.19484C101.918 3.19484 102.143 3.41961 102.143 3.69688C102.143 3.97414 101.918 4.19891 101.641 4.19891L101.641 3.69688V3.19484ZM98.0729 4.19892C97.7956 4.19892 97.5708 3.97415 97.5708 3.69688C97.5708 3.41962 97.7956 3.19485 98.0729 3.19485L98.0729 3.69688V4.19892ZM94.5048 3.19485C94.7821 3.19485 95.0069 3.41962 95.0069 3.69688C95.0069 3.97415 94.7821 4.19892 94.5048 4.19892V3.69688L94.5048 3.19485ZM90.7675 4.25279C90.4906 4.2681 90.2538 4.05609 90.2385 3.77924C90.2232 3.5024 90.4352 3.26556 90.712 3.25025L90.7398 3.75152L90.7675 4.25279ZM86.7193 3.69558C86.9927 3.64945 87.2517 3.83369 87.2979 4.10709C87.344 4.38049 87.1598 4.63952 86.8864 4.68566L86.8028 4.19062L86.7193 3.69558ZM83.0799 5.55114C82.8134 5.62778 82.5352 5.4739 82.4586 5.20743C82.382 4.94097 82.5358 4.66283 82.8023 4.58619L82.9411 5.06866L83.0799 5.55114ZM79.0113 5.91272C79.2674 5.80651 79.5611 5.92804 79.6673 6.18415C79.7735 6.44027 79.652 6.73399 79.3959 6.8402L79.2036 6.37646L79.0113 5.91272ZM75.8799 8.53646C75.6373 8.67079 75.3318 8.58307 75.1974 8.34052C75.0631 8.09797 75.1508 7.79245 75.3934 7.65811L75.6366 8.09728L75.8799 8.53646ZM71.9942 9.79831C72.2202 9.63767 72.5336 9.69065 72.6943 9.91664C72.8549 10.1426 72.8019 10.4561 72.5759 10.6167L72.2851 10.2075L71.9942 9.79831ZM69.525 13.0529C69.3183 13.2377 69.0009 13.22 68.8161 13.0133C68.6313 12.8066 68.649 12.4892 68.8557 12.3044L69.1903 12.6786L69.525 13.0529ZM66.0157 15.1444C66.2005 14.9378 66.5179 14.92 66.7246 15.1049C66.9313 15.2897 66.949 15.6071 66.7641 15.8137L66.3899 15.4791L66.0157 15.1444ZM64.328 18.8647C64.1674 19.0907 63.854 19.1437 63.628 18.9831C63.402 18.8224 63.349 18.509 63.5096 18.283L63.9188 18.5739L64.328 18.8647ZM61.3695 21.6822C61.5038 21.4397 61.8093 21.3519 62.0519 21.4863C62.2944 21.6206 62.3822 21.9261 62.2478 22.1687L61.8087 21.9254L61.3695 21.6822ZM60.5516 25.6847C60.4454 25.9409 60.1517 26.0624 59.8956 25.9562C59.6395 25.85 59.5179 25.5563 59.6241 25.3001L60.0879 25.4924L60.5516 25.6847ZM58.2977 29.0912C58.3743 28.8247 58.6524 28.6708 58.9189 28.7475C59.1854 28.8241 59.3393 29.1022 59.2626 29.3687L58.7801 29.2299L58.2977 29.0912ZM58.3972 33.1752C58.3511 33.4486 58.092 33.6329 57.8186 33.5868C57.5452 33.5406 57.361 33.2816 57.4071 33.0082L57.9022 33.0917L58.3972 33.1752ZM56.9619 37.0009C56.9772 36.7241 57.214 36.5121 57.4908 36.5274C57.7677 36.5427 57.9797 36.7795 57.9644 37.0564L57.4631 37.0286L56.9619 37.0009ZM57.8552 41.0185C57.8399 41.2954 57.603 41.5074 57.3262 41.4921C57.0493 41.4768 56.8373 41.2399 56.8526 40.9631L57.3539 40.9908L57.8552 41.0185ZM56.4198 44.8442C56.466 44.5708 56.725 44.3866 56.9984 44.4327C57.2718 44.4788 57.456 44.7378 57.4099 45.0112L56.9149 44.9277L56.4198 44.8442ZM56.5194 48.9283C56.4427 49.1947 56.1646 49.3486 55.8981 49.272C55.6317 49.1953 55.4778 48.9172 55.5544 48.6507L56.0369 48.7895L56.5194 48.9283ZM54.2654 52.3347C54.3716 52.0786 54.6653 51.9571 54.9214 52.0633C55.1776 52.1695 55.2991 52.4632 55.1929 52.7193L54.7291 52.527L54.2654 52.3347ZM53.4475 56.3372C53.3132 56.5798 53.0077 56.6675 52.7651 56.5332C52.5226 56.3989 52.4349 56.0933 52.5692 55.8508L53.0084 56.094L53.4475 56.3372ZM50.489 59.1547C50.6496 58.9287 50.9631 58.8758 51.189 59.0364C51.415 59.197 51.468 59.5105 51.3074 59.7364L50.8982 59.4456L50.489 59.1547ZM48.8013 62.875C48.6165 63.0817 48.2991 63.0994 48.0925 62.9146C47.8858 62.7298 47.8681 62.4124 48.0529 62.2057L48.4271 62.5404L48.8013 62.875ZM45.292 64.9666C45.4987 64.7818 45.8161 64.7995 46.0009 65.0062C46.1857 65.2128 46.168 65.5302 45.9613 65.715L45.6267 65.3408L45.292 64.9666ZM42.8228 68.2211C42.5968 68.3818 42.2834 68.3288 42.1228 68.1028C41.9621 67.8768 42.0151 67.5634 42.2411 67.4028L42.5319 67.8119L42.8228 68.2211ZM38.9372 69.483C39.1797 69.3487 39.4852 69.4364 39.6196 69.6789C39.7539 69.9215 39.6662 70.227 39.4236 70.3613L39.1804 69.9222L38.9372 69.483ZM35.8057 72.1067C35.5496 72.2129 35.2559 72.0914 35.1497 71.8353C35.0435 71.5792 35.165 71.2855 35.4211 71.1792L35.6134 71.643L35.8057 72.1067ZM31.7372 72.4683C32.0036 72.3917 32.2818 72.5456 32.3584 72.812C32.435 73.0785 32.2812 73.3566 32.0147 73.4333L31.8759 72.9508L31.7372 72.4683ZM28.0977 74.3239C27.8243 74.37 27.5653 74.1858 27.5191 73.9124C27.473 73.639 27.6572 73.3799 27.9306 73.3338L28.0142 73.8288L28.0977 74.3239ZM24.0495 73.7667C24.3264 73.7513 24.5632 73.9634 24.5785 74.2402C24.5938 74.517 24.3818 74.7539 24.105 74.7692L24.0772 74.2679L24.0495 73.7667ZM19.6688 74.8246C19.3915 74.8246 19.1668 74.5998 19.1668 74.3226C19.1668 74.0453 19.3915 73.8205 19.6688 73.8205V74.3226V74.8246ZM14.8141 73.8205C15.0914 73.8205 15.3161 74.0453 15.3161 74.3226C15.3161 74.5998 15.0914 74.8246 14.8141 74.8246V74.3226V73.8205ZM9.95941 74.8246C9.68214 74.8246 9.45737 74.5998 9.45737 74.3226C9.45737 74.0453 9.68214 73.8205 9.95941 73.8205V74.3226V74.8246ZM5.1047 73.8205C5.38197 73.8205 5.60673 74.0453 5.60673 74.3226C5.60673 74.5998 5.38197 74.8246 5.1047 74.8246V74.3226V73.8205ZM114.129 3.69686L114.129 4.1989L112.345 4.1989L112.345 3.69687L112.345 3.19483L114.129 3.19483L114.129 3.69686ZM108.777 3.69687L108.777 4.1989L105.209 4.19891V3.69687L105.209 3.19484L108.777 3.19484L108.777 3.69687ZM101.641 3.69688L101.641 4.19891L98.0729 4.19892V3.69688L98.0729 3.19485L101.641 3.19484V3.69688ZM94.5048 3.69688V4.19892L92.7208 4.19892V3.69689L92.7208 3.19485L94.5048 3.19485L94.5048 3.69688ZM92.7208 3.69689V4.19892C92.0653 4.19892 91.414 4.21704 90.7675 4.25279L90.7398 3.75152L90.712 3.25025C91.377 3.21348 92.0468 3.19485 92.7208 3.19485L92.7208 3.69689ZM86.8028 4.19062L86.8864 4.68566C85.5918 4.9041 84.3216 5.19399 83.0799 5.55114L82.9411 5.06866L82.8023 4.58619C84.0802 4.21865 85.3873 3.92035 86.7193 3.69558L86.8028 4.19062ZM79.2036 6.37646L79.3959 6.8402C78.1881 7.34106 77.0146 7.90797 75.8799 8.53646L75.6366 8.09728L75.3934 7.65811C76.5609 7.01146 77.7684 6.42812 79.0113 5.91272L79.2036 6.37646ZM72.2851 10.2075L72.5759 10.6167C71.5132 11.3721 70.4947 12.1857 69.525 13.0529L69.1903 12.6786L68.8557 12.3044C69.8531 11.4124 70.9009 10.5754 71.9942 9.79831L72.2851 10.2075ZM66.3899 15.4791L66.7641 15.8137C65.897 16.7834 65.0834 17.802 64.328 18.8647L63.9188 18.5739L63.5096 18.283C64.2868 17.1897 65.1237 16.1419 66.0157 15.1444L66.3899 15.4791ZM61.8087 21.9254L62.2478 22.1687C61.6194 23.3034 61.0525 24.4769 60.5516 25.6847L60.0879 25.4924L59.6241 25.3001C60.1395 24.0573 60.7229 22.8497 61.3695 21.6822L61.8087 21.9254ZM58.7801 29.2299L59.2626 29.3687C58.9055 30.6104 58.6156 31.8807 58.3972 33.1752L57.9022 33.0917L57.4071 33.0082C57.6319 31.6761 57.9302 30.369 58.2977 29.0912L58.7801 29.2299ZM57.4631 37.0286L57.9644 37.0564C57.9286 37.7029 57.9105 38.3542 57.9105 39.0097L57.4085 39.0097L56.9065 39.0097C56.9065 38.3357 56.9251 37.6659 56.9619 37.0009L57.4631 37.0286ZM57.4085 39.0097L57.9105 39.0097C57.9106 39.6838 57.8919 40.3535 57.8552 41.0185L57.3539 40.9908L56.8526 40.9631C56.8884 40.3166 56.9065 39.6653 56.9065 39.0097L57.4085 39.0097ZM56.9149 44.9277L57.4099 45.0112C57.1852 46.3433 56.8869 47.6504 56.5194 48.9283L56.0369 48.7895L55.5544 48.6507C55.9115 47.409 56.2014 46.1388 56.4198 44.8442L56.9149 44.9277ZM54.7291 52.527L55.1929 52.7193C54.6775 53.9622 54.0942 55.1697 53.4475 56.3372L53.0084 56.094L52.5692 55.8508C53.1977 54.716 53.7646 53.5425 54.2654 52.3347L54.7291 52.527ZM50.8982 59.4456L51.3074 59.7364C50.5303 60.8298 49.6933 61.8775 48.8013 62.875L48.4271 62.5404L48.0529 62.2057C48.92 61.236 49.7336 60.2175 50.489 59.1547L50.8982 59.4456ZM45.6267 65.3408L45.9613 65.715C44.9639 66.607 43.9161 67.444 42.8228 68.2211L42.5319 67.8119L42.2411 67.4028C43.3038 66.6473 44.3224 65.8337 45.292 64.9666L45.6267 65.3408ZM39.1804 69.9222L39.4236 70.3613C38.2561 71.008 37.0486 71.5913 35.8057 72.1067L35.6134 71.643L35.4211 71.1792C36.6289 70.6784 37.8024 70.1115 38.9372 69.483L39.1804 69.9222ZM31.8759 72.9508L32.0147 73.4333C30.7369 73.8008 29.4297 74.0991 28.0977 74.3239L28.0142 73.8288L27.9306 73.3338C29.2252 73.1154 30.4954 72.8255 31.7372 72.4683L31.8759 72.9508ZM24.0772 74.2679L24.105 74.7692C23.44 74.806 22.7702 74.8246 22.0962 74.8246V74.3226V73.8205C22.7517 73.8205 23.403 73.8024 24.0495 73.7667L24.0772 74.2679ZM22.0962 74.3226V74.8246H19.6688V74.3226V73.8205H22.0962V74.3226ZM14.8141 74.3226V74.8246H9.95941V74.3226V73.8205H14.8141V74.3226ZM5.1047 74.3226V74.8246H2.67735V74.3226V73.8205H5.1047V74.3226Z" fill="#0446F2"/>
</svg>
