<svg width="61" height="146" viewBox="0 0 61 146" fill="none" xmlns="http://www.w3.org/2000/svg">
<path d="M60.1958 3.33808C60.3916 3.53391 60.3916 3.85142 60.1958 4.04725L57.0045 7.23856C56.8087 7.4344 56.4912 7.4344 56.2953 7.23857C56.0995 7.04273 56.0995 6.72522 56.2953 6.52939L59.132 3.69267L56.2953 0.855971C56.0995 0.660137 56.0995 0.342628 56.2953 0.146793C56.4912 -0.0490414 56.8087 -0.0490426 57.0045 0.14679L60.1958 3.33808ZM5.34879 143.326C5.34879 144.803 4.15138 146 2.67431 146C1.19724 146 -0.000160686 144.803 -0.000160686 143.326C-0.000160686 141.848 1.19724 140.651 2.67431 140.651C4.15138 140.651 5.34879 141.848 5.34879 143.326ZM30.7474 32.7867L30.246 32.7867L30.7474 32.7867ZM57.9689 4.25444C57.6925 4.2723 57.454 4.06274 57.4361 3.78636C57.4183 3.50999 57.6279 3.27146 57.9042 3.2536L57.9366 3.75402L57.9689 4.25444ZM54.0659 3.75453C54.3376 3.70078 54.6014 3.87746 54.6551 4.14914C54.7089 4.42083 54.5322 4.68464 54.2605 4.73839L54.1632 4.24646L54.0659 3.75453ZM50.647 5.70438C50.3848 5.79339 50.1 5.65294 50.011 5.39068C49.922 5.12842 50.0625 4.84366 50.3247 4.75466L50.4859 5.22952L50.647 5.70438ZM46.7484 6.23765C46.9967 6.11497 47.2974 6.2168 47.4201 6.4651C47.5428 6.7134 47.441 7.01413 47.1927 7.13682L46.9705 6.68723L46.7484 6.23765ZM43.9552 9.00985C43.7251 9.16392 43.4136 9.10226 43.2595 8.87212C43.1054 8.64199 43.1671 8.33052 43.3972 8.17645L43.6762 8.59315L43.9552 9.00985ZM40.3274 10.5354C40.5355 10.3527 40.8524 10.3734 41.0351 10.5815C41.2177 10.7897 41.1971 11.1065 40.989 11.2892L40.6582 10.9123L40.3274 10.5354ZM38.3438 13.9344C38.1611 14.1425 37.8443 14.1631 37.6361 13.9805C37.428 13.7978 37.4073 13.4809 37.59 13.2728L37.9669 13.6036L38.3438 13.9344ZM35.2311 16.3427C35.3852 16.1125 35.6966 16.0509 35.9268 16.2049C36.1569 16.359 36.2186 16.6705 36.0645 16.9006L35.6478 16.6216L35.2311 16.3427ZM34.1915 20.1381C34.0688 20.3864 33.7681 20.4882 33.5198 20.3655C33.2715 20.2429 33.1696 19.9421 33.2923 19.6938L33.7419 19.916L34.1915 20.1381ZM31.8094 23.2702C31.8984 23.0079 32.1831 22.8675 32.4454 22.9565C32.7076 23.0455 32.8481 23.3302 32.7591 23.5925L32.2842 23.4313L31.8094 23.2702ZM31.7931 27.206C31.7394 27.4777 31.4756 27.6543 31.2039 27.6006C30.9322 27.5468 30.7555 27.283 30.8093 27.0113L31.3012 27.1087L31.7931 27.206ZM30.3084 30.8497C30.3262 30.5733 30.5647 30.3637 30.8411 30.3816C31.1175 30.3995 31.3271 30.638 31.3092 30.9144L30.8088 30.882L30.3084 30.8497ZM31.2489 34.8483C31.2489 35.1253 31.0244 35.3498 30.7474 35.3498C30.4705 35.3498 30.246 35.1253 30.246 34.8483L30.7474 34.8483L31.2489 34.8483ZM30.246 38.9716C30.246 38.6946 30.4705 38.4701 30.7475 38.4701C31.0244 38.4701 31.2489 38.6946 31.2489 38.9716L30.7475 38.9716H30.246ZM31.2489 43.0948C31.2489 43.3718 31.0244 43.5963 30.7475 43.5963C30.4705 43.5963 30.246 43.3718 30.246 43.0948H30.7475L31.2489 43.0948ZM30.246 47.2181C30.246 46.9412 30.4705 46.7167 30.7475 46.7166C31.0244 46.7166 31.249 46.9412 31.249 47.2181H30.7475L30.246 47.2181ZM31.249 51.3414C31.249 51.6183 31.0245 51.8428 30.7475 51.8428C30.4706 51.8428 30.246 51.6183 30.246 51.3414L30.7475 51.3414H31.249ZM30.2461 55.4646C30.2461 55.1877 30.4706 54.9632 30.7475 54.9632C31.0245 54.9632 31.249 55.1877 31.249 55.4646H30.7475L30.2461 55.4646ZM31.249 59.5879C31.249 59.8649 31.0245 60.0894 30.7475 60.0894C30.4706 60.0894 30.2461 59.8649 30.2461 59.5879L30.7475 59.5879H31.249ZM30.2461 63.7112C30.2461 63.4342 30.4706 63.2097 30.7475 63.2097C31.0245 63.2097 31.249 63.4342 31.249 63.7112H30.7475L30.2461 63.7112ZM31.249 67.8344C31.249 68.1114 31.0245 68.3359 30.7476 68.3359C30.4706 68.3359 30.2461 68.1114 30.2461 67.8345L30.7476 67.8344H31.249ZM30.2461 71.9577C30.2461 71.6808 30.4706 71.4563 30.7476 71.4563C31.0245 71.4563 31.249 71.6808 31.249 71.9577H30.7476H30.2461ZM31.2491 76.081C31.2491 76.3579 31.0245 76.5824 30.7476 76.5825C30.4706 76.5825 30.2461 76.3579 30.2461 76.081H30.7476L31.2491 76.081ZM30.2461 80.2043C30.2461 79.9273 30.4707 79.7028 30.7476 79.7028C31.0246 79.7028 31.2491 79.9273 31.2491 80.2042L30.7476 80.2043H30.2461ZM31.2491 84.3275C31.2491 84.6045 31.0246 84.829 30.7476 84.829C30.4707 84.829 30.2462 84.6045 30.2462 84.3275H30.7476L31.2491 84.3275ZM30.2462 88.4508C30.2462 88.1738 30.4707 87.9493 30.7476 87.9493C31.0246 87.9493 31.2491 88.1738 31.2491 88.4508L30.7476 88.4508H30.2462ZM31.2491 92.574C31.2491 92.851 31.0246 93.0755 30.7477 93.0755C30.4707 93.0755 30.2462 92.851 30.2462 92.5741H30.7477L31.2491 92.574ZM30.2462 96.6973C30.2462 96.4204 30.4707 96.1959 30.7477 96.1959C31.0246 96.1959 31.2491 96.4204 31.2491 96.6973H30.7477H30.2462ZM31.2491 100.821C31.2491 101.098 31.0246 101.322 30.7477 101.322C30.4707 101.322 30.2462 101.098 30.2462 100.821H30.7477H31.2491ZM30.2462 104.944C30.2462 104.667 30.4707 104.442 30.7477 104.442C31.0246 104.442 31.2492 104.667 31.2492 104.944H30.7477H30.2462ZM31.2492 109.067C31.2492 109.344 31.0247 109.569 30.7477 109.569C30.4708 109.569 30.2463 109.344 30.2463 109.067H30.7477H31.2492ZM30.2463 113.19C30.2463 112.913 30.4708 112.689 30.7477 112.689C31.0247 112.689 31.2492 112.913 31.2492 113.19H30.7477H30.2463ZM31.1624 117.496C31.1409 117.772 30.8997 117.978 30.6236 117.957C30.3475 117.935 30.141 117.694 30.1625 117.418L30.6624 117.457L31.1624 117.496ZM29.4903 121.692C29.5548 121.422 29.8253 121.256 30.0947 121.321C30.364 121.385 30.5302 121.656 30.4657 121.925L29.978 121.808L29.4903 121.692ZM29.0808 126.19C28.9747 126.446 28.6813 126.568 28.4255 126.461C28.1696 126.355 28.0482 126.062 28.1543 125.806L28.6175 125.998L29.0808 126.19ZM26.1872 129.66C26.3321 129.424 26.6409 129.35 26.8769 129.495C27.1129 129.64 27.1867 129.949 27.0418 130.185L26.6145 129.922L26.1872 129.66ZM24.4032 133.81C24.2233 134.021 23.9067 134.046 23.6962 133.866C23.4857 133.686 23.4609 133.369 23.6409 133.159L24.0221 133.485L24.4032 133.81ZM20.5809 136.219C20.7914 136.039 21.108 136.063 21.2879 136.274C21.4679 136.484 21.4431 136.801 21.2326 136.981L20.9068 136.6L20.5809 136.219ZM17.6068 139.62C17.3708 139.764 17.062 139.691 16.9171 139.455C16.7721 139.219 16.846 138.91 17.082 138.765L17.3444 139.192L17.6068 139.62ZM13.2284 140.732C13.4842 140.626 13.7776 140.747 13.8837 141.003C13.9898 141.259 13.8684 141.552 13.6126 141.659L13.4205 141.195L13.2284 140.732ZM9.34746 143.043C9.07811 143.108 8.80751 142.942 8.74307 142.672C8.67863 142.403 8.84474 142.133 9.11408 142.068L9.23077 142.556L9.34746 143.043ZM4.84027 142.74C5.11639 142.719 5.35762 142.925 5.37907 143.201C5.40052 143.478 5.19407 143.719 4.91795 143.74L4.87911 143.24L4.84027 142.74ZM59.8412 3.69267L59.8412 4.19413C59.2121 4.19413 58.5878 4.21445 57.9689 4.25444L57.9366 3.75402L57.9042 3.2536C58.5446 3.21222 59.1905 3.1912 59.8412 3.1912L59.8412 3.69267ZM54.1632 4.24646L54.2605 4.73839C53.0255 4.98271 51.8192 5.30656 50.647 5.70438L50.4859 5.22952L50.3247 4.75466C51.5383 4.34277 52.7873 4.00747 54.0659 3.75453L54.1632 4.24646ZM46.9705 6.68723L47.1927 7.13682C46.0699 7.69156 44.9888 8.31788 43.9552 9.00985L43.6762 8.59315L43.3972 8.17645C44.467 7.46026 45.5861 6.81193 46.7484 6.23765L46.9705 6.68723ZM40.6582 10.9123L40.989 11.2892C40.0509 12.1125 39.1671 12.9963 38.3438 13.9344L37.9669 13.6036L37.59 13.2728C38.4421 12.302 39.3566 11.3874 40.3274 10.5354L40.6582 10.9123ZM35.6478 16.6216L36.0645 16.9006C35.3725 17.9342 34.7462 19.0153 34.1915 20.1381L33.7419 19.916L33.2923 19.6938C33.8666 18.5315 34.5149 17.4124 35.2311 16.3427L35.6478 16.6216ZM32.2842 23.4313L32.7591 23.5925C32.3613 24.7646 32.0374 25.971 31.7931 27.206L31.3012 27.1087L30.8093 27.0113C31.0622 25.7328 31.3975 24.4838 31.8094 23.2702L32.2842 23.4313ZM30.8088 30.882L31.3092 30.9144C31.2692 31.5332 31.2489 32.1576 31.2489 32.7867L30.7474 32.7867L30.246 32.7867C30.246 32.136 30.267 31.4901 30.3084 30.8497L30.8088 30.882ZM30.7474 32.7867L31.2489 32.7867L31.2489 34.8483L30.7474 34.8483L30.246 34.8483L30.246 32.7867L30.7474 32.7867ZM30.7475 38.9716L31.2489 38.9716L31.2489 43.0948L30.7475 43.0948H30.246L30.246 38.9716H30.7475ZM30.7475 47.2181H31.249L31.249 51.3414H30.7475L30.246 51.3414L30.246 47.2181L30.7475 47.2181ZM30.7475 55.4646H31.249L31.249 59.5879H30.7475L30.2461 59.5879L30.2461 55.4646L30.7475 55.4646ZM30.7475 63.7112H31.249L31.249 67.8344H30.7476L30.2461 67.8345L30.2461 63.7112L30.7475 63.7112ZM30.7476 71.9577H31.249L31.2491 76.081L30.7476 76.081H30.2461L30.2461 71.9577H30.7476ZM30.7476 80.2043L31.2491 80.2042L31.2491 84.3275L30.7476 84.3275H30.2462L30.2461 80.2043H30.7476ZM30.7476 88.4508L31.2491 88.4508L31.2491 92.574L30.7477 92.5741H30.2462L30.2462 88.4508H30.7476ZM30.7477 96.6973H31.2491L31.2491 100.821H30.7477H30.2462L30.2462 96.6973H30.7477ZM30.7477 104.944H31.2492L31.2492 109.067H30.7477H30.2463L30.2462 104.944H30.7477ZM30.7477 113.19H31.2492L31.2492 115.252H30.7477H30.2463L30.2463 113.19H30.7477ZM30.7477 115.252H31.2492C31.2492 116.007 31.2199 116.755 31.1624 117.496L30.6624 117.457L30.1625 117.418C30.218 116.703 30.2463 115.981 30.2463 115.252H30.7477ZM29.978 121.808L30.4657 121.925C30.1142 123.394 29.6493 124.819 29.0808 126.19L28.6175 125.998L28.1543 125.806C28.7028 124.483 29.1513 123.109 29.4903 121.692L29.978 121.808ZM26.6145 129.922L27.0418 130.185C26.2566 131.463 25.3736 132.675 24.4032 133.81L24.0221 133.485L23.6409 133.159C24.5774 132.063 25.4295 130.894 26.1872 129.66L26.6145 129.922ZM20.9068 136.6L21.2326 136.981C20.0976 137.951 18.8855 138.834 17.6068 139.62L17.3444 139.192L17.082 138.765C18.3158 138.007 19.4855 137.155 20.5809 136.219L20.9068 136.6ZM13.4205 141.195L13.6126 141.659C12.2415 142.227 10.8165 142.692 9.34746 143.043L9.23077 142.556L9.11408 142.068C10.5312 141.729 11.9058 141.281 13.2284 140.732L13.4205 141.195ZM4.87911 143.24L4.91795 143.74C4.17754 143.798 3.4293 143.827 2.67431 143.827V143.326V142.824C3.40335 142.824 4.12567 142.796 4.84027 142.74L4.87911 143.24Z" fill="#0446F2"/>
</svg>
