<svg width="48" height="8" viewBox="0 0 48 8" fill="none" xmlns="http://www.w3.org/2000/svg">
<path d="M-0.000164735 3.72474C-0.000164865 5.21464 1.20764 6.42244 2.69754 6.42244C4.18744 6.42244 5.39524 5.21464 5.39524 3.72474C5.39524 2.23484 4.18744 1.02703 2.69754 1.02703C1.20764 1.02703 -0.000164605 2.23484 -0.000164735 3.72474ZM47.8518 4.08241C48.0494 3.88488 48.0494 3.56461 47.8518 3.36707L44.6328 0.148058C44.4353 -0.049477 44.115 -0.049477 43.9175 0.148058C43.72 0.345593 43.72 0.66586 43.9175 0.863395L46.7788 3.72474L43.9175 6.58609C43.72 6.78362 43.72 7.10389 43.9175 7.30143C44.115 7.49896 44.4353 7.49896 44.6328 7.30143L47.8518 4.08241ZM2.69754 3.72474L2.69754 4.23056L47.4942 4.23056L47.4942 3.72474L47.4942 3.21892L2.69754 3.21892L2.69754 3.72474Z" fill="#4388F9"/>
</svg>
