<svg width="71" height="156" viewBox="0 0 71 156" fill="none" xmlns="http://www.w3.org/2000/svg">
<path d="M70.3136 152.658C70.5097 152.462 70.5097 152.144 70.3136 151.948L67.1183 148.752C66.9222 148.556 66.6043 148.556 66.4083 148.752C66.2122 148.948 66.2122 149.266 66.4083 149.462L69.2485 152.303L66.4083 155.143C66.2122 155.339 66.2122 155.657 66.4083 155.853C66.6043 156.049 66.9222 156.049 67.1183 155.853L70.3136 152.658ZM5.35553 2.67793C5.35553 1.19901 4.15662 9.19366e-05 2.67768 9.19366e-05C1.19875 9.19366e-05 -0.000160889 1.19901 -0.000160889 2.67793C-0.000160889 4.15687 1.19875 5.35578 2.67768 5.35578C4.15662 5.35578 5.35553 4.15687 5.35553 2.67793ZM67.9271 151.745C67.6503 151.729 67.4134 151.941 67.3981 152.218C67.3828 152.495 67.5948 152.732 67.8717 152.747L67.8994 152.246L67.9271 151.745ZM63.7237 152.285C63.9971 152.331 64.2562 152.146 64.3023 151.873C64.3485 151.6 64.1642 151.341 63.8908 151.294L63.8072 151.789L63.7237 152.285ZM59.932 150.394C59.6655 150.318 59.3873 150.472 59.3106 150.738C59.234 151.005 59.3879 151.283 59.6544 151.359L59.7932 150.877L59.932 150.394ZM55.716 149.981C55.9721 150.087 56.2659 149.966 56.3721 149.71C56.4783 149.454 56.3568 149.16 56.1006 149.054L55.9083 149.517L55.716 149.981ZM52.4439 147.29C52.2013 147.155 51.8958 147.243 51.7614 147.486C51.6271 147.728 51.7148 148.034 51.9574 148.168L52.2006 147.729L52.4439 147.29ZM48.426 145.945C48.652 146.105 48.9655 146.052 49.1262 145.826C49.2868 145.6 49.2338 145.287 49.0078 145.126L48.7169 145.535L48.426 145.945ZM45.8348 142.593C45.6281 142.408 45.3107 142.425 45.1258 142.632C44.941 142.839 44.9587 143.156 45.1654 143.341L45.5001 142.967L45.8348 142.593ZM42.215 140.391C42.3998 140.597 42.7172 140.615 42.9239 140.43C43.1307 140.245 43.1484 139.928 42.9635 139.721L42.5892 140.056L42.215 140.391ZM40.4299 136.548C40.2693 136.322 39.9558 136.269 39.7298 136.43C39.5038 136.591 39.4508 136.904 39.6114 137.13L40.0207 136.839L40.4299 136.548ZM37.388 133.599C37.5224 133.841 37.8279 133.929 38.0705 133.795C38.3131 133.66 38.4008 133.355 38.2665 133.112L37.8273 133.355L37.388 133.599ZM36.5024 129.455C36.3962 129.199 36.1024 129.078 35.8463 129.184C35.5901 129.29 35.4686 129.584 35.5748 129.84L36.0386 129.648L36.5024 129.455ZM34.1967 125.902C34.2734 126.168 34.5515 126.322 34.818 126.245C35.0845 126.169 35.2384 125.891 35.1618 125.624L34.6792 125.763L34.1967 125.902ZM34.2617 121.665C34.2155 121.392 33.9565 121.208 33.683 121.254C33.4096 121.3 33.2253 121.559 33.2715 121.832L33.7666 121.749L34.2617 121.665ZM32.8088 117.684C32.8242 117.961 33.061 118.173 33.3379 118.158C33.6148 118.143 33.8268 117.906 33.8115 117.629L33.3102 117.657L32.8088 117.684ZM33.7555 113.539C33.7555 113.262 33.5307 113.037 33.2534 113.037C32.9761 113.037 32.7513 113.262 32.7513 113.539H33.2534H33.7555ZM32.7513 109.422C32.7513 109.699 32.9761 109.924 33.2534 109.924C33.5307 109.924 33.7555 109.699 33.7555 109.422H33.2534H32.7513ZM33.7555 105.304C33.7555 105.027 33.5307 104.802 33.2534 104.802C32.9761 104.802 32.7513 105.027 32.7513 105.304H33.2534H33.7555ZM32.7513 101.187C32.7513 101.465 32.9761 101.689 33.2534 101.689C33.5307 101.689 33.7555 101.465 33.7555 101.187H33.2534H32.7513ZM33.7555 97.0701C33.7555 96.7928 33.5307 96.568 33.2534 96.568C32.9761 96.568 32.7513 96.7928 32.7513 97.0701H33.2534H33.7555ZM32.7513 92.9529C32.7513 93.2302 32.9761 93.455 33.2534 93.455C33.5307 93.455 33.7555 93.2302 33.7555 92.9529H33.2534H32.7513ZM33.7555 88.8357C33.7555 88.5584 33.5307 88.3336 33.2534 88.3336C32.9761 88.3336 32.7513 88.5584 32.7513 88.8357H33.2534H33.7555ZM32.7513 84.7185C32.7513 84.9958 32.9761 85.2206 33.2534 85.2206C33.5307 85.2206 33.7555 84.9958 33.7555 84.7185H33.2534H32.7513ZM33.7555 80.6013C33.7555 80.324 33.5307 80.0992 33.2534 80.0992C32.9761 80.0992 32.7513 80.324 32.7513 80.6013H33.2534H33.7555ZM32.7513 76.4842C32.7513 76.7615 32.9761 76.9863 33.2534 76.9863C33.5307 76.9863 33.7555 76.7615 33.7555 76.4842H33.2534H32.7513ZM33.7555 72.367C33.7555 72.0897 33.5307 71.8649 33.2534 71.8649C32.9761 71.8649 32.7513 72.0897 32.7513 72.367H33.2534H33.7555ZM32.7513 68.2498C32.7513 68.5271 32.9761 68.7519 33.2534 68.7519C33.5307 68.7519 33.7555 68.5271 33.7555 68.2498H33.2534H32.7513ZM33.7555 64.1326C33.7555 63.8553 33.5307 63.6305 33.2534 63.6305C32.9761 63.6305 32.7513 63.8553 32.7513 64.1326H33.2534H33.7555ZM32.7513 60.0154C32.7513 60.2927 32.9761 60.5175 33.2534 60.5175C33.5307 60.5175 33.7555 60.2927 33.7555 60.0154H33.2534H32.7513ZM33.7555 55.8982C33.7555 55.6209 33.5307 55.3961 33.2534 55.3961C32.9761 55.3961 32.7513 55.6209 32.7513 55.8982H33.2534H33.7555ZM32.7513 51.781C32.7513 52.0583 32.9761 52.2831 33.2534 52.2831C33.5307 52.2831 33.7555 52.0583 33.7555 51.781H33.2534H32.7513ZM33.7555 47.6638C33.7555 47.3865 33.5307 47.1617 33.2534 47.1617C32.9761 47.1617 32.7513 47.3865 32.7513 47.6638H33.2534H33.7555ZM32.7513 43.5466C32.7513 43.8239 32.9761 44.0487 33.2534 44.0487C33.5307 44.0487 33.7555 43.8239 33.7555 43.5466H33.2534H32.7513ZM33.7555 39.4295C33.7555 39.1521 33.5307 38.9274 33.2534 38.9274C32.9761 38.9274 32.7513 39.1521 32.7513 39.4295H33.2534H33.7555ZM32.7513 35.3123C32.7513 35.5896 32.9761 35.8144 33.2534 35.8144C33.5307 35.8144 33.7555 35.5896 33.7555 35.3123H33.2534H32.7513ZM33.69 31.2196C33.6721 30.9429 33.4333 30.7331 33.1565 30.7509C32.8798 30.7688 32.67 31.0076 32.6879 31.2844L33.1889 31.252L33.69 31.2196ZM32.1789 27.3839C32.2327 27.6559 32.4968 27.8328 32.7688 27.779C33.0409 27.7252 33.2178 27.461 33.164 27.189L32.6714 27.2864L32.1789 27.3839ZM32.1138 23.2605C32.0246 22.9979 31.7395 22.8572 31.4769 22.9464C31.2143 23.0355 31.0737 23.3206 31.1628 23.5832L31.6383 23.4218L32.1138 23.2605ZM29.6562 19.9498C29.779 20.1984 30.0801 20.3004 30.3288 20.1776C30.5774 20.0547 30.6793 19.7536 30.5565 19.505L30.1064 19.7274L29.6562 19.9498ZM28.5206 15.986C28.3663 15.7555 28.0545 15.6938 27.8241 15.8481C27.5936 16.0023 27.5319 16.3142 27.6862 16.5446L28.1034 16.2653L28.5206 15.986ZM25.2888 13.4247C25.4717 13.6332 25.7889 13.6538 25.9973 13.4709C26.2057 13.288 26.2264 12.9707 26.0435 12.7623L25.6661 13.0935L25.2888 13.4247ZM23.169 9.88784C22.9606 9.70492 22.6434 9.72559 22.4604 9.93401C22.2775 10.1424 22.2982 10.4597 22.5066 10.6426L22.8378 10.2652L23.169 9.88784ZM19.3867 8.24517C19.6171 8.39944 19.929 8.3377 20.0832 8.10728C20.2375 7.87684 20.1758 7.56499 19.9454 7.41072L19.666 7.82794L19.3867 8.24517ZM16.4263 5.37483C16.1777 5.25199 15.8766 5.35394 15.7538 5.60256C15.6309 5.85117 15.7329 6.15229 15.9815 6.27512L16.2039 5.82497L16.4263 5.37483ZM12.3482 4.76849C12.6107 4.85761 12.8959 4.71698 12.985 4.45439C13.0741 4.1918 12.9335 3.90668 12.6709 3.81756L12.5095 4.29303L12.3482 4.76849ZM8.74234 2.76737C8.47031 2.71355 8.20616 2.89044 8.15234 3.16247C8.09853 3.43451 8.27543 3.69866 8.54745 3.75247L8.6449 3.25992L8.74234 2.76737ZM4.64696 3.24346C4.92368 3.26134 5.16251 3.05151 5.18039 2.77478C5.19827 2.49807 4.98844 2.25923 4.71172 2.24135L4.67934 2.74241L4.64696 3.24346ZM69.9586 152.303V151.801C69.2768 151.801 68.5995 151.782 67.9271 151.745L67.8994 152.246L67.8717 152.747C68.5625 152.785 69.2583 152.805 69.9586 152.805V152.303ZM63.8072 151.789L63.8908 151.294C62.5444 151.067 61.2234 150.766 59.932 150.394L59.7932 150.877L59.6544 151.359C60.9819 151.741 62.3399 152.051 63.7237 152.285L63.8072 151.789ZM55.9083 149.517L56.1006 149.054C54.8445 148.533 53.624 147.943 52.4439 147.29L52.2006 147.729L51.9574 148.168C53.1703 148.84 54.4248 149.446 55.716 149.981L55.9083 149.517ZM48.7169 145.535L49.0078 145.126C47.9025 144.341 46.8433 143.494 45.8348 142.593L45.5001 142.967L45.1654 143.341C46.2017 144.268 47.2902 145.137 48.426 145.945L48.7169 145.535ZM42.5892 140.056L42.9635 139.721C42.0617 138.713 41.2156 137.654 40.4299 136.548L40.0207 136.839L39.6114 137.13C40.4188 138.266 41.2883 139.354 42.215 140.391L42.5892 140.056ZM37.8273 133.355L38.2665 133.112C37.6129 131.932 37.0233 130.712 36.5024 129.455L36.0386 129.648L35.5748 129.84C36.1102 131.131 36.7162 132.386 37.388 133.599L37.8273 133.355ZM34.6792 125.763L35.1618 125.624C34.7903 124.333 34.4889 123.012 34.2617 121.665L33.7666 121.749L33.2715 121.832C33.505 123.216 33.8149 124.574 34.1967 125.902L34.6792 125.763ZM33.3102 117.657L33.8115 117.629C33.7743 116.957 33.7555 116.279 33.7555 115.597H33.2534H32.7513C32.7513 116.298 32.7706 116.994 32.8088 117.684L33.3102 117.657ZM33.2534 115.597H33.7555V113.539H33.2534H32.7513V115.597H33.2534ZM33.2534 109.422H33.7555V105.304H33.2534H32.7513V109.422H33.2534ZM33.2534 101.187H33.7555V97.0701H33.2534H32.7513V101.187H33.2534ZM33.2534 92.9529H33.7555V88.8357H33.2534H32.7513V92.9529H33.2534ZM33.2534 84.7185H33.7555V80.6013H33.2534H32.7513V84.7185H33.2534ZM33.2534 76.4842H33.7555V72.367H33.2534H32.7513V76.4842H33.2534ZM33.2534 68.2498H33.7555V64.1326H33.2534H32.7513V68.2498H33.2534ZM33.2534 60.0154H33.7555V55.8982H33.2534H32.7513V60.0154H33.2534ZM33.2534 51.781H33.7555V47.6638H33.2534H32.7513V51.781H33.2534ZM33.2534 43.5466H33.7555V39.4295H33.2534H32.7513V43.5466H33.2534ZM33.2534 35.3123H33.7555V33.2536H33.2534H32.7513V35.3123H33.2534ZM33.2534 33.2536H33.7555C33.7555 32.5703 33.7334 31.8921 33.69 31.2196L33.1889 31.252L32.6879 31.2844C32.7299 31.9353 32.7513 32.5919 32.7513 33.2536H33.2534ZM32.6714 27.2864L33.164 27.189C32.8984 25.8464 32.5463 24.5349 32.1138 23.2605L31.6383 23.4218L31.1628 23.5832C31.5813 24.8161 31.9219 26.0849 32.1789 27.3839L32.6714 27.2864ZM30.1064 19.7274L30.5565 19.505C29.9535 18.2845 29.2727 17.1093 28.5206 15.986L28.1034 16.2653L27.6862 16.5446C28.414 17.6317 29.0727 18.7689 29.6562 19.9498L30.1064 19.7274ZM25.6661 13.0935L26.0435 12.7623C25.1488 11.7429 24.1884 10.7826 23.169 9.88784L22.8378 10.2652L22.5066 10.6426C23.4933 11.5085 24.4228 12.4381 25.2888 13.4247L25.6661 13.0935ZM19.666 7.82794L19.9454 7.41072C18.822 6.65866 17.6468 5.97786 16.4263 5.37483L16.2039 5.82497L15.9815 6.27512C17.1624 6.85859 18.2996 7.51737 19.3867 8.24517L19.666 7.82794ZM12.5095 4.29303L12.6709 3.81756C11.3965 3.38504 10.0849 3.03297 8.74234 2.76737L8.6449 3.25992L8.54745 3.75247C9.84642 4.00943 11.1153 4.35006 12.3482 4.76849L12.5095 4.29303ZM4.67934 2.74241L4.71172 2.24135C4.03924 2.1979 3.361 2.17583 2.67768 2.17583V2.67793V3.18003C3.33938 3.18003 3.99602 3.2014 4.64696 3.24346L4.67934 2.74241Z" fill="#0446F2"/>
</svg>
