<svg width="68" height="68" viewBox="0 0 68 68" fill="none" xmlns="http://www.w3.org/2000/svg">
<path d="M34 6.375C28.5363 6.375 23.1953 7.99518 18.6524 11.0307C14.1095 14.0661 10.5687 18.3806 8.47784 23.4284C6.38697 28.4762 5.8399 34.0306 6.90582 39.3894C7.97174 44.7481 10.6028 49.6704 14.4662 53.5338C18.3296 57.3973 23.2519 60.0283 28.6106 61.0942C33.9694 62.1601 39.5238 61.613 44.5716 59.5222C49.6194 57.4313 53.9339 53.8905 56.9694 49.3476C60.0048 44.8047 61.625 39.4637 61.625 34C61.6173 26.6758 58.7043 19.6537 53.5253 14.4747C48.3463 9.2957 41.3242 6.38273 34 6.375ZM31.875 21.25C31.875 20.6864 32.0989 20.1459 32.4974 19.7474C32.8959 19.3489 33.4364 19.125 34 19.125C34.5636 19.125 35.1041 19.3489 35.5026 19.7474C35.9011 20.1459 36.125 20.6864 36.125 21.25V36.125C36.125 36.6886 35.9011 37.2291 35.5026 37.6276C35.1041 38.0261 34.5636 38.25 34 38.25C33.4364 38.25 32.8959 38.0261 32.4974 37.6276C32.0989 37.2291 31.875 36.6886 31.875 36.125V21.25ZM34 48.875C33.3696 48.875 32.7533 48.6881 32.2291 48.3378C31.705 47.9876 31.2964 47.4897 31.0551 46.9073C30.8139 46.3249 30.7508 45.684 30.8738 45.0657C30.9967 44.4473 31.3003 43.8794 31.7461 43.4336C32.1919 42.9878 32.7598 42.6842 33.3782 42.5612C33.9965 42.4383 34.6374 42.5014 35.2198 42.7426C35.8023 42.9839 36.3001 43.3924 36.6503 43.9166C37.0006 44.4408 37.1875 45.0571 37.1875 45.6875C37.1875 46.5329 36.8517 47.3436 36.2539 47.9414C35.6561 48.5392 34.8454 48.875 34 48.875Z" fill="#0446F2"/>
</svg>
