<svg width="24" height="24" viewBox="0 0 24 24" fill="none" xmlns="http://www.w3.org/2000/svg">
<path d="M21.5625 19.5C21.5625 19.6492 21.5032 19.7923 21.3977 19.8977C21.2923 20.0032 21.1492 20.0625 21 20.0625H3C2.85082 20.0625 2.70774 20.0032 2.60225 19.8977C2.49676 19.7923 2.4375 19.6492 2.4375 19.5V4.5C2.4375 4.35082 2.49676 4.20774 2.60225 4.10225C2.70774 3.99676 2.85082 3.9375 3 3.9375C3.14918 3.9375 3.29226 3.99676 3.39775 4.10225C3.50324 4.20774 3.5625 4.35082 3.5625 4.5V15.1425L8.6025 10.1025C8.70797 9.99716 8.85094 9.93799 9 9.93799C9.14906 9.93799 9.29203 9.99716 9.3975 10.1025L12 12.7041L17.3925 7.3125H15C14.8508 7.3125 14.7077 7.25324 14.6023 7.14775C14.4968 7.04226 14.4375 6.89918 14.4375 6.75C14.4375 6.60082 14.4968 6.45774 14.6023 6.35225C14.7077 6.24676 14.8508 6.1875 15 6.1875H18.75C18.8992 6.1875 19.0423 6.24676 19.1477 6.35225C19.2532 6.45774 19.3125 6.60082 19.3125 6.75V10.5C19.3125 10.6492 19.2532 10.7923 19.1477 10.8977C19.0423 11.0032 18.8992 11.0625 18.75 11.0625C18.6008 11.0625 18.4577 11.0032 18.3523 10.8977C18.2468 10.7923 18.1875 10.6492 18.1875 10.5V8.1075L12.3975 13.8975C12.292 14.0028 12.1491 14.062 12 14.062C11.8509 14.062 11.708 14.0028 11.6025 13.8975L9 11.2959L3.5625 16.7334V18.9375H21C21.1492 18.9375 21.2923 18.9968 21.3977 19.1023C21.5032 19.2077 21.5625 19.3508 21.5625 19.5Z" fill="white"/>
</svg>
