<svg width="24" height="24" viewBox="0 0 24 24" fill="none" xmlns="http://www.w3.org/2000/svg">
<path d="M12 7.68758C11.1471 7.68758 10.3133 7.9405 9.60409 8.41437C8.89491 8.88823 8.34216 9.56175 8.01576 10.3498C7.68936 11.1378 7.60395 12.0049 7.77035 12.8414C7.93675 13.6779 8.34748 14.4464 8.95059 15.0495C9.55371 15.6526 10.3221 16.0633 11.1587 16.2297C11.9952 16.3961 12.8623 16.3107 13.6503 15.9843C14.4383 15.6579 15.1118 15.1052 15.5857 14.396C16.0596 13.6868 16.3125 12.853 16.3125 12.0001C16.311 10.8568 15.8562 9.76075 15.0477 8.95232C14.2393 8.1439 13.1433 7.68907 12 7.68758ZM12 15.1876C11.3696 15.1876 10.7533 15.0006 10.2291 14.6504C9.70493 14.3001 9.29638 13.8023 9.05512 13.2199C8.81387 12.6374 8.75075 11.9965 8.87374 11.3782C8.99673 10.7599 9.30031 10.192 9.74609 9.74618C10.1919 9.3004 10.7598 8.99682 11.3781 8.87383C11.9965 8.75083 12.6374 8.81396 13.2198 9.05521C13.8022 9.29647 14.3001 9.70502 14.6503 10.2292C15.0005 10.7534 15.1875 11.3697 15.1875 12.0001C15.1875 12.8455 14.8517 13.6562 14.2539 14.254C13.6561 14.8518 12.8454 15.1876 12 15.1876ZM22.125 10.0876C22.1087 10.0092 22.0758 9.93519 22.0286 9.87052C21.9814 9.80585 21.9209 9.752 21.8512 9.71258L18.9975 8.0832L18.9581 8.01664L18.9469 4.80008C18.9469 4.71883 18.9293 4.63855 18.8953 4.56475C18.8613 4.49095 18.8117 4.42539 18.75 4.37258C17.7533 3.52983 16.6058 2.88373 15.3684 2.46852C15.294 2.4435 15.2152 2.43434 15.1371 2.4416C15.0589 2.44887 14.9832 2.47241 14.9147 2.5107L12.0431 4.11195H11.9494L9.0853 2.50883C9.01648 2.47042 8.94036 2.4469 8.86187 2.43979C8.78338 2.43269 8.70427 2.44215 8.62968 2.46758C7.39238 2.88401 6.24548 3.53174 5.24999 4.37633C5.18802 4.42886 5.13817 4.49419 5.10386 4.56783C5.06955 4.64146 5.0516 4.72166 5.05124 4.80289L5.03624 8.02227C5.02311 8.04383 5.00999 8.06633 4.9978 8.08883L2.1478 9.70977C2.07776 9.74979 2.01715 9.80441 1.97008 9.86992C1.92301 9.93544 1.89058 10.0103 1.87499 10.0895C1.62468 11.3515 1.62468 12.6505 1.87499 13.9126C1.8913 13.991 1.92416 14.065 1.97137 14.1296C2.01858 14.1943 2.07905 14.2482 2.14874 14.2876L5.00061 15.9123L5.03999 15.9788L5.05124 19.1954C5.05078 19.2776 5.06834 19.3589 5.10268 19.4335C5.13702 19.5082 5.1873 19.5744 5.24999 19.6276C6.24668 20.4703 7.39413 21.1164 8.63155 21.5316C8.70594 21.5567 8.78474 21.5658 8.86289 21.5586C8.94104 21.5513 9.0168 21.5278 9.0853 21.4895L11.955 19.8882H12.0487L14.9137 21.4913C14.9976 21.5377 15.0917 21.5622 15.1875 21.5626C15.2491 21.5628 15.3102 21.5527 15.3684 21.5326C16.6041 21.1156 17.7493 20.4679 18.7434 19.6238C18.8054 19.5713 18.8552 19.506 18.8896 19.4323C18.9239 19.3587 18.9418 19.2785 18.9422 19.1973L18.9572 15.9779C18.9703 15.9563 18.9834 15.9338 18.9956 15.9113L21.8475 14.2904C21.9177 14.2505 21.9785 14.1959 22.0257 14.1304C22.073 14.0649 22.1055 13.9899 22.1212 13.9107C22.3728 12.6489 22.3741 11.3499 22.125 10.0876ZM21.0703 13.4429L18.3112 15.0095C18.2218 15.0606 18.1479 15.1352 18.0975 15.2251C18.0422 15.3188 17.9841 15.4229 17.9231 15.5195C17.8676 15.6083 17.8381 15.7109 17.8378 15.8157L17.8228 18.9291C17.0471 19.5506 16.1758 20.0423 15.2428 20.3851L12.4687 18.8326C12.3849 18.7854 12.2903 18.7606 12.1941 18.7604H12.1809C12.0647 18.7604 11.9466 18.7604 11.8303 18.7604C11.7297 18.758 11.6303 18.7826 11.5425 18.8316L8.76093 20.3841C7.82676 20.0431 6.95416 19.5527 6.17718 18.932L6.16593 15.8223C6.16563 15.7175 6.13609 15.6149 6.08061 15.526C6.02061 15.4323 5.96155 15.331 5.90624 15.2316C5.85636 15.1417 5.78275 15.0671 5.69343 15.016L2.93436 13.4438C2.77398 12.4883 2.77398 11.5128 2.93436 10.5573L5.68874 8.9907C5.77958 8.94006 5.85481 8.86548 5.90624 8.77508C5.96155 8.68133 6.01968 8.57727 6.08061 8.4807C6.13609 8.39183 6.16563 8.28922 6.16593 8.18445L6.18093 5.07102C6.9555 4.44989 7.8255 3.95822 8.75718 3.61508L11.5312 5.16758C11.6187 5.21749 11.7184 5.24215 11.8191 5.23883C11.9353 5.23883 12.0534 5.23883 12.1697 5.23883C12.2703 5.24125 12.3697 5.21664 12.4575 5.16758L15.2372 3.61508C16.1713 3.95612 17.0439 4.44656 17.8209 5.06727L17.8322 8.17695C17.8325 8.28172 17.862 8.38433 17.9175 8.4732C17.9775 8.56695 18.0366 8.6682 18.0919 8.76758C18.1417 8.85756 18.2154 8.93214 18.3047 8.9832L21.0656 10.5563C21.2269 11.5117 21.2279 12.4872 21.0684 13.4429H21.0703Z" fill="white"/>
</svg>
