<svg width="24" height="24" viewBox="0 0 24 24" fill="none" xmlns="http://www.w3.org/2000/svg">
<path d="M17.8472 15.9954C18.7971 15.2184 19.5578 14.2353 20.0716 13.1207C20.5853 12.0062 20.8387 10.7893 20.8125 9.56226C20.7187 5.37351 17.3662 1.9207 13.1869 1.70039C12.1046 1.6415 11.0217 1.8014 10.0027 2.17055C8.98365 2.5397 8.04952 3.11051 7.25612 3.84886C6.46272 4.58722 5.82633 5.47796 5.38499 6.46784C4.94365 7.45772 4.70642 8.52643 4.68748 9.61008L2.56029 13.6976C2.55373 13.7098 2.5481 13.722 2.54248 13.7351C2.41166 14.0424 2.40293 14.388 2.51807 14.7016C2.63321 15.0151 2.86355 15.273 3.16217 15.4226L3.17904 15.431L5.43654 16.4623V19.4998C5.43654 19.8479 5.57482 20.1817 5.82096 20.4278C6.06711 20.674 6.40095 20.8123 6.74904 20.8123H11.249C11.3982 20.8123 11.5413 20.753 11.6468 20.6475C11.7523 20.542 11.8115 20.3989 11.8115 20.2498C11.8115 20.1006 11.7523 19.9575 11.6468 19.852C11.5413 19.7465 11.3982 19.6873 11.249 19.6873H6.74998C6.70025 19.6873 6.65256 19.6675 6.6174 19.6323C6.58223 19.5972 6.56248 19.5495 6.56248 19.4998V16.107C6.56258 15.9992 6.53171 15.8936 6.47354 15.8029C6.41537 15.7121 6.33234 15.64 6.23435 15.5951L3.65623 14.4166C3.61754 14.3954 3.58758 14.3612 3.57163 14.32C3.55568 14.2789 3.55477 14.2334 3.56904 14.1916L5.74498 10.0095C5.7881 9.9296 5.81126 9.8405 5.81248 9.74976C5.81302 8.13755 6.37468 6.57579 7.40106 5.3325C8.42744 4.08921 9.85455 3.24191 11.4375 2.93601V4.76601C10.9585 4.90178 10.5449 5.2062 10.2728 5.62309C10.0007 6.03998 9.88858 6.5412 9.95712 7.03428C10.0257 7.52736 10.2702 7.97901 10.6457 8.30589C11.0211 8.63277 11.5022 8.81283 12 8.81283C12.4978 8.81283 12.9788 8.63277 13.3543 8.30589C13.7297 7.97901 13.9743 7.52736 14.0428 7.03428C14.1114 6.5412 13.9993 6.03998 13.7272 5.62309C13.4551 5.2062 13.0414 4.90178 12.5625 4.76601V2.81695C12.75 2.81226 12.9375 2.81226 13.125 2.82258C14.537 2.90331 15.8909 3.412 17.0067 4.28098C18.1226 5.14997 18.9474 6.33807 19.3715 7.68726H17.25C17.1675 7.68727 17.086 7.70541 17.0113 7.7404C16.9367 7.7754 16.8706 7.82639 16.8178 7.88976L14.3381 10.8654C13.8822 10.6617 13.3681 10.6297 12.8905 10.7755C12.4129 10.9213 12.0042 11.2349 11.7398 11.6585C11.4755 12.0821 11.3733 12.587 11.4521 13.0801C11.5309 13.5731 11.7855 14.021 12.1688 14.341C12.552 14.6611 13.0382 14.8316 13.5374 14.8212C14.0366 14.8108 14.5152 14.6201 14.8848 14.2844C15.2544 13.9487 15.4901 13.4906 15.5483 12.9947C15.6065 12.4988 15.4833 11.9985 15.2015 11.5863L17.5134 8.81226H19.6228C19.6585 9.06898 19.6795 9.32753 19.6856 9.58664C19.7097 10.6906 19.4708 11.7845 18.9886 12.7779C18.5064 13.7713 17.7948 14.6357 16.9125 15.2998C16.8333 15.3593 16.7712 15.4386 16.7325 15.5298C16.6938 15.621 16.6799 15.7208 16.6922 15.8191L17.4422 21.8191C17.4591 21.9552 17.5251 22.0804 17.6278 22.1712C17.7305 22.262 17.8629 22.3122 18 22.3123C18.0235 22.3121 18.047 22.3105 18.0703 22.3076C18.1436 22.2984 18.2144 22.2749 18.2786 22.2384C18.3429 22.2019 18.3993 22.153 18.4446 22.0947C18.49 22.0364 18.5234 21.9697 18.543 21.8984C18.5626 21.8272 18.5679 21.7528 18.5587 21.6795L17.8472 15.9954ZM12.9375 6.74976C12.9375 6.93518 12.8825 7.11644 12.7795 7.27061C12.6765 7.42478 12.5301 7.54494 12.3587 7.6159C12.1874 7.68686 11.9989 7.70542 11.8171 7.66925C11.6352 7.63308 11.4682 7.54379 11.3371 7.41268C11.206 7.28156 11.1167 7.11452 11.0805 6.93266C11.0443 6.7508 11.0629 6.5623 11.1338 6.391C11.2048 6.21969 11.325 6.07327 11.4791 5.97026C11.6333 5.86725 11.8146 5.81226 12 5.81226C12.2486 5.81226 12.4871 5.91104 12.6629 6.08685C12.8387 6.26267 12.9375 6.50112 12.9375 6.74976ZM13.5 13.6873C13.3146 13.6873 13.1333 13.6323 12.9791 13.5293C12.825 13.4263 12.7048 13.2798 12.6338 13.1085C12.5629 12.9372 12.5443 12.7487 12.5805 12.5669C12.6167 12.385 12.706 12.218 12.8371 12.0869C12.9682 11.9557 13.1352 11.8665 13.3171 11.8303C13.4989 11.7941 13.6874 11.8127 13.8587 11.8836C14.0301 11.9546 14.1765 12.0747 14.2795 12.2289C14.3825 12.3831 14.4375 12.5643 14.4375 12.7498C14.4375 12.9984 14.3387 13.2369 14.1629 13.4127C13.9871 13.5885 13.7486 13.6873 13.5 13.6873Z" fill="white"/>
</svg>
