<svg width="24" height="24" viewBox="0 0 24 24" fill="none" xmlns="http://www.w3.org/2000/svg">
<path d="M17.8125 10.875C17.8125 11.0604 17.7575 11.2417 17.6545 11.3958C17.5515 11.55 17.4051 11.6702 17.2338 11.7411C17.0625 11.8121 16.874 11.8307 16.6921 11.7945C16.5102 11.7583 16.3432 11.669 16.2121 11.5379C16.081 11.4068 15.9917 11.2398 15.9555 11.0579C15.9193 10.876 15.9379 10.6875 16.0089 10.5162C16.0798 10.3449 16.2 10.1985 16.3542 10.0955C16.5083 9.99248 16.6896 9.9375 16.875 9.9375C17.1236 9.9375 17.3621 10.0363 17.5379 10.2121C17.7137 10.3879 17.8125 10.6264 17.8125 10.875ZM14.25 6.1875H10.5C10.3508 6.1875 10.2077 6.24676 10.1023 6.35225C9.99676 6.45774 9.9375 6.60082 9.9375 6.75C9.9375 6.89918 9.99676 7.04226 10.1023 7.14775C10.2077 7.25324 10.3508 7.3125 10.5 7.3125H14.25C14.3992 7.3125 14.5423 7.25324 14.6477 7.14775C14.7532 7.04226 14.8125 6.89918 14.8125 6.75C14.8125 6.60082 14.7532 6.45774 14.6477 6.35225C14.5423 6.24676 14.3992 6.1875 14.25 6.1875ZM23.0625 10.5V13.5C23.0625 14.047 22.8452 14.5716 22.4584 14.9584C22.0716 15.3452 21.547 15.5625 21 15.5625H20.6466L19.0828 19.9416C18.9917 20.1966 18.824 20.4171 18.6026 20.5731C18.3812 20.729 18.117 20.8126 17.8463 20.8125H16.6537C16.383 20.8126 16.1188 20.729 15.8974 20.5731C15.676 20.4171 15.5083 20.1966 15.4172 19.9416L15.1931 19.3125H9.55688L9.33281 19.9416C9.24172 20.1966 9.07398 20.4171 8.8526 20.5731C8.63122 20.729 8.36703 20.8126 8.09625 20.8125H6.90375C6.63297 20.8126 6.36878 20.729 6.1474 20.5731C5.92602 20.4171 5.75829 20.1966 5.66719 19.9416L4.4775 16.6106C3.31079 15.3022 2.60394 13.6481 2.46469 11.9006C2.12925 12.0128 1.83754 12.2276 1.63079 12.5146C1.42404 12.8016 1.3127 13.1463 1.3125 13.5C1.3125 13.6492 1.25324 13.7923 1.14775 13.8977C1.04226 14.0032 0.899184 14.0625 0.75 14.0625C0.600816 14.0625 0.457742 14.0032 0.352252 13.8977C0.246763 13.7923 0.1875 13.6492 0.1875 13.5C0.187544 12.8486 0.413666 12.2175 0.827264 11.7143C1.24086 11.2111 1.81629 10.8671 2.45531 10.7409C2.58693 8.69594 3.49142 6.77754 4.98534 5.37485C6.47926 3.97215 8.45077 3.19017 10.5 3.1875H20.25C20.3992 3.1875 20.5423 3.24676 20.6477 3.35225C20.7532 3.45774 20.8125 3.60082 20.8125 3.75C20.8125 3.89918 20.7532 4.04226 20.6477 4.14775C20.5423 4.25324 20.3992 4.3125 20.25 4.3125H17.6081C19.0724 5.1783 20.2249 6.48544 20.9006 8.04656C20.9569 8.17594 21.0094 8.30625 21.0581 8.43844C21.5948 8.45357 22.1045 8.6774 22.4788 9.06237C22.8531 9.44733 23.0625 9.96308 23.0625 10.5ZM21.9375 10.5C21.9375 10.2514 21.8387 10.0129 21.6629 9.83709C21.4871 9.66127 21.2486 9.5625 21 9.5625H20.6569C20.5371 9.56263 20.4204 9.5245 20.3237 9.45368C20.2271 9.38286 20.1556 9.28303 20.1197 9.16875C20.0481 8.93972 19.9642 8.71471 19.8684 8.49469C19.3308 7.25224 18.4413 6.19426 17.3097 5.45113C16.1781 4.708 14.8538 4.3122 13.5 4.3125H10.5C9.15354 4.31237 7.83613 4.70406 6.70846 5.43981C5.58079 6.17556 4.69159 7.22356 4.14932 8.456C3.60705 9.68844 3.43513 11.052 3.65455 12.3805C3.87397 13.709 4.47523 14.9449 5.385 15.9375C5.43546 15.9916 5.47438 16.0554 5.49937 16.125L6.72656 19.56C6.73909 19.5971 6.76291 19.6293 6.79469 19.6522C6.82647 19.6751 6.8646 19.6874 6.90375 19.6875H8.09625C8.13506 19.6876 8.17294 19.6757 8.20468 19.6533C8.23641 19.631 8.26044 19.5994 8.27344 19.5628L8.63062 18.5625C8.66936 18.4529 8.74109 18.3581 8.83593 18.2909C8.93078 18.2238 9.0441 18.1876 9.16031 18.1875H15.5897C15.7059 18.1876 15.8192 18.2238 15.9141 18.2909C16.0089 18.3581 16.0806 18.4529 16.1194 18.5625L16.4766 19.5647C16.4896 19.6013 16.5136 19.6329 16.5453 19.6552C16.5771 19.6775 16.6149 19.6895 16.6537 19.6894H17.8463C17.8851 19.6895 17.9229 19.6775 17.9547 19.6552C17.9864 19.6329 18.0104 19.6013 18.0234 19.5647L19.7203 14.8125C19.7591 14.7029 19.8308 14.6081 19.9256 14.5409C20.0205 14.4738 20.1338 14.4376 20.25 14.4375H21C21.2486 14.4375 21.4871 14.3387 21.6629 14.1629C21.8387 13.9871 21.9375 13.7486 21.9375 13.5V10.5Z" fill="white"/>
</svg>
