<svg width="30" height="6" viewBox="0 0 30 6" fill="none" xmlns="http://www.w3.org/2000/svg">
<path d="M-1.22349e-05 2.6832C-1.22349e-05 4.16511 1.20131 5.36643 2.68322 5.36643C4.16513 5.36643 5.36646 4.16511 5.36646 2.6832C5.36646 1.20129 4.16513 -3.76643e-05 2.68322 -3.76643e-05C1.20131 -3.76643e-05 -1.22349e-05 1.20129 -1.22349e-05 2.6832ZM29.4969 3.18618C29.7747 3.18618 30 2.96093 30 2.68307C30 2.40521 29.7747 2.17996 29.4969 2.17996L29.4969 2.68307L29.4969 3.18618ZM4.9177 3.18629C5.19555 3.18629 5.4208 2.96104 5.4208 2.68318C5.4208 2.40533 5.19555 2.18008 4.91769 2.18008L4.91769 2.68319L4.9177 3.18629ZM9.38663 2.18006C9.10877 2.18006 8.88353 2.40531 8.88353 2.68317C8.88353 2.96103 9.10878 3.18627 9.38664 3.18627L9.38664 2.68317L9.38663 2.18006ZM13.8556 3.18625C14.1334 3.18625 14.3587 2.961 14.3587 2.68314C14.3587 2.40528 14.1334 2.18004 13.8556 2.18004L13.8556 2.68314L13.8556 3.18625ZM18.3245 2.18002C18.0467 2.18002 17.8214 2.40527 17.8214 2.68313C17.8214 2.96098 18.0467 3.18623 18.3245 3.18623L18.3245 2.68312L18.3245 2.18002ZM22.7935 3.18621C23.0713 3.18621 23.2966 2.96096 23.2966 2.6831C23.2966 2.40524 23.0713 2.17999 22.7935 2.18L22.7935 2.6831L22.7935 3.18621ZM27.2624 2.17998C26.9845 2.17998 26.7593 2.40523 26.7593 2.68308C26.7593 2.96094 26.9845 3.18619 27.2624 3.18619L27.2624 2.68308L27.2624 2.17998ZM2.68322 2.6832L2.68322 3.1863L4.9177 3.18629L4.91769 2.68319L4.91769 2.18008L2.68322 2.18009L2.68322 2.6832ZM9.38664 2.68317L9.38664 3.18627L13.8556 3.18625L13.8556 2.68314L13.8556 2.18004L9.38663 2.18006L9.38664 2.68317ZM18.3245 2.68312L18.3245 3.18623L22.7935 3.18621L22.7935 2.6831L22.7935 2.18L18.3245 2.18002L18.3245 2.68312ZM27.2624 2.68308L27.2624 3.18619L29.4969 3.18618L29.4969 2.68307L29.4969 2.17996L27.2624 2.17998L27.2624 2.68308Z" fill="#79B3FF"/>
</svg>
