<svg width="181" height="154" viewBox="0 0 181 154" fill="none" xmlns="http://www.w3.org/2000/svg">
<path d="M-1.02649e-05 2.66985C-1.02649e-05 4.14445 1.19539 5.33986 2.67 5.33986C4.14461 5.33986 5.34001 4.14445 5.34001 2.66985C5.34001 1.19524 4.14461 -0.000163044 2.67 -0.000163044C1.19539 -0.000163044 -1.02649e-05 1.19524 -1.02649e-05 2.66985ZM180.853 150.058C181.049 149.863 181.049 149.546 180.853 149.35L177.667 146.164C177.472 145.969 177.155 145.969 176.959 146.164C176.764 146.36 176.764 146.677 176.959 146.872L179.791 149.704L176.959 152.536C176.764 152.732 176.764 153.049 176.959 153.244C177.155 153.44 177.472 153.44 177.667 153.244L180.853 150.058ZM4.70426 3.17047C4.98074 3.17047 5.20488 2.94634 5.20488 2.66985C5.20488 2.39336 4.98074 2.16922 4.70426 2.16922V2.66985V3.17047ZM8.77277 2.16922C8.49628 2.16922 8.27214 2.39336 8.27214 2.66985C8.27214 2.94634 8.49628 3.17047 8.77277 3.17047V2.66985V2.16922ZM12.8413 3.17047C13.1178 3.17047 13.3419 2.94634 13.3419 2.66985C13.3419 2.39336 13.1178 2.16922 12.8413 2.16922V2.66985V3.17047ZM16.9098 2.16922C16.6333 2.16922 16.4092 2.39336 16.4092 2.66985C16.4092 2.94634 16.6333 3.17047 16.9098 3.17047V2.66985V2.16922ZM20.9783 3.17047C21.2548 3.17047 21.4789 2.94634 21.4789 2.66985C21.4789 2.39336 21.2548 2.16922 20.9783 2.16922V2.66985V3.17047ZM25.0468 2.16922C24.7703 2.16922 24.5462 2.39336 24.5462 2.66985C24.5462 2.94634 24.7703 3.17047 25.0468 3.17047V2.66985V2.16922ZM29.1153 3.17047C29.3918 3.17047 29.616 2.94634 29.616 2.66985C29.616 2.39336 29.3918 2.16922 29.1153 2.16922V2.66985V3.17047ZM33.1838 2.16922C32.9074 2.16922 32.6832 2.39336 32.6832 2.66985C32.6832 2.94634 32.9074 3.17047 33.1838 3.17047V2.66985V2.16922ZM37.2524 3.17047C37.5288 3.17047 37.753 2.94634 37.753 2.66985C37.753 2.39336 37.5288 2.16922 37.2524 2.16922V2.66985V3.17047ZM41.3209 2.16922C41.0444 2.16922 40.8202 2.39336 40.8202 2.66985C40.8202 2.94634 41.0444 3.17047 41.3209 3.17047V2.66985V2.16922ZM45.3894 3.17047C45.6659 3.17047 45.89 2.94634 45.89 2.66985C45.89 2.39336 45.6659 2.16922 45.3894 2.16922V2.66985V3.17047ZM49.4579 2.16922C49.1814 2.16922 48.9573 2.39336 48.9573 2.66985C48.9573 2.94634 49.1814 3.17047 49.4579 3.17047V2.66985V2.16922ZM53.5264 3.17047C53.8029 3.17047 54.027 2.94634 54.027 2.66985C54.027 2.39336 53.8029 2.16922 53.5264 2.16922V2.66985V3.17047ZM57.5949 2.16922C57.3184 2.16922 57.0943 2.39336 57.0943 2.66985C57.0943 2.94634 57.3184 3.17047 57.5949 3.17047V2.66985V2.16922ZM61.6634 3.17047C61.9399 3.17047 62.1641 2.94634 62.1641 2.66985C62.1641 2.39336 61.9399 2.16922 61.6634 2.16922V2.66985V3.17047ZM65.732 2.16922C65.4555 2.16922 65.2313 2.39336 65.2313 2.66985C65.2313 2.94634 65.4555 3.17047 65.732 3.17047V2.66985V2.16922ZM69.8005 3.17047C70.077 3.17047 70.3011 2.94634 70.3011 2.66985C70.3011 2.39336 70.077 2.16922 69.8005 2.16922V2.66985V3.17047ZM73.869 2.16922C73.5925 2.16922 73.3683 2.39336 73.3683 2.66985C73.3683 2.94634 73.5925 3.17047 73.869 3.17047V2.66985V2.16922ZM77.9375 3.17047C78.214 3.17047 78.4381 2.94634 78.4381 2.66985C78.4381 2.39336 78.214 2.16922 77.9375 2.16922V2.66985V3.17047ZM82.006 2.16922C81.7295 2.16922 81.5054 2.39336 81.5054 2.66985C81.5054 2.94634 81.7295 3.17047 82.006 3.17047V2.66985V2.16922ZM86.0745 3.17047C86.351 3.17047 86.5751 2.94634 86.5751 2.66985C86.5751 2.39336 86.351 2.16922 86.0745 2.16922V2.66985V3.17047ZM90.143 2.16922C89.8665 2.16922 89.6424 2.39336 89.6424 2.66985C89.6424 2.94634 89.8665 3.17047 90.143 3.17047V2.66985V2.16922ZM94.2115 3.17047C94.488 3.17047 94.7122 2.94634 94.7122 2.66985C94.7122 2.39336 94.488 2.16922 94.2115 2.16922V2.66985V3.17047ZM98.28 2.16922C98.0036 2.16922 97.7794 2.39336 97.7794 2.66985C97.7794 2.94634 98.0036 3.17047 98.28 3.17047V2.66985V2.16922ZM102.349 3.17047C102.625 3.17047 102.849 2.94634 102.849 2.66985C102.849 2.39336 102.625 2.16922 102.349 2.16922V2.66985V3.17047ZM106.417 2.16922C106.141 2.16922 105.916 2.39336 105.916 2.66985C105.916 2.94634 106.141 3.17047 106.417 3.17047V2.66985V2.16922ZM110.486 3.17047C110.762 3.17047 110.986 2.94634 110.986 2.66985C110.986 2.39336 110.762 2.16922 110.486 2.16922V2.66985V3.17047ZM114.554 2.16922C114.278 2.16922 114.053 2.39336 114.053 2.66985C114.053 2.94634 114.278 3.17047 114.554 3.17047V2.66985V2.16922ZM118.623 3.17047C118.899 3.17047 119.123 2.94634 119.123 2.66985C119.123 2.39336 118.899 2.16922 118.623 2.16922V2.66985V3.17047ZM122.691 2.16922C122.415 2.16922 122.19 2.39336 122.19 2.66985C122.19 2.94634 122.415 3.17047 122.691 3.17047V2.66985V2.16922ZM126.76 3.17047C127.036 3.17047 127.26 2.94634 127.26 2.66985C127.26 2.39336 127.036 2.16922 126.76 2.16922V2.66985V3.17047ZM130.828 2.16922C130.552 2.16922 130.327 2.39336 130.327 2.66985C130.327 2.94634 130.552 3.17047 130.828 3.17047V2.66985V2.16922ZM134.897 3.17047C135.173 3.17047 135.397 2.94634 135.397 2.66985C135.397 2.39336 135.173 2.16922 134.897 2.16922V2.66985V3.17047ZM138.965 2.16922C138.689 2.16922 138.465 2.39336 138.465 2.66985C138.465 2.94634 138.689 3.17047 138.965 3.17047V2.66985V2.16922ZM143.034 3.17047C143.31 3.17047 143.534 2.94634 143.534 2.66985C143.534 2.39336 143.31 2.16922 143.034 2.16922V2.66985V3.17047ZM147.102 2.16922C146.826 2.16922 146.602 2.39336 146.602 2.66985C146.602 2.94634 146.826 3.17047 147.102 3.17047V2.66985V2.16922ZM150.478 3.43619C150.733 3.5421 151.026 3.42092 151.132 3.16552C151.238 2.91012 151.117 2.61722 150.861 2.51131L150.67 2.97375L150.478 3.43619ZM153.3 4.95003C153.194 4.69463 152.901 4.57344 152.646 4.67935C152.39 4.78526 152.269 5.07816 152.375 5.33356L152.838 5.14179L153.3 4.95003ZM152.641 8.71934C152.641 8.99582 152.865 9.21996 153.141 9.21996C153.418 9.21996 153.642 8.99582 153.642 8.71934H153.141H152.641ZM153.642 12.8083C153.642 12.5318 153.418 12.3077 153.141 12.3077C152.865 12.3077 152.641 12.5318 152.641 12.8083H153.141H153.642ZM152.641 16.8972C152.641 17.1737 152.865 17.3979 153.141 17.3979C153.418 17.3979 153.642 17.1737 153.642 16.8972H153.141H152.641ZM153.642 20.9862C153.642 20.7097 153.418 20.4855 153.141 20.4855C152.865 20.4855 152.641 20.7097 152.641 20.9862H153.141H153.642ZM152.641 25.0751C152.641 25.3516 152.865 25.5757 153.141 25.5757C153.418 25.5757 153.642 25.3516 153.642 25.0751H153.141H152.641ZM153.642 29.1641C153.642 28.8876 153.418 28.6634 153.141 28.6634C152.865 28.6634 152.641 28.8876 152.641 29.1641H153.141H153.642ZM152.641 33.253C152.641 33.5295 152.865 33.7536 153.141 33.7536C153.418 33.7536 153.642 33.5295 153.642 33.253H153.141H152.641ZM153.642 37.342C153.642 37.0655 153.418 36.8413 153.141 36.8413C152.865 36.8413 152.641 37.0655 152.641 37.342H153.141H153.642ZM152.641 41.4309C152.641 41.7074 152.865 41.9315 153.141 41.9315C153.418 41.9315 153.642 41.7074 153.642 41.4309H153.141H152.641ZM153.642 45.5199C153.642 45.2434 153.418 45.0192 153.141 45.0192C152.865 45.0192 152.641 45.2434 152.641 45.5199H153.141H153.642ZM152.641 49.6088C152.641 49.8853 152.865 50.1094 153.141 50.1094C153.418 50.1094 153.642 49.8853 153.642 49.6088H153.141H152.641ZM153.642 53.6978C153.642 53.4213 153.418 53.1971 153.141 53.1971C152.865 53.1971 152.641 53.4213 152.641 53.6978H153.141H153.642ZM152.641 57.7867C152.641 58.0632 152.865 58.2873 153.141 58.2873C153.418 58.2873 153.642 58.0632 153.642 57.7867H153.141H152.641ZM153.642 61.8756C153.642 61.5992 153.418 61.375 153.141 61.375C152.865 61.375 152.641 61.5992 152.641 61.8756H153.141H153.642ZM152.641 65.9646C152.641 66.2411 152.865 66.4652 153.141 66.4652C153.418 66.4652 153.642 66.2411 153.642 65.9646H153.141H152.641ZM153.642 70.0535C153.642 69.7771 153.418 69.5529 153.141 69.5529C152.865 69.5529 152.641 69.7771 152.641 70.0535H153.141H153.642ZM152.641 74.1425C152.641 74.419 152.865 74.6431 153.141 74.6431C153.418 74.6431 153.642 74.419 153.642 74.1425H153.141H152.641ZM153.642 78.2314C153.642 77.9549 153.418 77.7308 153.141 77.7308C152.865 77.7308 152.641 77.9549 152.641 78.2314H153.141H153.642ZM152.641 82.3204C152.641 82.5969 152.865 82.821 153.141 82.821C153.418 82.821 153.642 82.5969 153.642 82.3204H153.141H152.641ZM153.642 86.4093C153.642 86.1328 153.418 85.9087 153.141 85.9087C152.865 85.9087 152.641 86.1328 152.641 86.4093H153.141H153.642ZM152.641 90.4983C152.641 90.7748 152.865 90.9989 153.141 90.9989C153.418 90.9989 153.642 90.7748 153.642 90.4983H153.141H152.641ZM153.642 94.5872C153.642 94.3107 153.418 94.0866 153.141 94.0866C152.865 94.0866 152.641 94.3107 152.641 94.5872H153.141H153.642ZM152.641 98.6762C152.641 98.9526 152.865 99.1768 153.141 99.1768C153.418 99.1768 153.642 98.9526 153.642 98.6762H153.141H152.641ZM153.642 102.765C153.642 102.489 153.418 102.264 153.141 102.264C152.865 102.264 152.641 102.489 152.641 102.765H153.141H153.642ZM152.641 106.854C152.641 107.131 152.865 107.355 153.141 107.355C153.418 107.355 153.642 107.131 153.642 106.854H153.141H152.641ZM153.642 110.943C153.642 110.667 153.418 110.442 153.141 110.442C152.865 110.442 152.641 110.667 152.641 110.943H153.141H153.642ZM152.641 115.032C152.641 115.308 152.865 115.533 153.141 115.533C153.418 115.533 153.642 115.308 153.642 115.032H153.141H152.641ZM153.642 119.121C153.642 118.844 153.418 118.62 153.141 118.62C152.865 118.62 152.641 118.844 152.641 119.121H153.141H153.642ZM152.641 123.21C152.641 123.486 152.865 123.71 153.141 123.71C153.418 123.71 153.642 123.486 153.642 123.21H153.141H152.641ZM153.642 127.299C153.642 127.022 153.418 126.798 153.141 126.798C152.865 126.798 152.641 127.022 152.641 127.299H153.141H153.642ZM152.641 131.388C152.641 131.664 152.865 131.888 153.141 131.888C153.418 131.888 153.642 131.664 153.642 131.388H153.141H152.641ZM153.642 135.477C153.642 135.2 153.418 134.976 153.141 134.976C152.865 134.976 152.641 135.2 152.641 135.477H153.141H153.642ZM152.641 139.566C152.641 139.842 152.865 140.066 153.141 140.066C153.418 140.066 153.642 139.842 153.642 139.566H153.141H152.641ZM153.642 143.655C153.642 143.378 153.418 143.154 153.141 143.154C152.865 143.154 152.641 143.378 152.641 143.655H153.141H153.642ZM152.983 147.424C153.089 147.679 153.382 147.8 153.637 147.695C153.893 147.589 154.014 147.296 153.908 147.04L153.445 147.232L152.983 147.424ZM155.805 148.938C155.55 148.832 155.257 148.953 155.151 149.208C155.045 149.464 155.166 149.757 155.422 149.863L155.613 149.4L155.805 148.938ZM159.093 150.205C159.369 150.205 159.593 149.981 159.593 149.704C159.593 149.428 159.369 149.203 159.093 149.203V149.704V150.205ZM162.985 149.203C162.708 149.203 162.484 149.428 162.484 149.704C162.484 149.981 162.708 150.205 162.985 150.205V149.704V149.203ZM166.877 150.205C167.153 150.205 167.377 149.981 167.377 149.704C167.377 149.428 167.153 149.203 166.877 149.203V149.704V150.205ZM170.769 149.203C170.493 149.203 170.268 149.428 170.268 149.704C170.268 149.981 170.493 150.205 170.769 150.205V149.704V149.203ZM174.661 150.205C174.938 150.205 175.162 149.981 175.162 149.704C175.162 149.428 174.938 149.203 174.661 149.203V149.704V150.205ZM178.553 149.203C178.277 149.203 178.053 149.428 178.053 149.704C178.053 149.981 178.277 150.205 178.553 150.205V149.704V149.203ZM2.67 2.66985V3.17047H4.70426V2.66985V2.16922H2.67V2.66985ZM8.77277 2.66985V3.17047H12.8413V2.66985V2.16922H8.77277V2.66985ZM16.9098 2.66985V3.17047H20.9783V2.66985V2.16922H16.9098V2.66985ZM25.0468 2.66985V3.17047H29.1153V2.66985V2.16922H25.0468V2.66985ZM33.1838 2.66985V3.17047H37.2524V2.66985V2.16922H33.1838V2.66985ZM41.3209 2.66985V3.17047H45.3894V2.66985V2.16922H41.3209V2.66985ZM49.4579 2.66985V3.17047H53.5264V2.66985V2.16922H49.4579V2.66985ZM57.5949 2.66985V3.17047H61.6634V2.66985V2.16922H57.5949V2.66985ZM65.732 2.66985V3.17047H69.8005V2.66985V2.16922H65.732V2.66985ZM73.869 2.66985V3.17047H77.9375V2.66985V2.16922H73.869V2.66985ZM82.006 2.66985V3.17047H86.0745V2.66985V2.16922H82.006V2.66985ZM90.143 2.66985V3.17047H94.2115V2.66985V2.16922H90.143V2.66985ZM98.28 2.66985V3.17047H102.349V2.66985V2.16922H98.28V2.66985ZM106.417 2.66985V3.17047H110.486V2.66985V2.16922H106.417V2.66985ZM114.554 2.66985V3.17047H118.623V2.66985V2.16922H114.554V2.66985ZM122.691 2.66985V3.17047H126.76V2.66985V2.16922H122.691V2.66985ZM130.828 2.66985V3.17047H134.897V2.66985V2.16922H130.828V2.66985ZM138.965 2.66985V3.17047H143.034V2.66985V2.16922H138.965V2.66985ZM147.102 2.66985V3.17047H149.136V2.66985V2.16922H147.102V2.66985ZM149.136 2.66985V3.17047C149.613 3.17047 150.065 3.26514 150.478 3.43619L150.67 2.97375L150.861 2.51131C150.329 2.29072 149.746 2.16922 149.136 2.16922V2.66985ZM152.838 5.14179L152.375 5.33356C152.546 5.74606 152.641 6.19877 152.641 6.67486H153.141H153.642C153.642 6.06486 153.521 5.48197 153.3 4.95003L152.838 5.14179ZM153.141 6.67486H152.641V8.71934H153.141H153.642V6.67486H153.141ZM153.141 12.8083H152.641V16.8972H153.141H153.642V12.8083H153.141ZM153.141 20.9862H152.641V25.0751H153.141H153.642V20.9862H153.141ZM153.141 29.1641H152.641V33.253H153.141H153.642V29.1641H153.141ZM153.141 37.342H152.641V41.4309H153.141H153.642V37.342H153.141ZM153.141 45.5199H152.641V49.6088H153.141H153.642V45.5199H153.141ZM153.141 53.6978H152.641V57.7867H153.141H153.642V53.6978H153.141ZM153.141 61.8756H152.641V65.9646H153.141H153.642V61.8756H153.141ZM153.141 70.0535H152.641V74.1425H153.141H153.642V70.0535H153.141ZM153.141 78.2314H152.641V82.3204H153.141H153.642V78.2314H153.141ZM153.141 86.4093H152.641V90.4983H153.141H153.642V86.4093H153.141ZM153.141 94.5872H152.641V98.6762H153.141H153.642V94.5872H153.141ZM153.141 102.765H152.641V106.854H153.141H153.642V102.765H153.141ZM153.141 110.943H152.641V115.032H153.141H153.642V110.943H153.141ZM153.141 119.121H152.641V123.21H153.141H153.642V119.121H153.141ZM153.141 127.299H152.641V131.388H153.141H153.642V127.299H153.141ZM153.141 135.477H152.641V139.566H153.141H153.642V135.477H153.141ZM153.141 143.655H152.641V145.699H153.141H153.642V143.655H153.141ZM153.141 145.699H152.641C152.641 146.309 152.762 146.892 152.983 147.424L153.445 147.232L153.908 147.04C153.737 146.628 153.642 146.175 153.642 145.699H153.141ZM155.613 149.4L155.422 149.863C155.954 150.083 156.536 150.205 157.146 150.205V149.704V149.203C156.67 149.203 156.218 149.109 155.805 148.938L155.613 149.4ZM157.146 149.704V150.205H159.093V149.704V149.203H157.146V149.704ZM162.985 149.704V150.205H166.877V149.704V149.203H162.985V149.704ZM170.769 149.704V150.205H174.661V149.704V149.203H170.769V149.704ZM178.553 149.704V150.205H180.499V149.704V149.203H178.553V149.704Z" fill="#79B3FF"/>
</svg>
