<svg width="96" height="6" viewBox="0 0 96 6" fill="none" xmlns="http://www.w3.org/2000/svg">
<path d="M-1.03416e-05 2.69012C-1.03416e-05 4.17574 1.20433 5.38008 2.68996 5.38008C4.17559 5.38008 5.37993 4.17574 5.37993 2.69012C5.37993 1.20449 4.17559 0.000145985 2.68996 0.000145985C1.20433 0.000145985 -1.03416e-05 1.20449 -1.03416e-05 2.69012ZM95.4956 3.1943C95.7742 3.1943 96 2.96849 96 2.68993C96 2.41138 95.7742 2.18556 95.4956 2.18556V2.68993V3.1943ZM4.62341 3.19448C4.90197 3.19448 5.12778 2.96867 5.12778 2.69011C5.12778 2.41156 4.90197 2.18574 4.62341 2.18574L4.62341 2.69011L4.62341 3.19448ZM8.49031 2.18573C8.21176 2.18574 7.98594 2.41155 7.98594 2.6901C7.98595 2.96866 8.21176 3.19447 8.49032 3.19447L8.49031 2.6901L8.49031 2.18573ZM12.3572 3.19447C12.6358 3.19446 12.8616 2.96865 12.8616 2.6901C12.8616 2.41154 12.6358 2.18573 12.3572 2.18573L12.3572 2.6901L12.3572 3.19447ZM16.2241 2.18572C15.9456 2.18572 15.7198 2.41153 15.7198 2.69009C15.7198 2.96865 15.9456 3.19446 16.2241 3.19446L16.2241 2.69009L16.2241 2.18572ZM20.091 3.19445C20.3696 3.19445 20.5954 2.96864 20.5954 2.69008C20.5954 2.41152 20.3696 2.18571 20.091 2.18571L20.091 2.69008V3.19445ZM23.9579 2.1857C23.6794 2.1857 23.4536 2.41152 23.4536 2.69007C23.4536 2.96863 23.6794 3.19444 23.9579 3.19444L23.9579 2.69007V2.1857ZM27.8248 3.19443C28.1034 3.19443 28.3292 2.96862 28.3292 2.69006C28.3292 2.41151 28.1034 2.1857 27.8248 2.1857L27.8248 2.69007V3.19443ZM31.6917 2.18569C31.4132 2.18569 31.1874 2.4115 31.1874 2.69006C31.1874 2.96861 31.4132 3.19443 31.6917 3.19443L31.6917 2.69006V2.18569ZM35.5586 3.19442C35.8372 3.19442 36.063 2.9686 36.063 2.69005C36.063 2.41149 35.8372 2.18568 35.5586 2.18568V2.69005V3.19442ZM39.4255 2.18567C39.147 2.18567 38.9212 2.41149 38.9212 2.69004C38.9212 2.9686 39.147 3.19441 39.4255 3.19441V2.69004V2.18567ZM43.2924 3.1944C43.571 3.1944 43.7968 2.96859 43.7968 2.69003C43.7968 2.41148 43.571 2.18567 43.2924 2.18567V2.69003V3.1944ZM47.1593 2.18566C46.8808 2.18566 46.655 2.41147 46.655 2.69003C46.655 2.96858 46.8808 3.1944 47.1593 3.1944V2.69003L47.1593 2.18566ZM51.0263 3.19439C51.3048 3.19439 51.5306 2.96857 51.5306 2.69002C51.5306 2.41146 51.3048 2.18565 51.0262 2.18565L51.0263 2.69002V3.19439ZM54.8932 2.18564C54.6146 2.18564 54.3888 2.41146 54.3888 2.69001C54.3888 2.96857 54.6146 3.19438 54.8932 3.19438V2.69001V2.18564ZM58.7601 3.19437C59.0386 3.19437 59.2644 2.96856 59.2644 2.69C59.2644 2.41145 59.0386 2.18563 58.7601 2.18564L58.7601 2.69V3.19437ZM62.627 2.18563C62.3484 2.18563 62.1226 2.41144 62.1226 2.69C62.1226 2.96855 62.3484 3.19437 62.627 3.19437V2.69V2.18563ZM66.4939 3.19436C66.7724 3.19436 66.9982 2.96854 66.9982 2.68999C66.9982 2.41143 66.7724 2.18562 66.4939 2.18562V2.68999L66.4939 3.19436ZM70.3608 2.18561C70.0822 2.18561 69.8564 2.41143 69.8564 2.68998C69.8564 2.96854 70.0822 3.19435 70.3608 3.19435V2.68998V2.18561ZM74.2277 3.19434C74.5062 3.19434 74.732 2.96853 74.732 2.68997C74.732 2.41142 74.5062 2.1856 74.2277 2.1856V2.68997V3.19434ZM78.0946 2.1856C77.816 2.1856 77.5902 2.41141 77.5902 2.68997C77.5902 2.96852 77.816 3.19434 78.0946 3.19434V2.68997V2.1856ZM81.9615 3.19433C82.24 3.19433 82.4658 2.96851 82.4658 2.68996C82.4658 2.4114 82.24 2.18559 81.9615 2.18559V2.68996V3.19433ZM85.8284 2.18558C85.5498 2.18558 85.324 2.4114 85.324 2.68995C85.324 2.96851 85.5498 3.19432 85.8284 3.19432V2.68995V2.18558ZM89.6953 3.19431C89.9738 3.19431 90.1997 2.9685 90.1997 2.68994C90.1997 2.41139 89.9738 2.18557 89.6953 2.18557V2.68994V3.19431ZM93.5622 2.18557C93.2836 2.18557 93.0578 2.41138 93.0578 2.68994C93.0578 2.96849 93.2836 3.19431 93.5622 3.1943V2.68994V2.18557ZM2.68996 2.69012L2.68996 3.19448L4.62341 3.19448L4.62341 2.69011L4.62341 2.18574L2.68996 2.18575L2.68996 2.69012ZM8.49031 2.6901L8.49032 3.19447L12.3572 3.19447L12.3572 2.6901L12.3572 2.18573L8.49031 2.18573L8.49031 2.6901ZM16.2241 2.69009L16.2241 3.19446L20.091 3.19445V2.69008L20.091 2.18571L16.2241 2.18572L16.2241 2.69009ZM23.9579 2.69007L23.9579 3.19444L27.8248 3.19443V2.69007L27.8248 2.1857L23.9579 2.1857V2.69007ZM31.6917 2.69006L31.6917 3.19443L35.5586 3.19442V2.69005V2.18568L31.6917 2.18569V2.69006ZM39.4255 2.69004V3.19441L43.2924 3.1944V2.69003V2.18567L39.4255 2.18567V2.69004ZM47.1593 2.69003V3.1944L51.0263 3.19439V2.69002L51.0262 2.18565L47.1593 2.18566L47.1593 2.69003ZM54.8932 2.69001V3.19438L58.7601 3.19437V2.69L58.7601 2.18564L54.8932 2.18564V2.69001ZM62.627 2.69V3.19437L66.4939 3.19436L66.4939 2.68999V2.18562L62.627 2.18563V2.69ZM70.3608 2.68998V3.19435L74.2277 3.19434V2.68997V2.1856L70.3608 2.18561V2.68998ZM78.0946 2.68997V3.19434L81.9615 3.19433V2.68996V2.18559L78.0946 2.1856V2.68997ZM85.8284 2.68995V3.19432L89.6953 3.19431V2.68994V2.18557L85.8284 2.18558V2.68995ZM93.5622 2.68994V3.1943L95.4956 3.1943V2.68993V2.18556L93.5622 2.18557V2.68994Z" fill="#79B3FF"/>
</svg>
