<svg width="163" height="163" viewBox="0 0 163 163" fill="none" xmlns="http://www.w3.org/2000/svg">
<path d="M-1.03138e-05 160.316C-1.03138e-05 158.834 1.20109 157.633 2.68273 157.633C4.16437 157.633 5.36547 158.834 5.36547 160.316C5.36547 161.797 4.16437 162.998 2.68273 162.998C1.20109 162.998 -1.03138e-05 161.797 -1.03138e-05 160.316ZM162.853 3.34863C163.049 3.54508 163.049 3.86357 162.853 4.06L159.652 7.26117C159.455 7.4576 159.137 7.4576 158.94 7.26117C158.744 7.06473 158.744 6.74623 158.94 6.5498L161.786 3.70432L158.94 0.858845C158.744 0.662401 158.744 0.343919 158.94 0.147475C159.137 -0.0489689 159.455 -0.0489689 159.652 0.147475L162.853 3.34863ZM4.6909 159.813C4.96871 159.813 5.19392 160.038 5.19392 160.316C5.19392 160.593 4.96871 160.819 4.6909 160.819V160.316V159.813ZM8.70725 160.819C8.42945 160.819 8.20424 160.593 8.20424 160.316C8.20424 160.038 8.42945 159.813 8.70725 159.813V160.316V160.819ZM12.7236 159.813C13.0014 159.813 13.2266 160.038 13.2266 160.316C13.2266 160.593 13.0014 160.819 12.7236 160.819V160.316V159.813ZM16.74 160.819C16.4621 160.819 16.2369 160.593 16.2369 160.316C16.2369 160.038 16.4621 159.813 16.74 159.813V160.316V160.819ZM20.7563 159.813C21.0341 159.813 21.2593 160.038 21.2593 160.316C21.2593 160.593 21.0341 160.819 20.7563 160.819V160.316V159.813ZM24.7726 160.819C24.4948 160.819 24.2696 160.593 24.2696 160.316C24.2696 160.038 24.4948 159.813 24.7726 159.813V160.316V160.819ZM28.789 159.813C29.0668 159.813 29.292 160.038 29.292 160.316C29.292 160.593 29.0668 160.819 28.789 160.819V160.316V159.813ZM32.8053 160.819C32.5275 160.819 32.3023 160.593 32.3023 160.316C32.3023 160.038 32.5275 159.813 32.8053 159.813V160.316V160.819ZM36.8217 159.813C37.0995 159.813 37.3247 160.038 37.3247 160.316C37.3247 160.593 37.0995 160.819 36.8217 160.819V160.316V159.813ZM40.838 160.819C40.5602 160.819 40.335 160.593 40.335 160.316C40.335 160.038 40.5602 159.813 40.838 159.813V160.316V160.819ZM44.8544 159.813C45.1322 159.813 45.3574 160.038 45.3574 160.316C45.3574 160.593 45.1322 160.819 44.8544 160.819V160.316V159.813ZM48.8707 160.819C48.5929 160.819 48.3677 160.593 48.3677 160.316C48.3677 160.038 48.5929 159.813 48.8707 159.813V160.316V160.819ZM52.8871 159.813C53.1649 159.813 53.3901 160.038 53.3901 160.316C53.3901 160.593 53.1649 160.819 52.8871 160.819V160.316V159.813ZM56.9034 160.819C56.6256 160.819 56.4004 160.593 56.4004 160.316C56.4004 160.038 56.6256 159.813 56.9034 159.813V160.316V160.819ZM60.9198 159.813C61.1976 159.813 61.4228 160.038 61.4228 160.316C61.4228 160.593 61.1976 160.819 60.9198 160.819V160.316V159.813ZM64.9361 160.819C64.6583 160.819 64.4331 160.593 64.4331 160.316C64.4331 160.038 64.6583 159.813 64.9361 159.813V160.316V160.819ZM68.9525 159.813C69.2303 159.813 69.4555 160.038 69.4555 160.316C69.4555 160.593 69.2303 160.819 68.9525 160.819V160.316V159.813ZM72.9688 160.819C72.691 160.819 72.4658 160.593 72.4658 160.316C72.4658 160.038 72.691 159.813 72.9688 159.813V160.316V160.819ZM76.9852 159.813C77.263 159.813 77.4882 160.038 77.4882 160.316C77.4882 160.593 77.263 160.819 76.9852 160.819V160.316V159.813ZM81.0015 160.819C80.7237 160.819 80.4985 160.593 80.4985 160.316C80.4985 160.038 80.7237 159.813 81.0015 159.813V160.316V160.819ZM85.0179 159.813C85.2957 159.813 85.5209 160.038 85.5209 160.316C85.5209 160.593 85.2957 160.819 85.0179 160.819V160.316V159.813ZM89.0342 160.819C88.7564 160.819 88.5312 160.593 88.5312 160.316C88.5312 160.038 88.7564 159.813 89.0342 159.813V160.316V160.819ZM93.0506 159.813C93.3284 159.813 93.5536 160.038 93.5536 160.316C93.5536 160.593 93.3284 160.819 93.0506 160.819V160.316V159.813ZM97.0669 160.819C96.7891 160.819 96.5639 160.593 96.5639 160.316C96.5639 160.038 96.7891 159.813 97.0669 159.813V160.316V160.819ZM101.083 159.813C101.361 159.813 101.586 160.038 101.586 160.316C101.586 160.593 101.361 160.819 101.083 160.819V160.316V159.813ZM105.1 160.819C104.822 160.819 104.597 160.593 104.597 160.316C104.597 160.038 104.822 159.813 105.1 159.813V160.316V160.819ZM109.116 159.813C109.394 159.813 109.619 160.038 109.619 160.316C109.619 160.593 109.394 160.819 109.116 160.819V160.316V159.813ZM113.132 160.819C112.855 160.819 112.629 160.593 112.629 160.316C112.629 160.038 112.855 159.813 113.132 159.813V160.316V160.819ZM117.149 159.813C117.427 159.813 117.652 160.038 117.652 160.316C117.652 160.593 117.427 160.819 117.149 160.819V160.316V159.813ZM121.165 160.819C120.887 160.819 120.662 160.593 120.662 160.316C120.662 160.038 120.887 159.813 121.165 159.813V160.316V160.819ZM125.181 159.813C125.459 159.813 125.684 160.038 125.684 160.316C125.684 160.593 125.459 160.819 125.181 160.819V160.316V159.813ZM129.198 160.819C128.92 160.819 128.695 160.593 128.695 160.316C128.695 160.038 128.92 159.813 129.198 159.813V160.316V160.819ZM132.554 159.546C132.81 159.439 133.105 159.561 133.211 159.818C133.317 160.074 133.196 160.368 132.939 160.475L132.746 160.01L132.554 159.546ZM135.389 158.025C135.283 158.281 134.989 158.403 134.732 158.296C134.475 158.19 134.354 157.896 134.46 157.639L134.925 157.832L135.389 158.025ZM134.727 154.228C134.727 153.95 134.952 153.725 135.23 153.725C135.508 153.725 135.733 153.95 135.733 154.228H135.23H134.727ZM135.733 150.101C135.733 150.379 135.508 150.604 135.23 150.604C134.952 150.604 134.727 150.379 134.727 150.101H135.23H135.733ZM134.727 145.975C134.727 145.697 134.952 145.472 135.23 145.472C135.508 145.472 135.733 145.697 135.733 145.975H135.23H134.727ZM135.733 141.848C135.733 142.126 135.508 142.351 135.23 142.351C134.952 142.351 134.727 142.126 134.727 141.848H135.23H135.733ZM134.727 137.721C134.727 137.443 134.952 137.218 135.23 137.218C135.508 137.218 135.733 137.443 135.733 137.721H135.23H134.727ZM135.733 133.594C135.733 133.872 135.508 134.097 135.23 134.097C134.952 134.097 134.727 133.872 134.727 133.594H135.23H135.733ZM134.727 129.468C134.727 129.19 134.952 128.965 135.23 128.965C135.508 128.965 135.733 129.19 135.733 129.468H135.23H134.727ZM135.733 125.341C135.733 125.619 135.508 125.844 135.23 125.844C134.952 125.844 134.727 125.619 134.727 125.341H135.23H135.733ZM134.727 121.214C134.727 120.936 134.952 120.711 135.23 120.711C135.508 120.711 135.733 120.936 135.733 121.214H135.23H134.727ZM135.733 117.087C135.733 117.365 135.508 117.59 135.23 117.59C134.952 117.59 134.727 117.365 134.727 117.087H135.23H135.733ZM134.727 112.961C134.727 112.683 134.952 112.458 135.23 112.458C135.508 112.458 135.733 112.683 135.733 112.961H135.23H134.727ZM135.733 108.834C135.733 109.112 135.508 109.337 135.23 109.337C134.952 109.337 134.727 109.112 134.727 108.834H135.23H135.733ZM134.727 104.707C134.727 104.429 134.952 104.204 135.23 104.204C135.508 104.204 135.733 104.429 135.733 104.707H135.23H134.727ZM135.733 100.58C135.733 100.858 135.508 101.083 135.23 101.083C134.952 101.083 134.727 100.858 134.727 100.58H135.23H135.733ZM134.727 96.4536C134.727 96.1757 134.952 95.9505 135.23 95.9505C135.508 95.9505 135.733 96.1757 135.733 96.4536H135.23H134.727ZM135.733 92.3268C135.733 92.6046 135.508 92.8298 135.23 92.8298C134.952 92.8298 134.727 92.6046 134.727 92.3268H135.23H135.733ZM134.727 88.2001C134.727 87.9222 134.952 87.697 135.23 87.697C135.508 87.697 135.733 87.9222 135.733 88.2001H135.23H134.727ZM135.733 84.0733C135.733 84.3511 135.508 84.5763 135.23 84.5763C134.952 84.5763 134.727 84.3511 134.727 84.0733H135.23H135.733ZM134.727 79.9466C134.727 79.6688 134.952 79.4435 135.23 79.4435C135.508 79.4435 135.733 79.6688 135.733 79.9466H135.23H134.727ZM135.733 75.8198C135.733 76.0976 135.508 76.3228 135.23 76.3228C134.952 76.3228 134.727 76.0976 134.727 75.8198H135.23H135.733ZM134.727 71.6931C134.727 71.4153 134.952 71.1901 135.23 71.1901C135.508 71.1901 135.733 71.4153 135.733 71.6931H135.23H134.727ZM135.733 67.5663C135.733 67.8441 135.508 68.0693 135.23 68.0693C134.952 68.0693 134.727 67.8441 134.727 67.5663H135.23H135.733ZM134.727 63.4396C134.727 63.1618 134.952 62.9366 135.23 62.9366C135.508 62.9366 135.733 63.1618 135.733 63.4396H135.23H134.727ZM135.733 59.3128C135.733 59.5906 135.508 59.8158 135.23 59.8158C134.952 59.8158 134.727 59.5906 134.727 59.3128H135.23H135.733ZM134.727 55.1861C134.727 54.9083 134.952 54.6831 135.23 54.6831C135.508 54.6831 135.733 54.9083 135.733 55.1861H135.23H134.727ZM135.733 51.0593C135.733 51.3371 135.508 51.5624 135.23 51.5624C134.952 51.5624 134.727 51.3371 134.727 51.0593H135.23H135.733ZM134.727 46.9326C134.727 46.6548 134.952 46.4296 135.23 46.4296C135.508 46.4296 135.733 46.6548 135.733 46.9326H135.23H134.727ZM135.733 42.8058C135.733 43.0836 135.508 43.3089 135.23 43.3089C134.952 43.3089 134.727 43.0836 134.727 42.8058H135.23H135.733ZM134.727 38.6791C134.727 38.4013 134.952 38.1761 135.23 38.1761C135.508 38.1761 135.733 38.4013 135.733 38.6791H135.23H134.727ZM135.733 34.5524C135.733 34.8302 135.508 35.0554 135.23 35.0554C134.952 35.0554 134.727 34.8302 134.727 34.5524H135.23H135.733ZM134.727 30.4256C134.727 30.1478 134.952 29.9226 135.23 29.9226C135.508 29.9226 135.733 30.1478 135.733 30.4256H135.23H134.727ZM135.733 26.2989C135.733 26.5767 135.508 26.8019 135.23 26.8019C134.952 26.8019 134.727 26.5767 134.727 26.2989H135.23H135.733ZM134.727 22.1721C134.727 21.8943 134.952 21.6691 135.23 21.6691C135.508 21.6691 135.733 21.8943 135.733 22.1721H135.23H134.727ZM135.733 18.0454C135.733 18.3232 135.508 18.5484 135.23 18.5484C134.952 18.5484 134.727 18.3232 134.727 18.0454H135.23H135.733ZM134.727 13.9186C134.727 13.6408 134.952 13.4156 135.23 13.4156C135.508 13.4156 135.733 13.6408 135.733 13.9186H135.23H134.727ZM135.733 9.79187C135.733 10.0697 135.508 10.2949 135.23 10.2949C134.952 10.2949 134.727 10.0697 134.727 9.79187H135.23H135.733ZM135.071 5.99536C135.177 5.73875 135.471 5.61698 135.728 5.72341C135.985 5.82982 136.106 6.12411 136 6.38073L135.535 6.18805L135.071 5.99536ZM137.906 4.47432C137.65 4.58073 137.356 4.45897 137.249 4.20235C137.143 3.94573 137.264 3.65144 137.521 3.54503L137.714 4.00967L137.906 4.47432ZM141.191 3.20131C141.469 3.20131 141.694 3.42652 141.694 3.70432C141.694 3.98213 141.469 4.20734 141.191 4.20734V3.70432V3.20131ZM145.065 4.20734C144.787 4.20734 144.562 3.98213 144.562 3.70432C144.562 3.42652 144.787 3.20131 145.065 3.20131V3.70432V4.20734ZM148.939 3.20131C149.216 3.20131 149.442 3.42652 149.442 3.70432C149.442 3.98213 149.216 4.20734 148.939 4.20734V3.70432V3.20131ZM152.812 4.20734C152.535 4.20734 152.309 3.98213 152.309 3.70432C152.309 3.42652 152.535 3.20131 152.812 3.20131V3.70432V4.20734ZM156.686 3.20131C156.964 3.20131 157.189 3.42652 157.189 3.70432C157.189 3.98213 156.964 4.20734 156.686 4.20734V3.70432V3.20131ZM160.56 4.20734C160.282 4.20734 160.057 3.98213 160.057 3.70432C160.057 3.42652 160.282 3.20131 160.56 3.20131V3.70432V4.20734ZM2.68273 160.316V159.813H4.6909V160.316V160.819H2.68273V160.316ZM8.70725 160.316V159.813H12.7236V160.316V160.819H8.70725V160.316ZM16.74 160.316V159.813H20.7563V160.316V160.819H16.74V160.316ZM24.7726 160.316V159.813H28.789V160.316V160.819H24.7726V160.316ZM32.8053 160.316V159.813H36.8217V160.316V160.819H32.8053V160.316ZM40.838 160.316V159.813H44.8544V160.316V160.819H40.838V160.316ZM48.8707 160.316V159.813H52.8871V160.316V160.819H48.8707V160.316ZM56.9034 160.316V159.813H60.9198V160.316V160.819H56.9034V160.316ZM64.9361 160.316V159.813H68.9525V160.316V160.819H64.9361V160.316ZM72.9688 160.316V159.813H76.9852V160.316V160.819H72.9688V160.316ZM81.0015 160.316V159.813H85.0179V160.316V160.819H81.0015V160.316ZM89.0342 160.316V159.813H93.0506V160.316V160.819H89.0342V160.316ZM97.0669 160.316V159.813H101.083V160.316V160.819H97.0669V160.316ZM105.1 160.316V159.813H109.116V160.316V160.819H105.1V160.316ZM113.132 160.316V159.813H117.149V160.316V160.819H113.132V160.316ZM121.165 160.316V159.813H125.181V160.316V160.819H121.165V160.316ZM129.198 160.316V159.813H131.206V160.316V160.819H129.198V160.316ZM131.206 160.316V159.813C131.684 159.813 132.139 159.717 132.554 159.546L132.746 160.01L132.939 160.475C132.404 160.696 131.819 160.819 131.206 160.819V160.316ZM134.925 157.832L134.46 157.639C134.632 157.225 134.727 156.77 134.727 156.291H135.23H135.733C135.733 156.904 135.611 157.49 135.389 158.025L134.925 157.832ZM135.23 156.291H134.727V154.228H135.23H135.733V156.291H135.23ZM135.23 150.101H134.727V145.975H135.23H135.733V150.101H135.23ZM135.23 141.848H134.727V137.721H135.23H135.733V141.848H135.23ZM135.23 133.594H134.727V129.468H135.23H135.733V133.594H135.23ZM135.23 125.341H134.727V121.214H135.23H135.733V125.341H135.23ZM135.23 117.087H134.727V112.961H135.23H135.733V117.087H135.23ZM135.23 108.834H134.727V104.707H135.23H135.733V108.834H135.23ZM135.23 100.58H134.727V96.4536H135.23H135.733V100.58H135.23ZM135.23 92.3268H134.727V88.2001H135.23H135.733V92.3268H135.23ZM135.23 84.0733H134.727V79.9466H135.23H135.733V84.0733H135.23ZM135.23 75.8198H134.727V71.6931H135.23H135.733V75.8198H135.23ZM135.23 67.5663H134.727V63.4396H135.23H135.733V67.5663H135.23ZM135.23 59.3128H134.727V55.1861H135.23H135.733V59.3128H135.23ZM135.23 51.0593H134.727V46.9326H135.23H135.733V51.0593H135.23ZM135.23 42.8058H134.727V38.6791H135.23H135.733V42.8058H135.23ZM135.23 34.5524H134.727V30.4256H135.23H135.733V34.5524H135.23ZM135.23 26.2989H134.727V22.1721H135.23H135.733V26.2989H135.23ZM135.23 18.0454H134.727V13.9186H135.23H135.733V18.0454H135.23ZM135.23 9.79187H134.727V7.72844H135.23H135.733V9.79187H135.23ZM135.23 7.72844H134.727C134.727 7.11553 134.849 6.52985 135.071 5.99536L135.535 6.18805L136 6.38073C135.828 6.7952 135.733 7.25008 135.733 7.72844H135.23ZM137.714 4.00967L137.521 3.54503C138.056 3.32338 138.641 3.20131 139.254 3.20131V3.70432V4.20734C138.776 4.20734 138.321 4.30245 137.906 4.47432L137.714 4.00967ZM139.254 3.70432V3.20131H141.191V3.70432V4.20734H139.254V3.70432ZM145.065 3.70432V3.20131H148.939V3.70432V4.20734H145.065V3.70432ZM152.812 3.70432V3.20131H156.686V3.70432V4.20734H152.812V3.70432ZM160.56 3.70432V3.20131H162.497V3.70432V4.20734H160.56V3.70432Z" fill="#79B3FF"/>
</svg>
