<svg width="104" height="230" viewBox="0 0 104 230" fill="none" xmlns="http://www.w3.org/2000/svg">
<path d="M103.806 3.32928C104.001 3.52459 104.001 3.84124 103.806 4.03654L100.624 7.2192C100.428 7.4145 100.112 7.4145 99.9163 7.2192C99.721 7.02389 99.721 6.70724 99.9163 6.51194L102.745 3.68291L99.9163 0.853883C99.721 0.658579 99.721 0.34193 99.9163 0.146626C100.112 -0.0486775 100.428 -0.0486775 100.624 0.146626L103.806 3.32928ZM5.33447 227.333C5.33447 228.806 4.14031 230 2.66724 230C1.19416 230 7.63101e-06 228.806 7.63101e-06 227.333C7.63101e-06 225.86 1.19416 224.666 2.66724 224.666C4.14031 224.666 5.33447 225.86 5.33447 227.333ZM101.464 4.18302C101.188 4.18302 100.964 3.95911 100.964 3.68291C100.964 3.40671 101.188 3.1828 101.464 3.1828V3.68291V4.18302ZM97.487 3.1828C97.7632 3.1828 97.9871 3.40671 97.9871 3.68291C97.9871 3.95911 97.7632 4.18302 97.487 4.18302V3.68291V3.1828ZM93.5099 4.18302C93.2337 4.18302 93.0098 3.95911 93.0098 3.68291C93.0098 3.40671 93.2337 3.1828 93.5099 3.1828V3.68291V4.18302ZM89.5328 3.1828C89.809 3.1828 90.033 3.40671 90.033 3.68291C90.033 3.95911 89.809 4.18302 89.5328 4.18302V3.68291V3.1828ZM85.5558 4.18302C85.2796 4.18302 85.0557 3.95911 85.0557 3.68291C85.0557 3.40671 85.2796 3.1828 85.5558 3.1828V3.68291V4.18302ZM81.5787 3.1828C81.8549 3.1828 82.0788 3.40671 82.0788 3.68291C82.0788 3.95911 81.8549 4.18302 81.5787 4.18302V3.68291V3.1828ZM77.6017 4.18302C77.3255 4.18302 77.1016 3.95911 77.1016 3.68291C77.1016 3.40671 77.3255 3.1828 77.6017 3.1828V3.68291V4.18302ZM73.6246 3.1828C73.9008 3.1828 74.1247 3.40671 74.1247 3.68291C74.1247 3.95911 73.9008 4.18302 73.6246 4.18302V3.68291V3.1828ZM69.6475 4.18302C69.3713 4.18302 69.1474 3.95911 69.1474 3.68291C69.1474 3.40671 69.3713 3.1828 69.6475 3.1828V3.68291V4.18302ZM65.6705 3.1828C65.9467 3.1828 66.1706 3.40671 66.1706 3.68291C66.1706 3.95911 65.9467 4.18302 65.6705 4.18302V3.68291V3.1828ZM61.6934 4.18302C61.4172 4.18302 61.1933 3.95911 61.1933 3.68291C61.1933 3.40671 61.4172 3.1828 61.6934 3.1828V3.68291V4.18302ZM57.7163 3.1828C57.9925 3.1828 58.2165 3.40671 58.2165 3.68291C58.2165 3.95911 57.9925 4.18302 57.7163 4.18302V3.68291V3.1828ZM53.7393 4.18302C53.4631 4.18302 53.2392 3.95911 53.2392 3.68291C53.2392 3.40671 53.4631 3.1828 53.7393 3.1828V3.68291V4.18302ZM49.7622 3.1828C50.0384 3.1828 50.2623 3.40671 50.2623 3.68291C50.2623 3.95911 50.0384 4.18302 49.7622 4.18302V3.68291V3.1828ZM45.7852 4.18302C45.509 4.18302 45.2851 3.95911 45.2851 3.68291C45.2851 3.40671 45.509 3.1828 45.7852 3.1828V3.68291V4.18302ZM41.8081 3.1828C42.0843 3.1828 42.3082 3.40671 42.3082 3.68291C42.3082 3.95911 42.0843 4.18302 41.8081 4.18302V3.68291V3.1828ZM37.831 4.18302C37.5548 4.18302 37.3309 3.95911 37.3309 3.68291C37.3309 3.40671 37.5548 3.1828 37.831 3.1828V3.68291V4.18302ZM33.854 3.1828C34.1302 3.1828 34.3541 3.40671 34.3541 3.68291C34.3541 3.95911 34.1302 4.18302 33.854 4.18302V3.68291V3.1828ZM30.5255 4.44846C30.2704 4.55426 29.9778 4.4332 29.872 4.17807C29.7662 3.92293 29.8873 3.63034 30.1424 3.52454L30.334 3.9865L30.5255 4.44846ZM27.7062 5.96072C27.812 5.70558 28.1046 5.58452 28.3598 5.69032C28.6149 5.79612 28.736 6.08872 28.6301 6.34385L28.1682 6.15228L27.7062 5.96072ZM28.3647 9.6805C28.3647 9.95671 28.1408 10.1806 27.8646 10.1806C27.5884 10.1806 27.3645 9.95671 27.3645 9.6805H27.8646H28.3647ZM27.3645 13.674C27.3645 13.3978 27.5884 13.1739 27.8646 13.1739C28.1408 13.1739 28.3647 13.3978 28.3647 13.674H27.8646H27.3645ZM28.3647 17.6675C28.3647 17.9437 28.1408 18.1676 27.8646 18.1676C27.5884 18.1676 27.3645 17.9437 27.3645 17.6675H27.8646H28.3647ZM27.3645 21.661C27.3645 21.3848 27.5884 21.1609 27.8646 21.1609C28.1408 21.1609 28.3647 21.3848 28.3647 21.661H27.8646H27.3645ZM28.3647 25.6545C28.3647 25.9307 28.1408 26.1546 27.8646 26.1546C27.5884 26.1546 27.3645 25.9307 27.3645 25.6545H27.8646H28.3647ZM27.3645 29.6479C27.3645 29.3717 27.5884 29.1478 27.8646 29.1478C28.1408 29.1478 28.3647 29.3717 28.3647 29.6479H27.8646H27.3645ZM28.3647 33.6414C28.3647 33.9176 28.1408 34.1415 27.8646 34.1415C27.5884 34.1415 27.3645 33.9176 27.3645 33.6414H27.8646H28.3647ZM27.3645 37.6349C27.3645 37.3587 27.5884 37.1348 27.8646 37.1348C28.1408 37.1348 28.3647 37.3587 28.3647 37.6349H27.8646H27.3645ZM28.3647 41.6284C28.3647 41.9046 28.1408 42.1285 27.8646 42.1285C27.5884 42.1285 27.3645 41.9046 27.3645 41.6284H27.8646H28.3647ZM27.3645 45.6219C27.3645 45.3457 27.5884 45.1218 27.8646 45.1218C28.1408 45.1218 28.3647 45.3457 28.3647 45.6219H27.8646H27.3645ZM28.3647 49.6154C28.3647 49.8916 28.1408 50.1155 27.8646 50.1155C27.5884 50.1155 27.3645 49.8916 27.3645 49.6154H27.8646H28.3647ZM27.3645 53.6089C27.3645 53.3327 27.5884 53.1088 27.8646 53.1088C28.1408 53.1088 28.3647 53.3327 28.3647 53.6089H27.8646H27.3645ZM28.3647 57.6023C28.3647 57.8785 28.1408 58.1025 27.8646 58.1025C27.5884 58.1025 27.3645 57.8785 27.3645 57.6023H27.8646H28.3647ZM27.3645 61.5958C27.3645 61.3196 27.5884 61.0957 27.8646 61.0957C28.1408 61.0957 28.3647 61.3196 28.3647 61.5958H27.8646H27.3645ZM28.3647 65.5893C28.3647 65.8655 28.1408 66.0894 27.8646 66.0894C27.5884 66.0894 27.3645 65.8655 27.3645 65.5893H27.8646H28.3647ZM27.3645 69.5828C27.3645 69.3066 27.5884 69.0827 27.8646 69.0827C28.1408 69.0827 28.3647 69.3066 28.3647 69.5828H27.8646H27.3645ZM28.3647 73.5763C28.3647 73.8525 28.1408 74.0764 27.8646 74.0764C27.5884 74.0764 27.3645 73.8525 27.3645 73.5763H27.8646H28.3647ZM27.3645 77.5698C27.3645 77.2936 27.5884 77.0697 27.8646 77.0697C28.1408 77.0697 28.3647 77.2936 28.3647 77.5698H27.8646H27.3645ZM28.3647 81.5633C28.3647 81.8395 28.1408 82.0634 27.8646 82.0634C27.5884 82.0634 27.3645 81.8395 27.3645 81.5633H27.8646H28.3647ZM27.3645 85.5567C27.3645 85.2805 27.5884 85.0566 27.8646 85.0566C28.1408 85.0566 28.3647 85.2805 28.3647 85.5567H27.8646H27.3645ZM28.3647 89.5502C28.3647 89.8264 28.1408 90.0503 27.8646 90.0503C27.5884 90.0503 27.3645 89.8264 27.3645 89.5502H27.8646H28.3647ZM27.3645 93.5437C27.3645 93.2675 27.5884 93.0436 27.8646 93.0436C28.1408 93.0436 28.3647 93.2675 28.3647 93.5437H27.8646H27.3645ZM28.3647 97.5372C28.3647 97.8134 28.1408 98.0373 27.8646 98.0373C27.5884 98.0373 27.3645 97.8134 27.3645 97.5372H27.8646H28.3647ZM27.3645 101.531C27.3645 101.254 27.5884 101.031 27.8646 101.031C28.1408 101.031 28.3647 101.254 28.3647 101.531H27.8646H27.3645ZM28.3647 105.524C28.3647 105.8 28.1408 106.024 27.8646 106.024C27.5884 106.024 27.3645 105.8 27.3645 105.524H27.8646H28.3647ZM27.3645 109.518C27.3645 109.241 27.5884 109.018 27.8646 109.018C28.1408 109.018 28.3647 109.241 28.3647 109.518H27.8646H27.3645ZM28.3647 113.511C28.3647 113.787 28.1408 114.011 27.8646 114.011C27.5884 114.011 27.3645 113.787 27.3645 113.511H27.8646H28.3647ZM27.3645 117.505C27.3645 117.228 27.5884 117.005 27.8646 117.005C28.1408 117.005 28.3647 117.228 28.3647 117.505H27.8646H27.3645ZM28.3647 121.498C28.3647 121.774 28.1408 121.998 27.8646 121.998C27.5884 121.998 27.3645 121.774 27.3645 121.498H27.8646H28.3647ZM27.3645 125.492C27.3645 125.215 27.5884 124.991 27.8646 124.991C28.1408 124.991 28.3647 125.215 28.3647 125.492H27.8646H27.3645ZM28.3647 129.485C28.3647 129.761 28.1408 129.985 27.8646 129.985C27.5884 129.985 27.3645 129.761 27.3645 129.485H27.8646H28.3647ZM27.3645 133.479C27.3645 133.202 27.5884 132.978 27.8646 132.978C28.1408 132.978 28.3647 133.202 28.3647 133.479H27.8646H27.3645ZM28.3647 137.472C28.3647 137.748 28.1408 137.972 27.8646 137.972C27.5884 137.972 27.3645 137.748 27.3645 137.472H27.8646H28.3647ZM27.3645 141.466C27.3645 141.189 27.5884 140.965 27.8646 140.965C28.1408 140.965 28.3647 141.189 28.3647 141.466H27.8646H27.3645ZM28.3647 145.459C28.3647 145.735 28.1408 145.959 27.8646 145.959C27.5884 145.959 27.3645 145.735 27.3645 145.459H27.8646H28.3647ZM27.3645 149.453C27.3645 149.176 27.5884 148.952 27.8646 148.952C28.1408 148.952 28.3647 149.176 28.3647 149.453H27.8646H27.3645ZM28.3647 153.446C28.3647 153.722 28.1408 153.946 27.8646 153.946C27.5884 153.946 27.3645 153.722 27.3645 153.446H27.8646H28.3647ZM27.3645 157.44C27.3645 157.163 27.5884 156.939 27.8646 156.939C28.1408 156.939 28.3647 157.163 28.3647 157.44H27.8646H27.3645ZM28.3647 161.433C28.3647 161.709 28.1408 161.933 27.8646 161.933C27.5884 161.933 27.3645 161.709 27.3645 161.433H27.8646H28.3647ZM27.3645 165.427C27.3645 165.15 27.5884 164.926 27.8646 164.926C28.1408 164.926 28.3647 165.15 28.3647 165.427H27.8646H27.3645ZM28.3647 169.42C28.3647 169.696 28.1408 169.92 27.8646 169.92C27.5884 169.92 27.3645 169.696 27.3645 169.42H27.8646H28.3647ZM27.3645 173.413C27.3645 173.137 27.5884 172.913 27.8646 172.913C28.1408 172.913 28.3647 173.137 28.3647 173.413H27.8646H27.3645ZM28.3647 177.407C28.3647 177.683 28.1408 177.907 27.8646 177.907C27.5884 177.907 27.3645 177.683 27.3645 177.407H27.8646H28.3647ZM27.3645 181.4C27.3645 181.124 27.5884 180.9 27.8646 180.9C28.1408 180.9 28.3647 181.124 28.3647 181.4H27.8646H27.3645ZM28.3647 185.394C28.3647 185.67 28.1408 185.894 27.8646 185.894C27.5884 185.894 27.3645 185.67 27.3645 185.394H27.8646H28.3647ZM27.3645 189.387C27.3645 189.111 27.5884 188.887 27.8646 188.887C28.1408 188.887 28.3647 189.111 28.3647 189.387H27.8646H27.3645ZM28.3647 193.381C28.3647 193.657 28.1408 193.881 27.8646 193.881C27.5884 193.881 27.3645 193.657 27.3645 193.381H27.8646H28.3647ZM27.3645 197.374C27.3645 197.098 27.5884 196.874 27.8646 196.874C28.1408 196.874 28.3647 197.098 28.3647 197.374H27.8646H27.3645ZM28.3647 201.368C28.3647 201.644 28.1408 201.868 27.8646 201.868C27.5884 201.868 27.3645 201.644 27.3645 201.368H27.8646H28.3647ZM27.3645 205.361C27.3645 205.085 27.5884 204.861 27.8646 204.861C28.1408 204.861 28.3647 205.085 28.3647 205.361H27.8646H27.3645ZM28.3647 209.355C28.3647 209.631 28.1408 209.855 27.8646 209.855C27.5884 209.855 27.3645 209.631 27.3645 209.355H27.8646H28.3647ZM27.3645 213.348C27.3645 213.072 27.5884 212.848 27.8646 212.848C28.1408 212.848 28.3647 213.072 28.3647 213.348H27.8646H27.3645ZM28.3647 217.342C28.3647 217.618 28.1408 217.842 27.8646 217.842C27.5884 217.842 27.3645 217.618 27.3645 217.342H27.8646H28.3647ZM27.3645 221.335C27.3645 221.059 27.5884 220.835 27.8646 220.835C28.1408 220.835 28.3647 221.059 28.3647 221.335H27.8646H27.3645ZM28.023 225.055C27.9172 225.31 27.6246 225.431 27.3695 225.326C27.1143 225.22 26.9933 224.927 27.0991 224.672L27.561 224.864L28.023 225.055ZM25.2037 226.567C25.4588 226.462 25.7514 226.583 25.8572 226.838C25.963 227.093 25.8419 227.386 25.5868 227.491L25.3952 227.029L25.2037 226.567ZM22.0974 227.833C21.8212 227.833 21.5973 227.609 21.5973 227.333C21.5973 227.057 21.8212 226.833 22.0974 226.833V227.333V227.833ZM18.5646 226.833C18.8408 226.833 19.0647 227.057 19.0647 227.333C19.0647 227.609 18.8408 227.833 18.5646 227.833V227.333V226.833ZM15.0319 227.833C14.7557 227.833 14.5318 227.609 14.5318 227.333C14.5318 227.057 14.7557 226.833 15.0319 226.833V227.333V227.833ZM11.4991 226.833C11.7753 226.833 11.9992 227.057 11.9992 227.333C11.9992 227.609 11.7753 227.833 11.4991 227.833V227.333V226.833ZM7.96637 227.833C7.69017 227.833 7.46626 227.609 7.46626 227.333C7.46626 227.057 7.69017 226.833 7.96637 226.833V227.333V227.833ZM4.43361 226.833C4.70982 226.833 4.93372 227.057 4.93372 227.333C4.93372 227.609 4.70982 227.833 4.43361 227.833V227.333V226.833ZM103.453 3.68291V4.18302H101.464V3.68291V3.1828H103.453V3.68291ZM97.487 3.68291V4.18302H93.5099V3.68291V3.1828H97.487V3.68291ZM89.5328 3.68291V4.18302H85.5558V3.68291V3.1828H89.5328V3.68291ZM81.5787 3.68291V4.18302H77.6017V3.68291V3.1828H81.5787V3.68291ZM73.6246 3.68291V4.18302H69.6475V3.68291V3.1828H73.6246V3.68291ZM65.6705 3.68291V4.18302H61.6934V3.68291V3.1828H65.6705V3.68291ZM57.7163 3.68291V4.18302H53.7393V3.68291V3.1828H57.7163V3.68291ZM49.7622 3.68291V4.18302H45.7852V3.68291V3.1828H49.7622V3.68291ZM41.8081 3.68291V4.18302H37.831V3.68291V3.1828H41.8081V3.68291ZM33.854 3.68291V4.18302H31.8654V3.68291V3.1828H33.854V3.68291ZM31.8654 3.68291V4.18302C31.3899 4.18302 30.9376 4.27758 30.5255 4.44846L30.334 3.9865L30.1424 3.52454C30.6738 3.30418 31.2561 3.1828 31.8654 3.1828V3.68291ZM28.1682 6.15228L28.6301 6.34385C28.4593 6.75592 28.3647 7.20817 28.3647 7.68376H27.8646H27.3645C27.3645 7.07439 27.4859 6.49211 27.7062 5.96072L28.1682 6.15228ZM27.8646 7.68376H28.3647V9.6805H27.8646H27.3645V7.68376H27.8646ZM27.8646 13.674H28.3647V17.6675H27.8646H27.3645V13.674H27.8646ZM27.8646 21.661H28.3647V25.6545H27.8646H27.3645V21.661H27.8646ZM27.8646 29.6479H28.3647V33.6414H27.8646H27.3645V29.6479H27.8646ZM27.8646 37.6349H28.3647V41.6284H27.8646H27.3645V37.6349H27.8646ZM27.8646 45.6219H28.3647V49.6154H27.8646H27.3645V45.6219H27.8646ZM27.8646 53.6089H28.3647V57.6023H27.8646H27.3645V53.6089H27.8646ZM27.8646 61.5958H28.3647V65.5893H27.8646H27.3645V61.5958H27.8646ZM27.8646 69.5828H28.3647V73.5763H27.8646H27.3645V69.5828H27.8646ZM27.8646 77.5698H28.3647V81.5633H27.8646H27.3645V77.5698H27.8646ZM27.8646 85.5567H28.3647V89.5502H27.8646H27.3645V85.5567H27.8646ZM27.8646 93.5437H28.3647V97.5372H27.8646H27.3645V93.5437H27.8646ZM27.8646 101.531H28.3647V105.524H27.8646H27.3645V101.531H27.8646ZM27.8646 109.518H28.3647V113.511H27.8646H27.3645V109.518H27.8646ZM27.8646 117.505H28.3647V121.498H27.8646H27.3645V117.505H27.8646ZM27.8646 125.492H28.3647V129.485H27.8646H27.3645V125.492H27.8646ZM27.8646 133.479H28.3647V137.472H27.8646H27.3645V133.479H27.8646ZM27.8646 141.466H28.3647V145.459H27.8646H27.3645V141.466H27.8646ZM27.8646 149.453H28.3647V153.446H27.8646H27.3645V149.453H27.8646ZM27.8646 157.44H28.3647V161.433H27.8646H27.3645V157.44H27.8646ZM27.8646 165.427H28.3647V169.42H27.8646H27.3645V165.427H27.8646ZM27.8646 173.413H28.3647V177.407H27.8646H27.3645V173.413H27.8646ZM27.8646 181.4H28.3647V185.394H27.8646H27.3645V181.4H27.8646ZM27.8646 189.387H28.3647V193.381H27.8646H27.3645V189.387H27.8646ZM27.8646 197.374H28.3647V201.368H27.8646H27.3645V197.374H27.8646ZM27.8646 205.361H28.3647V209.355H27.8646H27.3645V205.361H27.8646ZM27.8646 213.348H28.3647V217.342H27.8646H27.3645V213.348H27.8646ZM27.8646 221.335H28.3647V223.332H27.8646H27.3645V221.335H27.8646ZM27.8646 223.332H28.3647C28.3647 223.941 28.2433 224.524 28.023 225.055L27.561 224.864L27.0991 224.672C27.2699 224.26 27.3645 223.808 27.3645 223.332H27.8646ZM25.3952 227.029L25.5868 227.491C25.0554 227.712 24.4731 227.833 23.8638 227.833V227.333V226.833C24.3393 226.833 24.7916 226.738 25.2037 226.567L25.3952 227.029ZM23.8638 227.333V227.833H22.0974V227.333V226.833H23.8638V227.333ZM18.5646 227.333V227.833H15.0319V227.333V226.833H18.5646V227.333ZM11.4991 227.333V227.833H7.96637V227.333V226.833H11.4991V227.333ZM4.43361 227.333V227.833H2.66724V227.333V226.833H4.43361V227.333Z" fill="#79B3FF"/>
</svg>
