<svg width="80" height="8" viewBox="0 0 80 8" fill="none" xmlns="http://www.w3.org/2000/svg">
<path d="M79.8523 3.35668C80.0492 3.55359 80.0492 3.87285 79.8523 4.06976L76.6435 7.2786C76.4466 7.47551 76.1273 7.47551 75.9304 7.2786C75.7335 7.08169 75.7335 6.76244 75.9304 6.56553L78.7827 3.71322L75.9304 0.86091C75.7335 0.663999 75.7335 0.344744 75.9304 0.147833C76.1273 -0.0490781 76.4466 -0.0490781 76.6435 0.147833L79.8523 3.35668ZM5.37837 3.71322C5.37837 5.19841 4.17438 6.4024 2.68919 6.4024C1.20399 6.4024 7.69381e-06 5.19841 7.69381e-06 3.71322C7.69381e-06 2.22802 1.20399 1.02404 2.68919 1.02404C4.17438 1.02404 5.37837 2.22802 5.37837 3.71322ZM77.5756 4.21744C77.2971 4.21744 77.0714 3.99169 77.0714 3.71322C77.0714 3.43474 77.2971 3.209 77.5756 3.209V3.71322V4.21744ZM73.7353 3.209C74.0138 3.209 74.2395 3.43474 74.2395 3.71322C74.2395 3.99169 74.0138 4.21744 73.7353 4.21744V3.71322V3.209ZM69.895 4.21744C69.6165 4.21744 69.3907 3.99169 69.3907 3.71322C69.3907 3.43474 69.6165 3.209 69.895 3.209V3.71322V4.21744ZM66.0546 3.209C66.3331 3.209 66.5588 3.43474 66.5588 3.71322C66.5588 3.99169 66.3331 4.21744 66.0546 4.21744V3.71322V3.209ZM62.2143 4.21744C61.9358 4.21744 61.7101 3.99169 61.7101 3.71322C61.7101 3.43474 61.9358 3.209 62.2143 3.209V3.71322V4.21744ZM58.374 3.209C58.6524 3.209 58.8782 3.43474 58.8782 3.71322C58.8782 3.99169 58.6524 4.21744 58.374 4.21744V3.71322V3.209ZM54.5336 4.21744C54.2552 4.21744 54.0294 3.99169 54.0294 3.71322C54.0294 3.43474 54.2552 3.209 54.5336 3.209V3.71322V4.21744ZM50.6933 3.209C50.9718 3.209 51.1975 3.43474 51.1975 3.71322C51.1975 3.99169 50.9718 4.21744 50.6933 4.21744V3.71322V3.209ZM46.853 4.21744C46.5745 4.21744 46.3488 3.99169 46.3488 3.71322C46.3488 3.43474 46.5745 3.209 46.853 3.209V3.71322V4.21744ZM43.0126 3.209C43.2911 3.209 43.5169 3.43474 43.5169 3.71322C43.5169 3.99169 43.2911 4.21744 43.0126 4.21744V3.71322V3.209ZM39.1723 4.21744C38.8938 4.21744 38.6681 3.99169 38.6681 3.71322C38.6681 3.43474 38.8938 3.209 39.1723 3.209V3.71322V4.21744ZM35.332 3.209C35.6105 3.209 35.8362 3.43474 35.8362 3.71322C35.8362 3.99169 35.6105 4.21744 35.332 4.21744V3.71322V3.209ZM31.4917 4.21744C31.2132 4.21744 30.9874 3.99169 30.9874 3.71322C30.9874 3.43474 31.2132 3.209 31.4917 3.209V3.71322V4.21744ZM27.6513 3.209C27.9298 3.209 28.1555 3.43474 28.1555 3.71322C28.1555 3.99169 27.9298 4.21744 27.6513 4.21744V3.71322V3.209ZM23.811 4.21744C23.5325 4.21744 23.3068 3.99169 23.3068 3.71322C23.3068 3.43474 23.5325 3.209 23.811 3.209V3.71322V4.21744ZM19.9707 3.209C20.2491 3.209 20.4749 3.43474 20.4749 3.71322C20.4749 3.99169 20.2491 4.21744 19.9707 4.21744V3.71322V3.209ZM16.1303 4.21744C15.8519 4.21744 15.6261 3.99169 15.6261 3.71322C15.6261 3.43474 15.8519 3.209 16.1303 3.209V3.71322V4.21744ZM12.29 3.209C12.5685 3.209 12.7942 3.43474 12.7942 3.71322C12.7942 3.99169 12.5685 4.21744 12.29 4.21744V3.71322V3.209ZM8.44967 4.21744C8.1712 4.21744 7.94545 3.99169 7.94545 3.71322C7.94545 3.43474 8.1712 3.209 8.44967 3.209V3.71322V4.21744ZM4.60935 3.209C4.88782 3.209 5.11357 3.43474 5.11357 3.71322C5.11357 3.99169 4.88782 4.21744 4.60935 4.21744V3.71322V3.209ZM79.4958 3.71322L79.4958 4.21744H77.5756V3.71322V3.209H79.4958L79.4958 3.71322ZM73.7353 3.71322V4.21744H69.895V3.71322V3.209H73.7353V3.71322ZM66.0546 3.71322V4.21744H62.2143V3.71322V3.209H66.0546V3.71322ZM58.374 3.71322V4.21744H54.5336V3.71322V3.209H58.374V3.71322ZM50.6933 3.71322V4.21744H46.853V3.71322V3.209H50.6933V3.71322ZM43.0126 3.71322V4.21744H39.1723V3.71322V3.209H43.0126V3.71322ZM35.332 3.71322V4.21744H31.4917V3.71322V3.209H35.332V3.71322ZM27.6513 3.71322V4.21744H23.811V3.71322V3.209H27.6513V3.71322ZM19.9707 3.71322V4.21744H16.1303V3.71322V3.209H19.9707V3.71322ZM12.29 3.71322V4.21744H8.44967V3.71322V3.209H12.29V3.71322ZM4.60935 3.71322V4.21744H2.68919V3.71322V3.209H4.60935V3.71322Z" fill="#79B3FF"/>
</svg>
