<svg width="104" height="220" viewBox="0 0 104 220" fill="none" xmlns="http://www.w3.org/2000/svg">
<path d="M103.853 216.04C104.049 215.844 104.049 215.528 103.853 215.332L100.669 212.148C100.474 211.953 100.157 211.953 99.9618 212.148C99.7664 212.343 99.7664 212.66 99.9618 212.856L102.792 215.686L99.9618 218.516C99.7664 218.712 99.7664 219.028 99.9618 219.224C100.157 219.419 100.474 219.419 100.669 219.224L103.853 216.04ZM5.3369 2.66828C5.3369 1.19454 4.1422 -0.000167959 2.66845 -0.000167959C1.19471 -0.000167959 7.63449e-06 1.19454 7.63449e-06 2.66828C7.63449e-06 4.14202 1.19471 5.33672 2.66845 5.33672C4.1422 5.33672 5.3369 4.14202 5.3369 2.66828ZM101.51 215.186C101.234 215.186 101.01 215.41 101.01 215.686C101.01 215.962 101.234 216.186 101.51 216.186V215.686V215.186ZM97.5314 216.186C97.8077 216.186 98.0317 215.962 98.0317 215.686C98.0317 215.41 97.8077 215.186 97.5314 215.186V215.686V216.186ZM93.5525 215.186C93.2762 215.186 93.0521 215.41 93.0521 215.686C93.0521 215.962 93.2762 216.186 93.5525 216.186V215.686V215.186ZM89.5736 216.186C89.8499 216.186 90.0739 215.962 90.0739 215.686C90.0739 215.41 89.8499 215.186 89.5736 215.186V215.686V216.186ZM85.5947 215.186C85.3184 215.186 85.0944 215.41 85.0944 215.686C85.0944 215.962 85.3184 216.186 85.5947 216.186V215.686V215.186ZM81.6159 216.186C81.8922 216.186 82.1162 215.962 82.1162 215.686C82.1162 215.41 81.8922 215.186 81.6159 215.186V215.686V216.186ZM77.637 215.186C77.3607 215.186 77.1367 215.41 77.1367 215.686C77.1367 215.962 77.3607 216.186 77.637 216.186V215.686V215.186ZM73.6581 216.186C73.9344 216.186 74.1585 215.962 74.1585 215.686C74.1585 215.41 73.9344 215.186 73.6581 215.186V215.686V216.186ZM69.6792 215.186C69.4029 215.186 69.1789 215.41 69.1789 215.686C69.1789 215.962 69.4029 216.186 69.6792 216.186V215.686V215.186ZM65.7004 216.186C65.9767 216.186 66.2007 215.962 66.2007 215.686C66.2007 215.41 65.9767 215.186 65.7004 215.186V215.686V216.186ZM61.7215 215.186C61.4452 215.186 61.2212 215.41 61.2212 215.686C61.2212 215.962 61.4452 216.186 61.7215 216.186V215.686V215.186ZM57.7426 216.186C58.019 216.186 58.243 215.962 58.243 215.686C58.243 215.41 58.019 215.186 57.7426 215.186V215.686V216.186ZM53.7638 215.186C53.4874 215.186 53.2634 215.41 53.2634 215.686C53.2634 215.962 53.4874 216.186 53.7638 216.186V215.686V215.186ZM49.7849 216.186C50.0612 216.186 50.2852 215.962 50.2852 215.686C50.2852 215.41 50.0612 215.186 49.7849 215.186V215.686V216.186ZM45.806 215.186C45.5297 215.186 45.3057 215.41 45.3057 215.686C45.3057 215.962 45.5297 216.186 45.806 216.186V215.686V215.186ZM41.8271 216.186C42.1035 216.186 42.3275 215.962 42.3275 215.686C42.3275 215.41 42.1035 215.186 41.8271 215.186V215.686V216.186ZM37.8483 215.186C37.5719 215.186 37.3479 215.41 37.3479 215.686C37.3479 215.962 37.5719 216.186 37.8483 216.186V215.686V215.186ZM33.8694 216.186C34.1457 216.186 34.3697 215.962 34.3697 215.686C34.3697 215.41 34.1457 215.186 33.8694 215.186V215.686V216.186ZM30.5394 214.92C30.2842 214.814 29.9915 214.935 29.8856 215.191C29.7798 215.446 29.9009 215.739 30.1561 215.844L30.3478 215.382L30.5394 214.92ZM27.7188 213.407C27.8247 213.662 28.1174 213.783 28.3727 213.678C28.6279 213.572 28.749 213.279 28.6432 213.024L28.181 213.215L27.7188 213.407ZM28.3776 209.712C28.3776 209.436 28.1536 209.212 27.8773 209.212C27.601 209.212 27.377 209.436 27.377 209.712H27.8773H28.3776ZM27.377 205.769C27.377 206.046 27.601 206.27 27.8773 206.27C28.1536 206.27 28.3776 206.046 28.3776 205.769H27.8773H27.377ZM28.3776 201.827C28.3776 201.551 28.1536 201.327 27.8773 201.327C27.601 201.327 27.377 201.551 27.377 201.827H27.8773H28.3776ZM27.377 197.884C27.377 198.161 27.601 198.385 27.8773 198.385C28.1536 198.385 28.3776 198.161 28.3776 197.884H27.8773H27.377ZM28.3776 193.942C28.3776 193.665 28.1536 193.441 27.8773 193.441C27.601 193.441 27.377 193.665 27.377 193.942H27.8773H28.3776ZM27.377 189.999C27.377 190.276 27.601 190.5 27.8773 190.5C28.1536 190.5 28.3776 190.276 28.3776 189.999H27.8773H27.377ZM28.3776 186.057C28.3776 185.78 28.1536 185.556 27.8773 185.556C27.601 185.556 27.377 185.78 27.377 186.057H27.8773H28.3776ZM27.377 182.114C27.377 182.39 27.601 182.615 27.8773 182.615C28.1536 182.615 28.3776 182.39 28.3776 182.114H27.8773H27.377ZM28.3776 178.172C28.3776 177.895 28.1536 177.671 27.8773 177.671C27.601 177.671 27.377 177.895 27.377 178.172H27.8773H28.3776ZM27.377 174.229C27.377 174.505 27.601 174.729 27.8773 174.729C28.1536 174.729 28.3776 174.505 28.3776 174.229H27.8773H27.377ZM28.3776 170.287C28.3776 170.01 28.1536 169.786 27.8773 169.786C27.601 169.786 27.377 170.01 27.377 170.287H27.8773H28.3776ZM27.377 166.344C27.377 166.62 27.601 166.844 27.8773 166.844C28.1536 166.844 28.3776 166.62 28.3776 166.344H27.8773H27.377ZM28.3776 162.401C28.3776 162.125 28.1536 161.901 27.8773 161.901C27.601 161.901 27.377 162.125 27.377 162.401H27.8773H28.3776ZM27.377 158.459C27.377 158.735 27.601 158.959 27.8773 158.959C28.1536 158.959 28.3776 158.735 28.3776 158.459H27.8773H27.377ZM28.3776 154.516C28.3776 154.24 28.1536 154.016 27.8773 154.016C27.601 154.016 27.377 154.24 27.377 154.516H27.8773H28.3776ZM27.377 150.574C27.377 150.85 27.601 151.074 27.8773 151.074C28.1536 151.074 28.3776 150.85 28.3776 150.574H27.8773H27.377ZM28.3776 146.631C28.3776 146.355 28.1536 146.131 27.8773 146.131C27.601 146.131 27.377 146.355 27.377 146.631H27.8773H28.3776ZM27.377 142.689C27.377 142.965 27.601 143.189 27.8773 143.189C28.1536 143.189 28.3776 142.965 28.3776 142.689H27.8773H27.377ZM28.3776 138.746C28.3776 138.47 28.1536 138.246 27.8773 138.246C27.601 138.246 27.377 138.47 27.377 138.746H27.8773H28.3776ZM27.377 134.804C27.377 135.08 27.601 135.304 27.8773 135.304C28.1536 135.304 28.3776 135.08 28.3776 134.804H27.8773H27.377ZM28.3776 130.861C28.3776 130.585 28.1536 130.361 27.8773 130.361C27.601 130.361 27.377 130.585 27.377 130.861H27.8773H28.3776ZM27.377 126.919C27.377 127.195 27.601 127.419 27.8773 127.419C28.1536 127.419 28.3776 127.195 28.3776 126.919H27.8773H27.377ZM28.3776 122.976C28.3776 122.7 28.1536 122.476 27.8773 122.476C27.601 122.476 27.377 122.7 27.377 122.976H27.8773H28.3776ZM27.377 119.033C27.377 119.31 27.601 119.534 27.8773 119.534C28.1536 119.534 28.3776 119.31 28.3776 119.033H27.8773H27.377ZM28.3776 115.091C28.3776 114.815 28.1536 114.591 27.8773 114.591C27.601 114.591 27.377 114.815 27.377 115.091H27.8773H28.3776ZM27.377 111.148C27.377 111.425 27.601 111.649 27.8773 111.649C28.1536 111.649 28.3776 111.425 28.3776 111.148H27.8773H27.377ZM28.3776 107.206C28.3776 106.93 28.1536 106.706 27.8773 106.706C27.601 106.706 27.377 106.93 27.377 107.206H27.8773H28.3776ZM27.377 103.263C27.377 103.54 27.601 103.764 27.8773 103.764C28.1536 103.764 28.3776 103.54 28.3776 103.263H27.8773H27.377ZM28.3776 99.3208C28.3776 99.0444 28.1536 98.8204 27.8773 98.8204C27.601 98.8204 27.377 99.0444 27.377 99.3208H27.8773H28.3776ZM27.377 95.3782C27.377 95.6545 27.601 95.8786 27.8773 95.8786C28.1536 95.8786 28.3776 95.6545 28.3776 95.3782H27.8773H27.377ZM28.3776 91.4357C28.3776 91.1593 28.1536 90.9353 27.8773 90.9353C27.601 90.9353 27.377 91.1593 27.377 91.4357H27.8773H28.3776ZM27.377 87.4931C27.377 87.7695 27.601 87.9935 27.8773 87.9935C28.1536 87.9935 28.3776 87.7695 28.3776 87.4931H27.8773H27.377ZM28.3776 83.5506C28.3776 83.2743 28.1536 83.0503 27.8773 83.0503C27.601 83.0503 27.377 83.2743 27.377 83.5506H27.8773H28.3776ZM27.377 79.6081C27.377 79.8844 27.601 80.1084 27.8773 80.1084C28.1536 80.1084 28.3776 79.8844 28.3776 79.6081H27.8773H27.377ZM28.3776 75.6655C28.3776 75.3892 28.1536 75.1652 27.8773 75.1652C27.601 75.1652 27.377 75.3892 27.377 75.6655H27.8773H28.3776ZM27.377 71.723C27.377 71.9993 27.601 72.2233 27.8773 72.2233C28.1536 72.2233 28.3776 71.9993 28.3776 71.723H27.8773H27.377ZM28.3776 67.7804C28.3776 67.5041 28.1536 67.2801 27.8773 67.2801C27.601 67.2801 27.377 67.5041 27.377 67.7804H27.8773H28.3776ZM27.377 63.8379C27.377 64.1142 27.601 64.3382 27.8773 64.3382C28.1536 64.3382 28.3776 64.1142 28.3776 63.8379H27.8773H27.377ZM28.3776 59.8953C28.3776 59.619 28.1536 59.395 27.8773 59.395C27.601 59.395 27.377 59.619 27.377 59.8953H27.8773H28.3776ZM27.377 55.9528C27.377 56.2291 27.601 56.4531 27.8773 56.4531C28.1536 56.4531 28.3776 56.2291 28.3776 55.9528H27.8773H27.377ZM28.3776 52.0103C28.3776 51.7339 28.1536 51.5099 27.8773 51.5099C27.601 51.5099 27.377 51.7339 27.377 52.0103H27.8773H28.3776ZM27.377 48.0677C27.377 48.344 27.601 48.5681 27.8773 48.5681C28.1536 48.5681 28.3776 48.344 28.3776 48.0677H27.8773H27.377ZM28.3776 44.1252C28.3776 43.8489 28.1536 43.6248 27.8773 43.6248C27.601 43.6248 27.377 43.8489 27.377 44.1252H27.8773H28.3776ZM27.377 40.1826C27.377 40.459 27.601 40.683 27.8773 40.683C28.1536 40.683 28.3776 40.459 28.3776 40.1826H27.8773H27.377ZM28.3776 36.2401C28.3776 35.9638 28.1536 35.7398 27.8773 35.7398C27.601 35.7398 27.377 35.9638 27.377 36.2401H27.8773H28.3776ZM27.377 32.2976C27.377 32.5739 27.601 32.7979 27.8773 32.7979C28.1536 32.7979 28.3776 32.5739 28.3776 32.2976H27.8773H27.377ZM28.3776 28.355C28.3776 28.0787 28.1536 27.8547 27.8773 27.8547C27.601 27.8547 27.377 28.0787 27.377 28.355H27.8773H28.3776ZM27.377 24.4125C27.377 24.6888 27.601 24.9128 27.8773 24.9128C28.1536 24.9128 28.3776 24.6888 28.3776 24.4125H27.8773H27.377ZM28.3776 20.4699C28.3776 20.1936 28.1536 19.9696 27.8773 19.9696C27.601 19.9696 27.377 20.1936 27.377 20.4699H27.8773H28.3776ZM27.377 16.5274C27.377 16.8037 27.601 17.0277 27.8773 17.0277C28.1536 17.0277 28.3776 16.8037 28.3776 16.5274H27.8773H27.377ZM28.3776 12.5848C28.3776 12.3085 28.1536 12.0845 27.8773 12.0845C27.601 12.0845 27.377 12.3085 27.377 12.5848H27.8773H28.3776ZM27.377 8.6423C27.377 8.91864 27.601 9.14264 27.8773 9.14264C28.1536 9.14264 28.3776 8.91864 28.3776 8.6423H27.8773H27.377ZM28.0357 4.94712C27.9299 4.69187 27.6372 4.57075 27.3819 4.6766C27.1267 4.78244 27.0055 5.07518 27.1114 5.33043L27.5736 5.13877L28.0357 4.94712ZM25.2151 3.43418C25.4704 3.54002 25.7631 3.41891 25.869 3.16366C25.9748 2.9084 25.8537 2.61568 25.5984 2.50982L25.4068 2.972L25.2151 3.43418ZM22.1074 2.16795C21.8311 2.16795 21.6071 2.39195 21.6071 2.66828C21.6071 2.94461 21.8311 3.16862 22.1074 3.16862V2.66828V2.16795ZM18.5731 3.16862C18.8494 3.16862 19.0734 2.94461 19.0734 2.66828C19.0734 2.39195 18.8494 2.16795 18.5731 2.16795V2.66828V3.16862ZM15.0387 2.16795C14.7624 2.16795 14.5384 2.39195 14.5384 2.66828C14.5384 2.94461 14.7624 3.16862 15.0387 3.16862V2.66828V2.16795ZM11.5044 3.16862C11.7807 3.16862 12.0047 2.94461 12.0047 2.66828C12.0047 2.39195 11.7807 2.16795 11.5044 2.16795V2.66828V3.16862ZM7.96999 2.16795C7.69367 2.16795 7.46966 2.39195 7.46966 2.66828C7.46966 2.94461 7.69367 3.16862 7.96999 3.16862V2.66828V2.16795ZM4.43563 3.16862C4.71196 3.16862 4.93596 2.94461 4.93596 2.66828C4.93596 2.39195 4.71196 2.16795 4.43563 2.16795V2.66828V3.16862ZM103.5 215.686V215.186H101.51V215.686V216.186H103.5V215.686ZM97.5314 215.686V215.186H93.5525V215.686V216.186H97.5314V215.686ZM89.5736 215.686V215.186H85.5947V215.686V216.186H89.5736V215.686ZM81.6159 215.686V215.186H77.637V215.686V216.186H81.6159V215.686ZM73.6581 215.686V215.186H69.6792V215.686V216.186H73.6581V215.686ZM65.7004 215.686V215.186H61.7215V215.686V216.186H65.7004V215.686ZM57.7426 215.686V215.186H53.7638V215.686V216.186H57.7426V215.686ZM49.7849 215.686V215.186H45.806V215.686V216.186H49.7849V215.686ZM41.8271 215.686V215.186H37.8483V215.686V216.186H41.8271V215.686ZM33.8694 215.686V215.186H31.88V215.686V216.186H33.8694V215.686ZM31.88 215.686V215.186C31.4041 215.186 30.9517 215.091 30.5394 214.92L30.3478 215.382L30.1561 215.844C30.6878 216.065 31.2703 216.186 31.88 216.186V215.686ZM28.181 213.215L28.6432 213.024C28.4722 212.612 28.3776 212.159 28.3776 211.683H27.8773H27.377C27.377 212.293 27.4984 212.875 27.7188 213.407L28.181 213.215ZM27.8773 211.683H28.3776V209.712H27.8773H27.377V211.683H27.8773ZM27.8773 205.769H28.3776V201.827H27.8773H27.377V205.769H27.8773ZM27.8773 197.884H28.3776V193.942H27.8773H27.377V197.884H27.8773ZM27.8773 189.999H28.3776V186.057H27.8773H27.377V189.999H27.8773ZM27.8773 182.114H28.3776V178.172H27.8773H27.377V182.114H27.8773ZM27.8773 174.229H28.3776V170.287H27.8773H27.377V174.229H27.8773ZM27.8773 166.344H28.3776V162.401H27.8773H27.377V166.344H27.8773ZM27.8773 158.459H28.3776V154.516H27.8773H27.377V158.459H27.8773ZM27.8773 150.574H28.3776V146.631H27.8773H27.377V150.574H27.8773ZM27.8773 142.689H28.3776V138.746H27.8773H27.377V142.689H27.8773ZM27.8773 134.804H28.3776V130.861H27.8773H27.377V134.804H27.8773ZM27.8773 126.919H28.3776V122.976H27.8773H27.377V126.919H27.8773ZM27.8773 119.033H28.3776V115.091H27.8773H27.377V119.033H27.8773ZM27.8773 111.148H28.3776V107.206H27.8773H27.377V111.148H27.8773ZM27.8773 103.263H28.3776V99.3208H27.8773H27.377V103.263H27.8773ZM27.8773 95.3782H28.3776V91.4357H27.8773H27.377V95.3782H27.8773ZM27.8773 87.4931H28.3776V83.5506H27.8773H27.377V87.4931H27.8773ZM27.8773 79.6081H28.3776V75.6655H27.8773H27.377V79.6081H27.8773ZM27.8773 71.723H28.3776V67.7804H27.8773H27.377V71.723H27.8773ZM27.8773 63.8379H28.3776V59.8953H27.8773H27.377V63.8379H27.8773ZM27.8773 55.9528H28.3776V52.0103H27.8773H27.377V55.9528H27.8773ZM27.8773 48.0677H28.3776V44.1252H27.8773H27.377V48.0677H27.8773ZM27.8773 40.1826H28.3776V36.2401H27.8773H27.377V40.1826H27.8773ZM27.8773 32.2976H28.3776V28.355H27.8773H27.377V32.2976H27.8773ZM27.8773 24.4125H28.3776V20.4699H27.8773H27.377V24.4125H27.8773ZM27.8773 16.5274H28.3776V12.5848H27.8773H27.377V16.5274H27.8773ZM27.8773 8.6423H28.3776V6.67094H27.8773H27.377V8.6423H27.8773ZM27.8773 6.67094H28.3776C28.3776 6.0613 28.2562 5.47875 28.0357 4.94712L27.5736 5.13877L27.1114 5.33043C27.2823 5.74268 27.377 6.19513 27.377 6.67094H27.8773ZM25.4068 2.972L25.5984 2.50982C25.0668 2.28937 24.4843 2.16795 23.8746 2.16795V2.66828V3.16862C24.3504 3.16862 24.8029 3.26321 25.2151 3.43418L25.4068 2.972ZM23.8746 2.66828V2.16795H22.1074V2.66828V3.16862H23.8746V2.66828ZM18.5731 2.66828V2.16795H15.0387V2.66828V3.16862H18.5731V2.66828ZM11.5044 2.66828V2.16795H7.96999V2.66828V3.16862H11.5044V2.66828ZM4.43563 2.66828V2.16795H2.66845V2.66828V3.16862H4.43563V2.66828Z" fill="#79B3FF"/>
</svg>
